<svg width="24" height="24" viewBox="0 0 24 24" fill="none" xmlns="http://www.w3.org/2000/svg">
<path d="M16.55 6.47059H12.95V4.92574C13.3181 4.61876 13.55 4.17289 13.55 3.67647C13.55 2.75057 12.7441 2 11.75 2C10.7559 2 9.95 2.75057 9.95 3.67647C9.95 4.17289 10.1819 4.61876 10.55 4.92574V6.47059H6.95V9.26471H16.55V6.47059Z" fill="currentColor"/>
<path d="M17.15 15.4118L18.35 15.9706C18.35 17.8224 16.7382 18.7647 14.75 18.7647H12.95V10.3824H10.55V18.7647H8.75C6.7618 18.7647 5.15 17.8224 5.15 15.9706L6.35 15.4118L2.75 12.0588V15.4118C2.75 18.4981 5.43628 21 8.75 21H14.75C18.0637 21 20.75 18.4981 20.75 15.4118V12.0588L17.15 15.4118Z" fill="currentColor"/>
</svg>
