<svg width="24" height="24" viewBox="0 0 24 24" fill="none" xmlns="http://www.w3.org/2000/svg">
<path d="M20.5 14.4382H23.25V21H20.5V14.4382Z" fill="currentColor"/>
<path d="M1.25 14.4382H4V21H1.25V14.4382Z" fill="currentColor"/>
<path d="M15.4154 14.4384V15.7959H9.08462V14.4384H5.28906V21H19.2109V14.4384H15.4154Z" fill="currentColor"/>
<path d="M1.25 6.60405V13.1656H4V6.60405H1.25Z" fill="currentColor"/>
<path d="M23.25 6.60418H20.5V13.1659H23.25V6.60418Z" fill="currentColor"/>
<path d="M5.28906 6.60405V13.1656H9.08462V11.8081H15.4154V13.1656H19.2109V6.60405H5.28906Z" fill="currentColor"/>
<path d="M12.8945 0H11.6055V3.16782H12.8945V0Z" fill="currentColor"/>
<path d="M6.42075 1.55331L5.34886 2.26046L7.13156 4.8946L8.20345 4.18745L6.42075 1.55331Z" fill="currentColor"/>
<path d="M18.0808 1.55317L16.2981 4.18732L17.37 4.89447L19.1527 2.26033L18.0808 1.55317Z" fill="currentColor"/>
<path d="M14.126 13.0807H10.3736V14.5231H14.126V13.0807Z" fill="currentColor"/>
</svg>
