<svg width="25" height="24" viewBox="0 0 25 24" fill="none" xmlns="http://www.w3.org/2000/svg">
<path d="M21.9681 15.0575C22.0469 16.153 22.0898 20.8858 21.603 21.208C21.1161 21.5302 7.66248 21.5946 3.74596 21.0075C2.93688 20.8857 4.56925 4.70415 6.49529 3.07167C7.02513 2.62775 14.6721 4.44639 15.3595 4.85451C16.0468 5.26263 17.8295 6.75907 18.073 7.20299C18.3164 7.64691 21.3093 12.1792 21.517 12.7878C21.7174 13.3964 21.9252 14.5277 21.961 15.0575H21.9681Z" fill="url(#paint0_linear_415_41613)"/>
<g style="mix-blend-mode:multiply" opacity="0.5">
<path d="M16.276 19.11C15.4884 19.5897 8.28534 20.4274 7.4333 20.5706C6.58126 20.7138 20.5145 22.3392 21.3093 20.7926C21.8964 19.6542 19.4192 13.2388 17.5003 12.2221C-0.743385 2.57755 16.4621 18.4584 14.665 17.7854C12.875 17.1052 6.81755 6.26495 6.73163 6.41531C6.65287 6.56567 3.93199 19.6971 4.32579 20.184C4.71959 20.6709 10.9346 19.9048 14.665 18.7377C16.2473 18.2436 14.5861 10.3104 17.1995 12.7448C18.4739 13.9333 16.9418 18.6947 16.2688 19.1028L16.276 19.11Z" fill="#700000"/>
</g>
<g style="mix-blend-mode:screen" opacity="0.5">
<path d="M14.2712 7.79008C13.9562 7.83304 7.85587 7.50368 7.63391 7.28172C7.41195 7.05976 6.63872 2.98572 6.96808 3.00004C7.29744 3.02152 14.4573 4.18144 14.5146 4.6898C14.5719 5.19816 14.5791 7.74712 14.2712 7.79008Z" fill="#FF5793"/>
</g>
<g style="mix-blend-mode:darken">
<path d="M8.02053 7.79724C8.31409 7.6254 14.1566 8.09796 14.4359 8.26264C14.7223 8.42732 17.9156 13.1601 17.8584 13.5252C17.8011 13.8904 15.8965 19.1745 15.3452 18.931C14.801 18.6876 11.0563 14.1553 9.5957 11.7066C8.13506 9.25788 7.83437 7.90464 8.01337 7.8044L8.02053 7.79724Z" fill="#FF001A"/>
</g>
<g style="mix-blend-mode:screen">
<path d="M14.7797 7.79726C15.0517 8.28414 18.016 13.0527 18.5673 13.3463C19.1115 13.6398 21.5028 14.9931 21.7033 14.7568C21.9038 14.5205 21.7606 13.2747 21.5243 12.7949C21.288 12.3152 18.1091 7.42494 17.8585 7.04546C17.6079 6.66598 15.7535 5.1051 15.3668 4.9977C14.9802 4.8903 14.3644 7.05262 14.7797 7.79726Z" fill="#FF77BB"/>
</g>
<g style="mix-blend-mode:multiply" opacity="0.5">
<path d="M15.3234 19.4108C16.2685 19.6184 21.0728 21.122 20.7864 21.2294C20.5071 21.3368 7.79103 21.4728 4.93419 21.0504C4.52607 20.9931 14.9797 19.3392 15.3162 19.4108H15.3234Z" fill="#B80066"/>
</g>
<g style="mix-blend-mode:multiply" opacity="0.5">
<path d="M14.8794 18.931C14.8149 19.1386 6.70982 20.3845 4.3327 20.6136C3.91026 20.6565 7.36141 8.55614 7.59053 8.61342C7.81249 8.6707 9.17283 11.5419 11.0989 14.2841C13.0249 17.0336 14.9653 18.6518 14.8865 18.931H14.8794Z" fill="#960066"/>
</g>
<g style="mix-blend-mode:multiply" opacity="0.5">
<path d="M15.839 19.0957C15.9178 19.4323 21.0299 21.2509 21.4739 21.0719C21.9178 20.8929 21.9466 15.1434 21.789 15.036C21.6315 14.9286 18.4954 13.3176 18.209 13.6971C17.9226 14.0766 15.7603 18.7807 15.8319 19.0886L15.839 19.0957Z" fill="#B80066"/>
</g>
<g style="mix-blend-mode:screen" opacity="0.5">
<path d="M4.29719 18.931C4.89147 18.1506 7.38327 8.47028 7.27587 7.3748C7.16847 6.27932 6.70302 3.44396 6.33786 3.69456C5.9727 3.94516 4.87727 8.1624 4.41187 11.7782C3.93931 15.394 3.86044 19.511 4.30436 18.931H4.29719Z" fill="#FF5793"/>
</g>
<g style="mix-blend-mode:multiply" opacity="0.5">
<path d="M7.26863 7.76149C7.13259 8.61353 5.79371 11.9215 5.51447 12.0217C5.23523 12.1219 4.82704 9.14337 5.09196 7.58965C5.5144 5.13377 5.97974 3.45833 6.45946 3.72325C6.93918 3.98817 7.35455 7.25313 7.26863 7.76149Z" fill="#960066"/>
</g>
<g style="mix-blend-mode:multiply" opacity="0.5">
<path d="M7.64094 8.25544C8.17794 8.89268 8.1923 9.92372 11.6219 14.7782C13.7485 17.7926 15.3165 18.6589 14.9799 19.0599C14.6506 19.468 9.78175 16.8761 5.64327 18.4513C4.06091 19.0599 6.59554 11.3271 6.8891 10.5037C7.1755 9.68028 7.39035 7.94755 7.64811 8.24827L7.64094 8.25544Z" fill="#FF249C"/>
</g>
<g style="mix-blend-mode:multiply" opacity="0.5">
<path d="M18.7031 14.499C20.9657 15.7377 20.7437 20.6065 19.7986 20.5492C18.8535 20.4991 16.5693 19.4323 16.3044 18.9311C16.0395 18.4299 17.5074 13.8403 18.7031 14.4919V14.499Z" fill="#FF249C"/>
</g>
<g style="mix-blend-mode:screen" opacity="0.5">
<path d="M12.2018 7.55381C6.37356 7.55381 7.87718 5.0836 8.28531 4.99768C11.3355 4.37476 13.8559 6.05736 13.906 6.16476C13.9776 6.32944 13.4835 7.55381 12.209 7.55381H12.2018Z" fill="#DE5634"/>
</g>
<g style="mix-blend-mode:screen" opacity="0.92">
<path d="M14.7796 7.79727C15.0302 8.40587 18.3238 12.9453 18.6675 13.1172C19.0111 13.289 21.3381 12.9095 21.3166 12.4441C21.2951 11.9787 18.2165 7.23163 17.8585 6.92375C17.6651 6.75907 15.6317 4.81155 15.3668 4.86167C15.1305 4.90463 14.4503 7.00251 14.7796 7.79727Z" fill="#FF8390"/>
</g>
<g style="mix-blend-mode:multiply" opacity="0.5">
<path d="M8.32119 7.56096C10.3188 7.83304 14.7866 7.697 14.6935 8.82828C14.221 14.4847 16.0396 17.8141 15.4525 18.1578C14.8654 18.5014 11.7652 14.7711 10.1112 12.2293C8.45723 9.69464 7.06104 7.38196 8.32836 7.56096H8.32119Z" fill="#960066"/>
</g>
<path style="mix-blend-mode:screen" d="M5.64351 20.8858C8.58628 20.6137 13.8058 19.5826 14.8583 20.0122C15.9037 20.4347 14.794 21.208 13.5267 21.2008C12.2594 21.1865 5.36427 20.9144 5.64351 20.8929V20.8858Z" fill="url(#paint1_linear_415_41613)"/>
<g style="mix-blend-mode:screen" opacity="0.5">
<path d="M17.493 12.7233C17.6291 13.9334 15.753 18.036 15.2089 18.2365C14.6647 18.4442 9.33774 11.1266 8.85802 9.5944C8.3783 8.06216 14.1708 8.67076 14.9584 9.26504C15.746 9.85932 17.3928 11.7997 17.493 12.7233Z" fill="#FF5793"/>
</g>
<path style="mix-blend-mode:screen" d="M21.6457 15.2437C22.0467 16.332 21.9749 21.1149 21.4809 21.0719C20.9868 21.029 18.8175 20.3846 18.3951 19.9048C17.9726 19.4323 18.3448 14.1482 19.1539 14.1482C19.963 14.1482 21.4309 14.6637 21.6457 15.2437Z" fill="url(#paint2_linear_415_41613)"/>
<path style="mix-blend-mode:screen" d="M8.85803 8.21967C10.6337 7.98339 14.1922 7.74711 14.2137 8.61347C14.2352 9.48699 14.0204 16.5969 13.3832 16.5038C12.7531 16.4107 6.85323 8.47743 8.85803 8.21251V8.21967Z" fill="url(#paint3_linear_415_41613)"/>
<path style="mix-blend-mode:screen" d="M6.45969 11.6421C6.18045 12.6231 4.54797 18.8236 4.30453 18.931C4.06109 19.0384 4.38339 12.8379 4.41203 11.7782C4.60535 5.21245 7.24736 1.51789 6.88936 8.62062C6.86072 9.2149 6.78905 10.4822 6.45969 11.6493V11.6421Z" fill="url(#paint4_linear_415_41613)"/>
<g style="mix-blend-mode:multiply" opacity="0.5">
<path d="M7.97019 3.10028C10.8915 3.53704 14.851 4.61104 15.3665 4.85448C15.8821 5.09792 17.5933 6.5514 17.8582 6.91656C18.1231 7.28172 21.3951 12.308 21.524 12.7878C21.8892 14.1267 22.283 18.6017 21.8892 20.184C21.8892 20.184 21.696 14.2842 21.2807 12.752C21.0516 11.8856 18.3521 7.4822 17.228 6.63016C16.1039 5.77812 15.0801 5.07644 14.0562 4.73276C12.4166 4.1886 7.97736 3.10028 7.97736 3.10028H7.97019Z" fill="#7A0033"/>
</g>
<g style="mix-blend-mode:multiply" opacity="0.5">
<path d="M22.0041 18.0647C21.9182 19.8261 21.6961 20.8857 20.8011 21.0862C19.9061 21.2867 10.0182 21.2008 7.61241 21.0862C5.20665 20.9717 4.09685 20.7998 4.03241 20.2843C3.98945 19.9764 4.37606 10.2961 4.71258 8.62067C4.71258 8.62067 2.84392 20.3774 3.74608 21.0146C4.09692 21.2581 21.0803 21.6304 21.4741 21.1936C21.8679 20.7569 22.0041 18.0647 22.0041 18.0647Z" fill="#960066"/>
</g>
<path d="M16.6625 17.8928C16.9131 18.3797 16.0325 19.2103 17.6291 19.8332C18.1661 20.0408 15.1302 19.5539 14.8868 19.4107C14.6434 19.2747 16.5049 17.5849 16.6625 17.8928Z" fill="#FF8CCA"/>
<path d="M18.5672 13.3463C18.8393 13.8403 18.0804 14.2842 17.6651 14.7854C17.2498 15.2866 17.4073 12.4942 17.6651 12.5085C17.9228 12.53 18.3811 13.0026 18.5672 13.3463Z" fill="#FF8CCA"/>
<path d="M14.6434 6.92375C14.5646 7.42495 15.6529 8.92855 15.4309 9.09323C15.2089 9.25075 13.1039 7.95479 13.2829 7.86887C13.4619 7.78295 14.7508 6.26503 14.6434 6.93091V6.92375Z" fill="#FF8CCA"/>
<path d="M7.49057 6.91659C7.77697 7.40347 9.89619 7.64691 9.67423 7.81159C9.45227 7.97627 8.70765 7.66839 8.44273 8.09799C8.17781 8.52043 8.44273 9.17199 8.07757 9.00731C7.71241 8.84263 7.29722 7.62543 7.27574 7.37483C7.2471 7.12423 7.16837 6.36527 7.49057 6.91659Z" fill="#FF8CCA"/>
<g style="mix-blend-mode:screen" opacity="0.5">
<path d="M7.82689 15.709C8.44265 18.9382 14.7147 18.4799 14.0059 18.9382C13.297 19.3964 5.97231 20.6422 5.00571 20.1912C4.03195 19.7401 7.39013 13.4106 7.82689 15.709Z" fill="#FF5793"/>
</g>
<path d="M14.8797 5.95001C15.2019 6.26505 16.8129 8.54193 17.0205 9.00734C17.2353 9.47274 17.5647 11.5849 17.2067 11.3343C16.8487 11.0837 14.851 8.49182 14.6863 7.55386C14.5217 6.6159 14.4859 5.56337 14.8797 5.95001Z" fill="white"/>
<path d="M6.14457 12.1433C6.20901 12.3438 5.07782 17.6207 4.80574 17.4918C4.53366 17.363 4.66239 14.0837 5.00607 13.5395C5.34975 12.9954 5.98705 11.6779 6.14457 12.1433Z" fill="white"/>
<path d="M11.7791 14.4345C14.1777 14.4703 14.2134 16.8832 13.6478 16.8832C13.2612 16.8832 10.6049 14.4202 11.7791 14.4345Z" fill="url(#paint5_linear_415_41613)"/>
<g style="mix-blend-mode:multiply" opacity="0.5">
<path d="M13.3687 15.0361C14.7506 16.6184 12.982 16.2819 12.6598 16.1244C12.3376 15.9597 11.1061 14.628 11.5428 14.5062C12.3376 14.2843 13.2398 14.8929 13.3758 15.0432L13.3687 15.0361Z" fill="#960066"/>
</g>
<path d="M13.9489 16.3893C13.9632 16.8475 13.7984 17.048 13.3115 16.6972C12.9607 16.4466 12.6744 16.1816 12.6744 16.1816C12.6744 16.1816 13.197 16.3606 13.3904 16.375C13.7126 16.4036 13.9489 16.3392 13.9489 16.3821V16.3893Z" fill="#FF5E66"/>
<defs>
<linearGradient id="paint0_linear_415_41613" x1="2.99415" y1="20.5994" x2="18.4598" y2="8.77821" gradientUnits="userSpaceOnUse">
<stop stop-color="#FF7AB0"/>
<stop offset="0.56" stop-color="#EB0029"/>
<stop offset="1" stop-color="#9A00BF"/>
</linearGradient>
<linearGradient id="paint1_linear_415_41613" x1="12.5815" y1="20.3559" x2="7.1113" y2="21.6948" gradientUnits="userSpaceOnUse">
<stop offset="0.02" stop-color="#FF2CFE"/>
<stop offset="0.45" stop-color="#8E188D"/>
<stop offset="1"/>
</linearGradient>
<linearGradient id="paint2_linear_415_41613" x1="21.9034" y1="17.6136" x2="18.216" y2="17.6136" gradientUnits="userSpaceOnUse">
<stop offset="0.02" stop-color="#FF1400"/>
<stop offset="1"/>
</linearGradient>
<linearGradient id="paint3_linear_415_41613" x1="10.5621" y1="7.61107" x2="14.6147" y2="15.0431" gradientUnits="userSpaceOnUse">
<stop offset="0.02" stop-color="#FF2CFE"/>
<stop offset="1"/>
</linearGradient>
<linearGradient id="paint4_linear_415_41613" x1="6.92516" y1="11.8498" x2="4.21147" y2="11.8498" gradientUnits="userSpaceOnUse">
<stop offset="0.02" stop-color="#FF1400"/>
<stop offset="1"/>
</linearGradient>
<linearGradient id="paint5_linear_415_41613" x1="12.4092" y1="16.1028" x2="13.0751" y2="14.95" gradientUnits="userSpaceOnUse">
<stop stop-color="#FF134B"/>
<stop offset="1" stop-color="#97003B"/>
</linearGradient>
</defs>
</svg>
