<svg width="251" height="254" viewBox="0 0 251 254" fill="none" xmlns="http://www.w3.org/2000/svg">
<g filter="url(#filter0_d_2021_4604)">
<path d="M211.909 195.328C200.093 197.321 188.431 195.749 180.074 191.066C180.071 191.063 180.065 191.058 180.062 191.059C178.356 190.1 176.792 189.012 175.391 187.804C175.378 187.797 175.369 187.789 175.362 187.782C175.16 187.603 174.955 187.427 174.757 187.245L174.754 187.245C174.67 187.164 174.586 187.088 174.507 187.006C174.086 186.607 173.68 186.198 173.292 185.769C174.122 187.615 174.764 189.42 175.239 191.173C175.789 193.216 176.112 195.189 176.232 197.092C177.689 219.929 149.953 232.28 137.583 222.164C136.828 221.479 136.21 220.734 135.727 219.97C135.69 219.909 135.675 219.876 135.675 219.876C134.648 218.207 134.295 216.436 134.72 214.936C135.235 213.111 136.895 211.69 139.885 211.338C146.578 209.384 147.305 200.937 141.643 199.443C136.455 196.701 131.953 193.514 128.506 189.64C127.582 188.606 126.732 187.52 125.968 186.381C125.856 186.217 125.739 186.056 125.612 185.903C124.76 184.845 123.583 184.066 122.249 183.781C119.538 183.197 116.557 184.512 114.886 188.574C113.552 191.829 113.728 195.488 115.211 198.635C115.276 198.776 115.348 198.917 115.42 199.057C115.592 199.392 115.782 199.721 115.981 200.038C117.706 202.774 120.039 205.532 122.795 208.303C125.898 211.428 128.078 215.379 128.796 219.723C130.223 228.369 126.663 237.465 117.275 240.618C117.266 240.562 117.253 240.506 117.237 240.448C116.725 237.985 115.858 235.645 114.688 233.486C111.766 228.083 106.959 223.81 101.081 221.531C99.8226 221.042 98.5811 220.577 97.3915 220.092C93.9577 218.681 90.9602 217.109 89.2505 214.402C89.0259 214.914 88.7901 215.404 88.5423 215.89C79.6015 233.472 57.36 233.605 47.0603 224.326C44.4563 221.98 42.617 219.034 41.9424 215.616C41.4352 213.219 41.4754 210.488 42.1009 208.345C42.5946 206.651 43.4607 205.33 44.7057 204.834C44.7439 204.818 44.779 204.799 44.821 204.791C46.0227 204.364 47.5689 204.692 49.4822 206.15C54.8963 210.108 60.7324 206.651 59.6144 197.027L58.2246 185.619C58.1102 185.81 57.9902 186.003 57.8635 186.187C57.8635 186.187 57.8489 186.209 57.8251 186.249C57.3162 186.994 56.712 187.686 56.0318 188.32C46.111 197.623 19.6239 195.028 22.1882 171.073L22.191 171.073C22.3091 169.946 22.4934 168.775 22.7467 167.557C23.3313 164.748 26.8836 163.811 28.8051 165.947C29.4752 166.691 30.1883 167.387 30.9409 167.983C34.645 170.906 39.2927 171.423 44.2671 163.648C47.4011 157.723 51.5345 154.206 57.9036 153.594C60.2435 153.372 62.8915 153.537 65.9006 154.122C56.712 144.354 52.6982 124.996 65.8402 110.576C53.8949 60.2838 106.998 7.0686 158.014 12.0153C160.95 12.2998 163.836 12.7995 166.651 13.5029L166.653 13.5025C182.932 17.556 196.847 28.3643 204.444 43.6255C218.064 70.9718 209.95 104.649 186.679 117.359C187.304 122.486 186.904 127.565 184.932 132.973C184.932 132.973 184.932 132.976 184.93 132.982C184.634 133.803 184.297 134.636 183.923 135.475C183.99 135.553 184.056 135.628 184.126 135.703C184.139 135.718 184.155 135.734 184.168 135.746C193.008 145.433 206.657 141.483 210.518 133.941C210.959 133.085 211.274 132.186 211.441 131.251C211.441 131.249 211.443 131.24 211.442 131.234C211.601 130.326 211.622 129.389 211.482 128.434C211.289 127.082 210.772 125.692 209.879 124.313C208.211 121.925 207.72 119.362 208.6 117.678C209.313 116.299 210.943 115.507 213.579 115.876C213.771 115.902 213.968 115.935 214.159 115.975C216.047 116.355 217.784 117.302 219.237 118.587C229.715 127.844 230.126 142.806 222.603 154.434C221.857 155.588 221.035 156.706 220.134 157.788C217.3 161.186 213.713 164.168 209.437 166.466C208.904 166.755 208.358 167.028 207.805 167.293C210.437 167.161 213.052 166.708 215.635 165.674C219.547 164.114 223.383 161.236 227.097 156.188C227.892 155.108 229.061 154.484 230.285 154.335C231.685 154.168 233.156 154.633 234.2 155.762C245.351 167.812 235.236 190.993 211.908 195.323L211.909 195.328Z" fill="url(#paint0_linear_2021_4604)"/>
<path d="M89.2508 214.405C78.7622 238.147 45.3435 232.936 41.9427 215.619C41.4355 213.221 41.4757 210.49 42.1012 208.348C43.3675 206.614 44.38 205.269 44.706 204.837C44.7798 204.736 44.8196 204.686 44.8196 204.686C44.8212 204.723 44.8197 204.757 44.821 204.791C44.7478 215.306 53.086 220.447 60.73 218.831C67.6045 217.374 71.3054 210.732 71.067 203.712C70.7343 193.775 72.7637 186.106 76.6733 180.235C76.2468 195.998 82.238 208.486 89.2504 214.402L89.2508 214.405Z" fill="#C9F0F3"/>
<g opacity="0.6">
<path d="M57.904 153.597C53.1717 157.071 49.4559 160.929 47.7754 165.551C46.673 168.583 44.3826 171.095 41.3552 172.221C37.5784 173.624 33.2043 172.856 30.5727 168.375C30.5727 168.375 30.7077 168.235 30.9391 167.992C34.6433 170.915 39.291 171.432 44.2654 163.657C47.3994 157.731 51.5327 154.215 57.9018 153.603L57.904 153.597Z" fill="white"/>
</g>
<g opacity="0.6">
<path d="M70.682 157.22C63.7716 162.221 60.8201 172.117 58.7999 183.158C57.3416 172.578 58.0239 162.706 66.0415 155.254L70.682 157.22Z" fill="white"/>
</g>
<path d="M67.0764 154.965C56.5656 163.97 57.7051 174.007 58.2112 184.967C57.5177 186.198 56.7868 187.31 56.0297 188.326C45.6458 198.067 17.0956 194.763 22.7475 167.563C22.628 171.645 24.5653 175.184 27.5372 177.559C34.7406 183.323 46.0134 180.525 49.0677 171.826C54.0547 157.632 60.9034 156.74 67.076 154.962L67.0764 154.965Z" fill="#C9F0F3"/>
<path d="M207.802 167.299C197.439 169.132 192.433 159.454 182.241 155.631C222.269 161.541 227.375 127.805 208.598 117.684C208.598 117.684 210.812 116.973 214.154 115.981C216.042 116.362 217.779 117.308 219.232 118.593C234.43 132.022 228.445 157.455 207.8 167.299L207.802 167.299Z" fill="#C9F0F3"/>
<path d="M117.276 240.621C117.266 240.565 117.254 240.509 117.238 240.451C116.725 237.988 115.858 235.648 114.688 233.489C122.199 231.201 119.208 219.128 110.84 208.189C101.717 195.312 104.454 180.402 114.348 174.132C110.609 184.202 111.005 193.455 115.419 199.054C115.592 199.389 115.781 199.718 115.981 200.035C117.706 202.772 120.038 205.529 122.794 208.3C125.898 211.425 128.078 215.376 128.796 219.72C130.222 228.366 126.663 237.462 117.275 240.615L117.276 240.621Z" fill="#C9F0F3"/>
<g opacity="0.6">
<path d="M85.9302 167.837L90.162 166C73.9214 179.123 80.9749 207.914 101.77 220.516C96.3263 219.519 91.0186 216.763 85.9406 211.018C75.3354 194.192 71.9199 179.014 85.9302 167.837Z" fill="white"/>
</g>
<path d="M156.641 209.606C153.674 220.926 138.335 221.553 134.72 214.936C135.235 213.111 136.895 211.69 139.885 211.338C146.578 209.384 147.305 200.937 141.643 199.443C136.455 196.701 131.953 193.514 128.506 189.64C123.032 180.581 124.158 173.146 127.873 167.938C125.437 177.497 134.814 184.148 142.313 186.336C150.509 188.588 159.278 197.294 156.641 209.606Z" fill="#C9F0F3"/>
<path d="M211.909 195.328C197.31 197.789 182.952 194.811 174.757 187.242L174.754 187.242L173.292 185.767C169.987 178 161.787 172.392 154.369 168.018C163.437 165.819 175.929 177.692 189.51 181.311C218.267 190.131 235.015 172.666 230.286 154.344C231.686 154.176 233.157 154.642 234.201 155.77C245.352 167.821 235.237 191.001 211.909 195.331L211.909 195.328Z" fill="#C9F0F3"/>
<g opacity="0.6">
<path d="M186.88 22.8969C179.508 18.4863 171.129 15.6947 162.292 14.8366C111.272 9.89016 58.1688 63.1026 70.1176 113.4C58.7804 125.843 60.2133 141.961 66.7267 152.424L64.6376 152.679C56.3703 142.539 53.319 124.321 65.8409 110.582C53.8949 60.2839 106.998 7.06862 158.014 12.0153C168.609 13.0436 178.552 16.8571 186.877 22.8973L186.88 22.8969Z" fill="white"/>
</g>
<g opacity="0.6">
<path d="M30.4818 167.606C31.4168 167.604 32.363 167.976 33.0828 168.774C33.3549 169.077 33.6316 169.37 33.9122 169.648C32.6934 169.252 31.5432 168.523 30.4818 167.606Z" fill="white"/>
</g>
<path d="M117.497 242.457C117.104 242.505 116.701 242.425 116.352 242.224C115.893 241.962 115.568 241.514 115.462 240.994L115.428 240.829C113.755 232.82 108.14 226.252 100.411 223.258L99.4659 222.895C95.7604 221.469 92.2148 220.106 89.6512 217.738C86.8731 222.723 82.854 226.635 77.9005 229.142C72.8391 231.705 66.8133 232.757 60.9298 232.104C50.1457 230.907 41.785 224.427 40.1274 215.978C39.1553 211.39 39.9016 205.623 43.2133 203.534C44.6812 202.607 47.1531 202.057 50.6014 204.692C52.3525 205.972 54.1393 206.273 55.4707 205.498C57.3836 204.385 58.2445 201.302 57.7737 197.248L56.8934 190.023C51.1452 195.026 41.025 196.735 32.7639 193.545C27.9471 191.687 17.1569 185.399 20.9379 167.193C21.3484 165.216 22.8198 163.658 24.7752 163.131C26.7477 162.601 28.8157 163.209 30.1764 164.723C32.3333 167.12 34.3625 168.257 36.2119 168.107C38.3117 167.94 40.4833 166.124 42.6681 162.722C46.9426 154.689 52.8869 151.178 61.5954 151.705C58.1802 146.704 56.0588 140.547 55.6494 134.219C55.2409 127.923 56.3548 118.697 63.8216 110.069C58.829 87.5503 66.107 63.0528 83.8793 42.6972C103.602 20.1032 132.077 7.64511 158.195 10.1761C179.023 12.1963 196.931 24.3927 206.102 42.8015C212.882 56.4167 214.692 71.9044 211.197 86.4129C207.788 100.561 199.803 111.859 188.65 118.369C189.182 124.223 188.365 129.597 186.1 135.093C192.204 141.183 200.656 140.548 205.763 136.69C208.976 134.261 211.339 130.009 208.343 125.346C206.172 122.219 205.709 118.839 207.138 116.509C207.856 115.341 209.679 113.468 213.836 114.051C216.206 114.381 218.496 115.475 220.458 117.208C227.412 123.352 230.63 132.342 229.292 141.87C228.231 149.412 224.574 156.341 219.013 161.751C221.181 160.234 223.399 158.101 225.607 155.1C226.754 153.541 228.532 152.585 230.478 152.474C232.407 152.366 234.261 153.108 235.56 154.515C240.546 159.902 241.918 167.471 239.324 175.28C236.441 183.955 227.815 194.253 212.247 197.144C198.911 199.391 185.966 197.182 177.233 191.484C178.493 196.596 178.451 201.554 177.102 206.282C175.447 212.079 171.869 217.207 166.756 221.115C156.922 228.631 143.877 229.695 136.411 223.591C136.386 223.571 136.364 223.55 136.341 223.527C133.367 220.828 132.055 217.176 133.003 214.22C133.825 211.663 136.188 209.956 139.503 209.521C142.364 208.628 143.623 206.319 143.598 204.398C143.588 203.634 143.333 201.794 141.172 201.226C141.036 201.191 140.903 201.138 140.78 201.073C133.298 197.117 127.951 192.646 124.437 187.404C123.806 186.464 122.868 185.798 121.863 185.582C119.674 185.112 117.758 186.455 116.603 189.27C115.316 192.411 115.67 196.069 117.548 199.053C119.106 201.526 121.253 204.125 124.108 206.999C127.61 210.523 129.863 214.817 130.622 219.423C132.072 228.221 128.694 238.731 117.868 242.372C117.749 242.412 117.626 242.438 117.502 242.454L117.497 242.457ZM89.0247 212.572C89.0529 212.568 89.0812 212.565 89.1123 212.561C89.7946 212.51 90.4459 212.84 90.8118 213.418C92.6414 216.308 96.4192 217.762 100.796 219.448L101.748 219.816C110.013 223.02 116.181 229.776 118.564 238.122C126.321 234.468 128 226.281 126.969 220.031C126.334 216.187 124.435 212.586 121.479 209.61C118.428 206.539 116.116 203.734 114.412 201.029C111.897 197.036 111.433 192.122 113.174 187.879C115.377 182.506 119.503 181.309 122.632 181.98C124.594 182.401 126.324 183.6 127.502 185.357C130.643 190.039 135.494 194.086 142.332 197.725C145.312 198.609 147.25 201.19 147.289 204.362C147.332 207.707 145.218 211.711 140.4 213.118C140.3 213.147 140.194 213.166 140.098 213.181C138.748 213.356 137.006 213.85 136.522 215.359C136.027 216.904 136.937 219.075 138.788 220.773C144.97 225.787 156.016 224.682 164.51 218.192C174.436 210.605 177.088 198.771 171.603 186.531C171.233 185.702 171.518 184.727 172.278 184.23C173.039 183.734 174.047 183.863 174.659 184.534C181.938 192.544 196.44 196.069 211.601 193.514C225.556 190.922 233.264 181.797 235.815 174.122C237.973 167.631 236.89 161.399 232.846 157.03C232.297 156.438 231.51 156.124 230.684 156.17C229.843 156.218 229.078 156.626 228.586 157.297C222.942 164.967 216.372 168.734 207.896 169.151C207.018 169.195 206.229 168.611 206.014 167.758C205.798 166.904 206.215 166.019 207.009 165.638C217.066 160.842 224.201 151.542 225.632 141.364C226.796 133.084 224.019 125.291 218.01 119.983C216.592 118.731 214.973 117.948 213.324 117.716C212.437 117.592 210.859 117.521 210.289 118.45C209.779 119.28 209.908 121.142 211.395 123.268C211.409 123.287 211.42 123.305 211.434 123.324C215.054 128.925 213.703 135.33 207.994 139.643C201.339 144.67 190.155 145.351 182.537 136.702C182.061 136.161 181.941 135.39 182.237 134.729C184.757 129.088 185.585 123.641 184.848 117.591C184.757 116.839 185.133 116.109 185.797 115.747C208.17 103.527 215.952 70.8793 202.792 44.4574C194.194 27.1969 177.391 15.7574 157.838 13.8628C132.889 11.4331 105.618 23.4149 86.6677 45.1208C69.4445 64.8505 62.5087 88.5525 67.6388 110.151C67.78 110.744 67.6179 111.369 67.2081 111.82C54.1194 126.182 59.3532 144.463 67.2527 152.856C67.8029 153.44 67.9121 154.312 67.5241 155.013C67.1361 155.714 66.3408 156.086 65.5535 155.936C55.8215 154.048 50.1281 156.533 45.9044 164.512C45.8813 164.558 45.855 164.601 45.8284 164.642C42.9725 169.106 39.8364 171.506 36.519 171.781C33.4598 172.033 30.4022 170.485 27.4323 167.184C27.0007 166.703 26.3701 166.519 25.745 166.687C25.4505 166.766 24.7474 167.047 24.5629 167.935C21.4702 182.819 29.2128 188.205 34.1019 190.091C42.3447 193.272 53.0848 190.694 56.6327 184.681C57.0345 183.998 57.8268 183.649 58.6038 183.81C59.3779 183.971 59.9665 184.61 60.0621 185.395L61.452 196.803C62.1087 202.453 60.6101 206.778 57.3389 208.681C54.7161 210.208 51.3722 209.818 48.393 207.641C47.5674 207.011 46.0995 206.078 45.1937 206.649C43.8377 207.505 42.9354 211.356 43.7547 215.232C45.1069 222.116 52.1723 227.406 61.3451 228.424C70.419 229.432 82.0723 226.083 87.5612 213.653C87.8242 213.056 88.3851 212.644 89.0296 212.566L89.0247 212.572Z" fill="#380175"/>
<path d="M184.847 117.582C184.711 115.873 184.252 114.014 183.629 112.247C183 110.472 182.192 108.742 181.211 107.118C180.23 105.495 179.075 103.973 177.73 102.635C176.385 101.297 174.848 100.146 173.133 99.2853L173.121 99.2811C172.816 99.1291 172.693 98.7571 172.848 98.4544C172.992 98.1703 173.327 98.0464 173.618 98.1542C175.549 98.8822 177.349 99.9556 178.96 101.259C180.573 102.561 182.004 104.084 183.253 105.74C184.502 107.397 185.574 109.184 186.472 111.067C187.36 112.962 188.097 114.916 188.517 117.138C188.705 118.141 188.043 119.111 187.039 119.299C186.035 119.487 185.065 118.826 184.877 117.822C184.866 117.758 184.855 117.693 184.853 117.63L184.848 117.585L184.847 117.582Z" fill="#380175"/>
<path d="M185.348 136.649C182.512 139.764 179.139 142.339 175.51 144.294C171.879 146.261 168.025 147.643 164.133 148.693C163.806 148.781 163.466 148.588 163.377 148.257C163.294 147.949 163.462 147.634 163.752 147.521C167.456 146.104 171.027 144.382 174.229 142.191C177.435 140.009 180.246 137.348 182.497 134.299C183.106 133.477 184.263 133.301 185.086 133.909C185.909 134.517 186.084 135.674 185.476 136.496C185.439 136.546 185.399 136.594 185.356 136.642L185.346 136.652L185.348 136.649Z" fill="#380175"/>
<path d="M67.0022 152.637C69.3868 154.643 71.8713 156.456 74.6658 157.657C77.4514 158.88 80.569 159.438 83.7322 159.78C84.0723 159.816 84.3161 160.122 84.28 160.462C84.2462 160.773 83.9847 161.005 83.6784 161.011C82.0584 161.042 80.4261 161.02 78.7787 160.874C77.1342 160.728 75.4681 160.452 73.844 159.979C72.2178 159.512 70.6385 158.865 69.135 158.11C67.6316 157.356 66.1964 156.502 64.8078 155.608C63.9488 155.056 63.6974 153.911 64.2523 153.05C64.8048 152.191 65.9504 151.94 66.8127 152.494C66.8779 152.535 66.9378 152.579 66.9952 152.627L67.0047 152.634L67.0022 152.637Z" fill="#380175"/>
<path d="M117.286 108.898C118.687 105.58 121.114 102.753 123.907 100.464C126.722 98.1832 129.993 96.4404 133.516 95.3834C137.026 94.3309 140.865 94.0009 144.54 94.8488C146.37 95.2679 148.136 95.9901 149.707 96.9911C151.27 98.0017 152.651 99.2581 153.7 100.733C153.901 101.015 153.834 101.404 153.554 101.602C153.334 101.758 153.047 101.752 152.837 101.606L152.827 101.599C151.439 100.638 150.028 99.8184 148.535 99.2379C147.051 98.6447 145.516 98.2671 143.957 98.0728C140.838 97.6875 137.634 98.0464 134.543 98.9102C131.447 99.7804 128.469 101.167 125.717 102.935C122.961 104.704 120.455 106.884 118.36 109.515L118.352 109.525C118.138 109.795 117.748 109.837 117.481 109.625C117.259 109.449 117.19 109.148 117.295 108.9L117.286 108.898Z" fill="#380175"/>
<path d="M90.3461 123.826C90.4619 124.495 90.437 125.208 90.2552 125.93C90.1498 126.29 90.019 126.652 89.8254 126.994C89.6233 127.337 89.3764 127.665 89.0826 127.962C88.7531 128.271 88.3672 128.542 87.944 128.743C87.842 129.389 87.6597 130.036 87.3819 130.651C87.0146 131.499 86.4649 132.285 85.7878 132.921C84.4338 134.218 82.6238 134.903 80.8481 134.999C79.0621 135.105 77.2808 134.637 75.7693 133.746C74.2469 132.859 73.0424 131.544 72.1513 130.093C72.126 130.051 72.1035 130.007 72.0867 129.964L72.0748 129.936C71.533 128.692 71.1234 127.332 71.071 125.865C71.0476 125.131 71.1167 124.38 71.3011 123.633C71.4833 122.891 71.8053 122.167 72.2391 121.512C72.6725 120.854 73.2138 120.281 73.8243 119.805C74.6869 119.138 75.8545 118.902 76.889 119.151C77.4117 119.274 77.9055 119.512 78.3269 119.839C78.4316 119.921 78.5351 120.017 78.6285 120.1L78.794 120.258L79.1222 120.573L80.43 121.841C81.3075 122.686 82.1769 123.535 83.0311 124.399C83.498 124.864 83.782 125.194 84.1643 125.482C84.5347 125.767 84.9228 126.009 85.32 126.161C86.1164 126.457 86.8723 126.468 87.5376 126.089C87.8766 125.905 88.1891 125.597 88.4585 125.194C88.7248 124.789 88.9379 124.302 89.1244 123.76L89.1323 123.731C89.2439 123.399 89.6041 123.223 89.9368 123.34C90.1613 123.416 90.3139 123.61 90.3521 123.829L90.3461 123.826Z" fill="#380175"/>
<path d="M73.0221 107.569C74.4608 106.826 76.0313 106.388 77.667 106.203C79.3006 106.024 81.0209 106.133 82.6968 106.631C84.3661 107.121 85.9957 108.064 87.1789 109.416C88.3692 110.756 89.0914 112.445 89.1531 114.128C89.1654 114.488 88.8864 114.789 88.5264 114.801C88.3438 114.809 88.1776 114.74 88.0543 114.623L88.0058 114.578C87.7202 114.306 87.4745 114.032 87.238 113.763C86.9724 113.514 86.7242 113.266 86.4911 113.025C86.2237 112.808 85.986 112.577 85.7341 112.369L85.3458 112.078C85.2193 111.982 85.1056 111.873 84.9642 111.795C83.922 111.082 82.818 110.546 81.595 110.139C80.3749 109.732 79.0471 109.478 77.6525 109.286C76.2543 109.09 74.795 108.981 73.2499 108.779L73.2358 108.781C72.8827 108.732 72.6336 108.407 72.6828 108.057C72.7111 107.842 72.8473 107.665 73.0253 107.571L73.0221 107.569Z" fill="#380175"/>
<path d="M82.9635 128.366C82.3402 129.632 80.7307 130.126 79.3594 129.467C77.979 128.804 77.3648 127.225 77.9861 125.943C78.2012 125.495 78.5344 125.145 78.9354 124.904C79.5411 125.495 80.1545 126.08 80.7758 126.658L81.4815 127.317C81.7545 127.556 82.0438 127.787 82.3501 127.994C82.5471 128.127 82.7491 128.255 82.9639 128.369L82.9635 128.366Z" fill="white"/>
<path d="M149.293 115.493C149.42 117.077 149.217 118.687 148.732 120.193C147.76 123.21 145.609 125.805 142.818 127.317C141.433 128.077 139.873 128.556 138.327 128.745C136.802 128.927 135.259 128.901 133.733 128.602C132.217 128.311 130.699 127.788 129.313 126.867C128.963 126.655 128.641 126.37 128.311 126.109C127.997 125.812 127.68 125.521 127.411 125.17C127.119 124.847 126.885 124.457 126.643 124.077L126.534 123.858C126.283 123.848 126.036 123.824 125.794 123.79C124.983 123.683 124.202 123.468 123.481 123.172C122.035 122.583 120.79 121.668 119.841 120.54C119.622 120.277 119.657 119.883 119.92 119.662C120.126 119.488 120.413 119.473 120.636 119.603L120.664 119.62C121.743 120.262 122.951 120.637 124.117 120.716C124.698 120.754 125.268 120.719 125.8 120.614C126.072 120.563 126.33 120.495 126.578 120.404L126.765 120.341L126.79 120.338C126.79 120.338 126.846 120.323 126.874 120.317L126.922 120.311C127.035 120.251 127.159 120.205 127.287 120.172C128.268 119.915 129.193 119.381 130.009 118.636C130.422 118.262 130.8 117.855 131.164 117.38L136.306 110.818L136.38 110.717L136.488 110.592C136.627 110.417 136.776 110.247 136.935 110.09C137.242 109.766 137.593 109.486 137.953 109.218C138.689 108.707 139.519 108.319 140.399 108.097C141.279 107.881 142.216 107.827 143.131 107.962C144.05 108.111 144.917 108.424 145.705 108.907C146.492 109.387 147.191 110.036 147.711 110.775C148.234 111.509 148.61 112.317 148.848 113.116C148.972 113.52 149.07 113.921 149.135 114.317C149.185 114.706 149.242 115.101 149.29 115.496L149.293 115.493Z" fill="#380175"/>
<path d="M133.648 124.794C132.808 124.567 132.019 124.236 131.363 123.791C131.131 123.659 130.958 123.485 130.756 123.332C130.609 123.189 130.452 123.054 130.331 122.905C131.128 122.478 131.853 121.952 132.491 121.369C133.074 120.84 133.613 120.244 134.069 119.655L135.929 117.282C138.621 119.315 138.558 123.181 133.648 124.794Z" fill="white"/>
<path d="M74.7367 128.778L74.6602 128.621C74.6717 128.645 74.6854 128.664 74.7027 128.688C74.7153 128.72 74.7272 128.748 74.7395 128.778L74.7367 128.778Z" fill="#822C44"/>
<path d="M115.741 136.441C116.49 135.971 117.342 135.735 118.23 135.676C119.119 135.622 120.047 135.773 120.905 136.127C121.762 136.475 122.541 137.034 123.112 137.738C123.685 138.437 124.083 139.254 124.178 140.157C124.209 140.454 123.995 140.721 123.697 140.751C123.593 140.764 123.492 140.742 123.404 140.701L123.383 140.689C122.617 140.318 122.018 139.944 121.439 139.622C120.861 139.303 120.329 139.009 119.77 138.753C119.211 138.498 118.628 138.279 117.982 138.068C117.339 137.851 116.642 137.667 115.863 137.389L115.845 137.383C115.569 137.284 115.426 136.984 115.524 136.708C115.565 136.591 115.645 136.498 115.741 136.438L115.741 136.441Z" fill="#380175"/>
<path d="M121.822 139.28C121.155 140.769 120.239 142.133 119.127 143.292C118.017 144.45 116.713 145.403 115.308 146.096C113.901 146.792 112.397 147.233 110.882 147.424C109.368 147.617 107.849 147.561 106.388 147.315C106.051 147.258 105.826 146.939 105.882 146.602C105.934 146.295 106.203 146.082 106.505 146.088L106.514 146.087C107.886 146.12 109.244 145.966 110.526 145.609C111.809 145.255 113.012 144.696 114.07 143.965C116.196 142.505 117.703 140.341 118.359 137.982C118.635 136.997 119.658 136.419 120.644 136.695C121.63 136.97 122.208 137.992 121.932 138.977C121.908 139.063 121.878 139.147 121.842 139.229L121.82 139.28L121.822 139.28Z" fill="#380175"/>
<path d="M207.208 169.252C200.539 170.064 195.799 166.548 191.207 163.143C188.289 160.979 185.271 158.739 181.588 157.358C180.632 156.999 180.149 155.934 180.506 154.979C180.866 154.024 181.932 153.541 182.888 153.898C187.055 155.463 190.433 157.966 193.41 160.175C198.147 163.688 201.891 166.465 207.477 165.475C208.479 165.296 209.442 165.967 209.619 166.971C209.796 167.976 209.126 168.935 208.121 169.112C207.812 169.167 207.508 169.212 207.205 169.249L207.208 169.252Z" fill="#380175"/>
<path d="M165.599 156.675C167.937 155.613 170.312 154.547 172.923 153.868C174.225 153.532 175.586 153.306 176.969 153.237C178.352 153.169 179.746 153.257 181.107 153.458L181.27 153.502L183.078 153.924C184.076 154.157 184.694 155.154 184.462 156.151C184.228 157.149 183.23 157.766 182.232 157.535C182.132 157.513 182.027 157.477 181.937 157.439L180.222 156.722L180.386 156.765C179.251 156.428 178.098 156.19 176.922 156.081C175.75 155.971 174.554 155.997 173.346 156.135C170.929 156.407 168.477 157.101 166.032 157.826L166.029 157.826C165.703 157.924 165.358 157.736 165.261 157.41C165.173 157.111 165.322 156.798 165.599 156.672L165.599 156.675Z" fill="#380175"/>
<path d="M87.243 167.78C85.4028 168.947 83.8129 170.451 82.5163 172.171C81.2024 173.868 80.2166 175.785 79.5277 177.784C78.848 179.787 78.4929 181.888 78.4384 183.985C78.423 185.036 78.4786 186.081 78.6024 187.121C78.7649 188.196 78.8921 189.287 79.1168 190.354C79.2999 191.433 79.5748 192.489 79.8102 193.549C80.0957 194.598 80.3618 195.652 80.7139 196.681C81.3868 198.743 82.15 200.768 83.0943 202.703C84.9624 206.569 87.3867 210.172 90.4448 212.995L90.4641 213.013C91.2139 213.704 91.2589 214.874 90.567 215.623C89.9052 216.337 88.8063 216.408 88.0569 215.814C86.1385 214.291 84.5124 212.482 83.0926 210.554C81.6781 208.623 80.4876 206.552 79.4726 204.414C78.4739 202.268 77.6612 200.048 77.0217 197.79C76.6866 196.664 76.4378 195.516 76.1727 194.376C75.9496 193.228 75.7375 192.076 75.5964 190.918C75.4154 189.762 75.3404 188.604 75.2297 187.437C75.1421 186.224 75.1722 185.01 75.269 183.803C75.3715 182.595 75.5848 181.403 75.8666 180.231C76.154 179.058 76.5632 177.918 77.0341 176.815C77.4987 175.706 78.0874 174.651 78.7431 173.651C79.3924 172.646 80.1387 171.707 80.9575 170.845C82.577 169.114 84.5118 167.663 86.6609 166.699C86.9711 166.561 87.3377 166.697 87.4762 167.009C87.6024 167.292 87.4993 167.623 87.2434 167.783L87.2377 167.784L87.243 167.78Z" fill="#380175"/>
<path d="M58.4376 186.803C58.3924 186.808 58.3443 186.814 58.2984 186.814C57.277 186.861 56.4124 186.075 56.3655 185.054C56.3381 184.453 56.3079 183.852 56.2784 183.256C55.751 172.663 55.2553 162.659 65.8727 153.563C66.6467 152.899 67.8139 152.989 68.4793 153.765C69.1445 154.538 69.0542 155.704 68.2773 156.369C59.0339 164.286 59.4664 172.993 59.9686 183.073C59.9988 183.674 60.0293 184.278 60.0571 184.883C60.1009 185.855 59.3875 186.687 58.4348 186.803L58.4376 186.803Z" fill="#380175"/>
<path d="M26.5943 187.506C27.697 186.36 29.0322 185.38 30.5977 184.854C31.3778 184.593 32.2094 184.448 33.0479 184.478C33.8854 184.499 34.7282 184.729 35.457 185.131C36.1912 185.528 36.7855 186.121 37.2038 186.775C37.6252 187.432 37.879 188.149 38.0169 188.858C38.2914 190.286 38.1314 191.681 37.8273 193C37.822 192.321 37.7889 191.649 37.6776 190.994C37.5635 190.34 37.3889 189.708 37.1322 189.132C36.627 187.975 35.7344 187.077 34.7105 186.821C33.6948 186.538 32.6211 186.815 31.7209 187.386C30.8123 187.958 30.0737 188.819 29.5051 189.78L26.5915 187.506L26.5943 187.506Z" fill="#380175"/>
<path d="M42.6618 193.638C42.2538 191.443 42.5302 189.119 43.4828 187.165C44.421 185.211 45.9617 183.61 47.8348 182.665C48.7703 182.196 49.7981 181.896 50.8467 181.837C51.8925 181.778 52.9533 182.007 53.8574 182.482C54.7644 182.956 55.4969 183.67 56.0386 184.466C56.5839 185.268 56.9495 186.15 57.2246 187.042C56.8069 186.204 56.3058 185.411 55.6781 184.757C55.0557 184.099 54.3028 183.594 53.4901 183.329C52.6803 183.064 51.8238 183.028 51.0168 183.209C50.2098 183.391 49.4516 183.761 48.7848 184.246C47.4493 185.223 46.4912 186.661 46.0621 188.178C45.6223 189.702 45.726 191.284 46.2435 192.705L42.6639 193.632L42.6618 193.638Z" fill="#380175"/>
<path d="M84.9671 221.279C84.1943 220.822 83.4154 220.387 82.5873 220.089C81.7642 219.785 80.9203 219.57 80.0734 219.496C78.3823 219.343 76.7332 219.819 75.5163 220.805C74.292 221.776 73.4679 223.184 73.1482 224.633C72.8291 226.088 73.0581 227.568 73.7379 228.603L70.4186 230.228C69.9763 229.142 69.7988 227.991 69.8373 226.894C69.8755 225.794 70.1167 224.736 70.5179 223.767C71.3239 221.834 72.7417 220.214 74.5234 219.249C76.3027 218.264 78.4188 218.089 80.2378 218.584C82.0734 219.074 83.6325 220.097 84.9696 221.275L84.9671 221.279Z" fill="#380175"/>
<path d="M50.7941 227.044C51.6858 225.58 53.0294 224.315 54.6235 223.671C56.2099 223.01 57.9565 222.958 59.4859 223.431C61.0168 223.892 62.3562 224.902 63.1114 226.226C63.8835 227.548 64.005 229.086 63.7134 230.438C63.7013 229.043 63.2387 227.695 62.3625 226.767C61.5022 225.828 60.2954 225.319 59.1155 225.242C57.9317 225.157 56.7766 225.495 55.907 226.129C55.0286 226.76 54.4445 227.666 54.1089 228.678L50.7919 227.05L50.7941 227.044Z" fill="#380175"/>
<path d="M113.368 194.884C112.846 195.146 112.346 195.442 111.909 195.793C111.479 196.149 111.113 196.558 110.853 197.016C110.313 197.925 110.297 199.094 110.839 200.123C111.374 201.15 112.411 201.963 113.613 202.333C114.821 202.713 116.188 202.63 117.444 202.176C116.276 202.814 114.879 203.145 113.479 202.934C112.092 202.73 110.713 202.01 109.801 200.791C109.351 200.183 109.024 199.449 108.904 198.658C108.777 197.869 108.881 197.03 109.162 196.277C109.44 195.518 109.883 194.842 110.397 194.26C110.918 193.684 111.505 193.202 112.114 192.767L113.371 194.884L113.368 194.884Z" fill="#380175"/>
<path d="M122.367 207.426C121.572 208.226 120.962 209.32 120.636 210.529C120.312 211.733 120.264 213.057 120.607 214.274C120.944 215.485 121.745 216.569 122.978 217.086C123.59 217.347 124.286 217.46 124.993 217.449C125.704 217.439 126.426 217.314 127.138 217.127C126.481 217.457 125.789 217.739 125.049 217.906C124.31 218.076 123.515 218.124 122.722 217.972C121.929 217.822 121.151 217.464 120.496 216.936C119.841 216.411 119.302 215.734 118.908 214.997C118.119 213.513 117.815 211.822 117.892 210.141C117.974 208.46 118.451 206.748 119.413 205.204L122.369 207.423L122.367 207.426Z" fill="#380175"/>
<path d="M128.876 224.311C127.995 224.068 127.093 224.064 126.269 224.433C125.452 224.794 124.72 225.539 124.37 226.508C124.013 227.466 124.036 228.618 124.558 229.629C125.07 230.651 126.071 231.454 127.218 231.965C125.992 231.745 124.719 231.212 123.799 230.158C122.875 229.121 122.406 227.621 122.56 226.135C122.701 224.65 123.461 223.165 124.721 222.134C125.347 221.619 126.088 221.228 126.873 220.98C127.657 220.733 128.474 220.633 129.278 220.636L128.876 224.308L128.876 224.311Z" fill="#380175"/>
<g opacity="0.3">
<path d="M112.739 193.823C106.017 197.803 111.511 204.868 117.44 202.173Z" fill="#380175"/>
</g>
<g opacity="0.3">
<path d="M120.889 206.317C117.207 211.205 119.512 220.117 127.138 217.13Z" fill="#380175"/>
</g>
<g opacity="0.3">
<path d="M129.077 222.475C122.948 221.808 120.892 230.062 127.218 231.965Z" fill="#380175"/>
</g>
<path d="M129.595 191.093C130.337 190.257 131.246 189.599 132.211 189.157C133.175 188.713 134.19 188.469 135.184 188.388C137.176 188.234 139.133 188.658 140.806 189.65C141.633 190.154 142.388 190.833 142.902 191.69C143.169 192.111 143.337 192.595 143.452 193.074C143.482 193.319 143.529 193.563 143.527 193.807C143.514 194.049 143.532 194.294 143.477 194.527C143.332 195.473 142.904 196.296 142.391 197.01C141.876 197.729 141.236 198.314 140.596 198.879C141.128 198.207 141.642 197.525 141.998 196.771C142.355 196.025 142.584 195.226 142.558 194.467C142.572 194.276 142.512 194.094 142.496 193.913C142.465 193.733 142.39 193.561 142.343 193.389C142.189 193.061 142.019 192.752 141.772 192.49C141.297 191.958 140.666 191.561 139.974 191.299C138.583 190.78 136.998 190.747 135.626 191.123C134.243 191.495 133.12 192.312 132.526 193.344L129.595 191.093Z" fill="#380175"/>
<path d="M143.046 198.948C144.067 198.563 145.2 198.301 146.387 198.372C147.571 198.431 148.761 198.874 149.668 199.586C150.589 200.29 151.225 201.225 151.628 202.199C152.031 203.176 152.211 204.212 152.165 205.241C152.123 206.264 151.824 207.3 151.223 208.153C150.633 209.013 149.736 209.63 148.795 209.894C147.853 210.166 146.9 210.136 146.005 209.996C145.102 209.868 144.255 209.555 143.431 209.243C144.301 209.409 145.175 209.567 146.04 209.536C146.899 209.523 147.752 209.387 148.469 209.031C149.933 208.33 150.545 206.76 150.317 205.285C150.124 203.818 149.236 202.425 148.114 201.879C147.004 201.318 145.813 201.572 144.64 202.279L143.046 198.945L143.046 198.948Z" fill="#380175"/>
<path d="M144.751 208.635C145.264 209.871 145.584 211.234 145.469 212.644C145.418 213 145.408 213.342 145.295 213.688L145.148 214.199C145.091 214.367 145.005 214.529 144.933 214.693C144.648 215.349 144.168 215.904 143.664 216.361C142.59 217.243 141.312 217.544 140.147 217.612C138.963 217.667 137.841 217.454 136.758 217.202C137.873 217.149 138.979 217.04 139.982 216.7C140.976 216.361 141.852 215.805 142.329 215.081C142.794 214.348 142.872 213.531 142.699 212.723C142.529 211.916 142.088 211.126 141.529 210.441L144.751 208.632L144.751 208.635Z" fill="#380175"/>
<g opacity="0.3">
<path d="M131.06 192.219C135.506 186.44 148.364 191.145 140.599 198.879Z" fill="#380175"/>
</g>
<g opacity="0.3">
<path d="M143.843 200.614C152.262 196.595 155.232 212.973 143.434 209.243Z" fill="#380175"/>
</g>
<g opacity="0.3">
<path d="M143.14 209.539C145.426 213.606 143.715 218.023 136.755 217.202L134.717 214.934" fill="#380175"/>
</g>
<path d="M172.012 185.435C172.621 184.619 173.372 183.879 174.243 183.309C175.112 182.736 176.099 182.34 177.111 182.171C179.142 181.835 181.185 182.406 182.694 183.558C184.215 184.711 185.164 186.447 185.399 188.196C185.523 189.069 185.495 189.944 185.344 190.779C185.188 191.615 184.918 192.413 184.592 193.176C184.771 192.365 184.881 191.549 184.883 190.741C184.877 189.933 184.749 189.141 184.498 188.406C184.007 186.935 182.966 185.74 181.693 185.113C180.42 184.483 178.957 184.414 177.77 184.866C176.574 185.321 175.69 186.257 175.139 187.408L172.01 185.438L172.012 185.435Z" fill="#380175"/>
<path d="M188.075 194.282C188.463 193.231 189.051 192.263 189.77 191.453C190.488 190.64 191.334 189.978 192.239 189.469C194.05 188.46 196.086 188.029 198.066 188.192C199.054 188.275 200.034 188.52 200.925 188.961C201.816 189.397 202.61 190.032 203.188 190.815C203.771 191.596 204.122 192.505 204.268 193.416C204.416 194.329 204.378 195.242 204.248 196.124C204.225 195.23 204.103 194.344 203.82 193.53C203.537 192.716 203.083 191.983 202.49 191.422C201.299 190.292 199.626 189.888 198.047 190.04C196.46 190.182 194.935 190.823 193.771 191.776C192.599 192.73 191.845 194.003 191.623 195.317L188.075 194.282Z" fill="#380175"/>
<path d="M209.15 195.696C209.095 194.579 209.253 193.453 209.61 192.424C209.963 191.392 210.504 190.46 211.152 189.656C212.457 188.052 214.151 186.934 215.959 186.258C217.764 185.597 219.76 185.354 221.614 185.879C222.532 186.143 223.391 186.617 224.048 187.282C224.711 187.941 225.14 188.777 225.384 189.628C224.994 188.83 224.445 188.117 223.747 187.631C223.053 187.143 222.245 186.871 221.429 186.785C219.784 186.615 218.13 187.123 216.734 187.935C215.334 188.754 214.153 189.915 213.434 191.227C212.705 192.54 212.509 193.965 212.82 195.246L209.15 195.693L209.15 195.696Z" fill="#380175"/>
<path d="M228.739 186.41C228.428 184.894 228.271 183.371 228.329 181.819C228.394 180.28 228.674 178.67 229.489 177.238C229.896 176.529 230.449 175.888 231.113 175.42C231.776 174.953 232.521 174.661 233.259 174.505C234.749 174.209 236.195 174.394 237.566 174.697C236.162 174.693 234.741 174.849 233.538 175.386C232.943 175.656 232.419 176.021 232.018 176.468C231.616 176.915 231.342 177.445 231.167 178.008C230.82 179.139 230.865 180.409 231.094 181.651C231.326 182.896 231.741 184.138 232.264 185.293L228.739 186.407L228.739 186.41Z" fill="#380175"/>
<path d="M196.057 164.78C196.881 162.922 198.251 161.311 199.908 160.269C201.565 159.221 203.442 158.703 205.278 158.632C207.114 158.566 208.964 158.936 210.525 159.853C211.303 160.308 211.99 160.927 212.473 161.671C212.962 162.411 213.227 163.267 213.255 164.112C213.074 163.286 212.667 162.535 212.112 161.955C211.556 161.372 210.865 160.949 210.121 160.682C208.635 160.14 207 160.127 205.503 160.462C204.001 160.799 202.618 161.507 201.575 162.482C200.527 163.461 199.857 164.695 199.546 166.006L196.059 164.777L196.057 164.78Z" fill="#380175"/>
<path d="M218.016 160.279C217.346 159.612 216.745 158.84 216.3 157.971C215.853 157.105 215.572 156.142 215.504 155.179C215.43 154.216 215.566 153.262 215.855 152.39C216.148 151.52 216.597 150.731 217.142 150.046C218.235 148.677 219.718 147.714 221.308 147.265C222.899 146.811 224.575 146.91 226.034 147.443C224.494 147.207 222.937 147.454 221.642 148.127C220.343 148.793 219.302 149.852 218.686 151.065C218.062 152.273 217.903 153.631 218.244 154.756C218.574 155.891 219.365 156.781 220.384 157.442L218.016 160.279Z" fill="#380175"/>
<path d="M227.213 144.141C225.408 143.856 223.609 143.003 222.383 141.605C221.15 140.222 220.547 138.383 220.67 136.665C220.784 134.937 221.584 133.375 222.695 132.257C223.249 131.693 223.875 131.222 224.534 130.843C225.2 130.467 225.896 130.176 226.602 129.941C225.959 130.317 225.351 130.738 224.804 131.217C224.26 131.702 223.79 132.247 223.414 132.834C222.656 134.007 222.332 135.377 222.518 136.621C222.699 137.866 223.383 138.941 224.296 139.6C225.217 140.265 226.35 140.52 227.493 140.455L227.213 144.138L227.213 144.141Z" fill="#380175"/>
<g opacity="0.3">
<path d="M199.96 44.1718C194.217 32.6347 184.862 23.6472 173.608 18.1932C196.789 37.7074 199.735 84.123 160.484 93.3306C159.168 93.64 158.646 95.24 159.559 96.2353C180.606 119.2 163.41 145.135 135.865 149.823C135.865 149.823 142.105 151.987 151.008 151.355L151.002 151.356C151.213 151.345 151.417 151.323 151.624 151.306C151.687 151.298 151.75 151.296 151.815 151.291C188.867 148.291 187.081 123.599 185.579 115.839C206.225 101.835 212.9 70.1505 199.963 44.1715L199.96 44.1718Z" fill="#380175"/>
</g>
<g opacity="0.3">
<path d="M211.439 131.255C209.559 156.115 167.089 147 167.089 147C178.509 144.685 182.644 139.085 184.126 135.703C184.139 135.718 184.155 135.734 184.168 135.746C194.011 146.529 209.812 140.413 211.439 131.255Z" fill="#380175"/>
</g>
<g opacity="0.3">
<path d="M222.6 154.437C221.823 155.449 221.013 156.548 220.168 157.741C220.159 157.759 220.143 157.772 220.134 157.791C216.342 163.14 212.603 165.539 209.437 166.469C204.337 167.962 200.72 165.636 200.72 165.636C201.053 165.447 201.377 165.258 201.695 165.068L197.804 165.392C199.53 160.51 204.776 158.799 208.689 159.692C218.879 149.301 213.182 138.008 210.521 133.941C210.962 133.084 211.277 132.186 211.444 131.251C211.444 131.248 211.446 131.24 211.445 131.234C211.604 130.326 211.625 129.389 211.485 128.434C211.292 127.082 210.775 125.691 209.882 124.313C208.213 121.925 207.723 119.362 208.603 117.678C209.315 116.298 210.946 115.506 213.582 115.876C213.774 115.901 213.971 115.935 214.162 115.974C216.05 116.355 217.786 117.301 219.24 118.586C229.718 127.844 230.129 142.805 222.606 154.434L222.6 154.437Z" fill="#380175"/>
</g>
<g opacity="0.3">
<path d="M211.909 195.328C202.092 196.983 192.383 196.182 184.589 193.173L176.238 188.05L173.578 186.42C177.072 180.88 184.978 183.322 185.145 189.803C204.001 191.857 226.095 184.774 215.635 165.68C219.548 164.119 223.383 161.241 227.098 156.194C227.893 155.114 229.062 154.49 230.286 154.341C231.686 154.173 233.157 154.639 234.201 155.767C245.352 167.818 235.237 190.999 211.909 195.328Z" fill="#380175"/>
</g>
<g opacity="0.3">
<path d="M184.589 193.173C182.999 192.561 181.49 191.856 180.074 191.063C180.071 191.061 180.064 191.056 180.062 191.056C177.487 189.283 175.695 188.019 175.39 187.801C175.36 187.785 175.347 187.772 175.347 187.772C175.35 187.775 175.358 187.774 175.365 187.778C175.654 187.872 175.946 187.96 176.241 188.047L184.591 193.17L184.589 193.173Z" fill="#380175"/>
</g>
<g opacity="0.3">
<path d="M176.229 197.089C177.686 219.927 149.95 232.278 137.58 222.161C136.825 221.476 136.207 220.732 135.723 219.968C135.687 219.906 135.672 219.874 135.672 219.874C163.682 231.677 169.453 195.891 149.372 167.363L154.369 168.015C161.787 172.389 169.987 177.997 173.292 185.764L174.504 186.98L174.507 187C174.542 187.194 174.824 188.784 175.238 191.165C175.517 192.822 175.866 194.863 176.231 197.083L176.229 197.089Z" fill="#380175"/>
</g>
<g opacity="0.3">
<path d="M125.614 185.899L125.611 185.9C124.76 184.845 123.583 184.066 122.249 183.784C119.539 183.2 116.557 184.515 114.886 188.577C113.553 191.832 113.729 195.491 115.211 198.638L115.153 198.708C110.99 193.078 110.688 184 114.349 174.138C114.019 174.347 113.693 174.57 113.38 174.8C117.276 171.055 122.946 172.569 125.617 185.899L125.614 185.899Z" fill="#380175"/>
</g>
<g opacity="0.3">
<path d="M88.5427 215.893C79.6018 233.475 57.3604 233.608 47.0606 224.329C47.5447 223.286 47.9573 222.623 47.9573 222.623C65.8939 228.037 82.2835 219.103 78.8859 197.431C81.8154 205.252 88.0888 213.251 88.0888 213.251C88.0888 213.251 88.2639 214.287 88.5427 215.893Z" fill="#380175"/>
</g>
<g opacity="0.3">
<path d="M58.772 171.037L57.8614 186.193C57.8614 186.193 57.8468 186.215 57.823 186.255C57.3141 187 56.7099 187.692 56.0297 188.326C46.1088 197.629 19.6218 195.034 22.1861 171.079L22.1889 171.079C38.1277 197.42 56.5044 181.767 58.7688 171.034L58.772 171.037Z" fill="#380175"/>
</g>
<g opacity="0.3">
<path d="M114.412 42.0961C118.651 45.2603 113.899 52.5725 107.472 61.1693C101.043 69.7665 95.3718 76.3909 91.1332 73.2268C86.8947 70.0626 88.6713 60.5303 95.0976 51.9335C101.527 43.3363 110.174 38.932 114.412 42.0961Z" fill="white"/>
</g>
<g opacity="0.3">
<path d="M122.936 26.9721C126.947 25.9416 130.87 27.7195 131.7 30.9465C132.529 34.1734 129.602 36.2641 125.594 37.2971C121.582 38.3276 118.011 37.9085 117.179 34.6819C116.349 31.455 118.927 28.0022 122.936 26.9721Z" fill="white"/>
</g>
<g opacity="0.3">
<path d="M89.7429 180.859C90.7043 176.858 93.6373 174.133 96.2941 174.769C98.9508 175.406 97.4661 178.479 96.5047 182.48C95.5433 186.481 95.4683 189.893 92.8112 189.254C90.1545 188.617 88.7812 184.857 89.7426 180.856L89.7429 180.859Z" fill="white"/>
</g>
<g opacity="0.3">
<path d="M96.6338 171.294C95.7014 170.281 96 168.493 97.2981 167.303C98.5962 166.113 100.404 165.97 101.333 166.984C102.266 167.997 101.504 169.279 100.206 170.469C98.9075 171.659 97.5634 172.307 96.6338 171.294Z" fill="white"/>
</g>
</g>
<defs>
<filter id="filter0_d_2021_4604" x="-1.93872" y="0.90094" width="253.877" height="260.27" filterUnits="userSpaceOnUse" color-interpolation-filters="sRGB">
<feFlood flood-opacity="0" result="BackgroundImageFix"/>
<feColorMatrix in="SourceAlpha" type="matrix" values="0 0 0 0 0 0 0 0 0 0 0 0 0 0 0 0 0 0 127 0" result="hardAlpha"/>
<feOffset dy="4"/>
<feGaussianBlur stdDeviation="2"/>
<feComposite in2="hardAlpha" operator="out"/>
<feColorMatrix type="matrix" values="0 0 0 0 0 0 0 0 0 0 0 0 0 0 0 0 0 0 0.25 0"/>
<feBlend mode="normal" in2="BackgroundImageFix" result="effect1_dropShadow_2021_4604"/>
<feBlend mode="normal" in="SourceGraphic" in2="effect1_dropShadow_2021_4604" result="shape"/>
</filter>
<linearGradient id="paint0_linear_2021_4604" x1="197.175" y1="35.5535" x2="99.7607" y2="228.871" gradientUnits="userSpaceOnUse">
<stop stop-color="#8303A2"/>
<stop offset="0.04" stop-color="#9C1AB8"/>
<stop offset="0.09" stop-color="#B835D1"/>
<stop offset="0.15" stop-color="#CE49E5"/>
<stop offset="0.21" stop-color="#DE58F4"/>
<stop offset="0.28" stop-color="#E861FC"/>
<stop offset="0.38" stop-color="#EB64FF"/>
<stop offset="0.56" stop-color="#E861FC"/>
<stop offset="0.69" stop-color="#DF59F4"/>
<stop offset="0.79" stop-color="#D04BE7"/>
<stop offset="0.89" stop-color="#BB37D4"/>
<stop offset="0.97" stop-color="#9F1EBB"/>
<stop offset="1" stop-color="#9615B3"/>
</linearGradient>
</defs>
</svg>
