<svg width="251" height="251" viewBox="0 0 251 251" fill="none" xmlns="http://www.w3.org/2000/svg">
<g filter="url(#filter0_d_425_41700)">
<path d="M184.505 209.545C184.443 209.477 184.409 209.443 184.409 209.443C183.543 218.977 178.511 225.934 171.994 229.299C168.115 231.302 163.707 232.029 159.34 231.26C159.108 231.221 158.877 231.18 158.648 231.13C156.47 230.672 155.685 227.978 157.195 226.338C158.37 225.059 159.446 223.574 160.211 221.98C162.059 218.148 162.126 213.684 157.541 209.928C156.509 209.081 155.383 208.36 154.211 207.724C143.065 201.674 132.984 196.131 129.62 186.48H120.384C117.021 196.131 106.94 201.676 95.7935 207.724C94.6212 208.36 93.4982 209.084 92.4636 209.928C85.978 215.247 88.7984 221.972 92.8068 226.34C94.317 227.981 93.532 230.674 91.3537 231.133C79.4508 233.657 67.002 224.965 65.5931 209.446C49.9704 225.449 31.2361 219.847 22.2394 208.079C15.9878 199.913 14.4307 188.772 21.8573 179.828C23.1623 178.255 25.6811 179 25.9983 181.023C27.6151 191.427 38.3197 193.872 45.5929 189.075C45.8607 188.897 46.1258 188.713 46.3857 188.515C39.7987 185.415 37.662 179.151 37.8491 171.24C37.8543 170.904 37.8647 170.558 37.8829 170.214C38.8109 159.066 34.956 152.598 27.025 150.121C25.1274 149.527 24.8285 146.946 26.5077 145.881C31.4285 142.755 36.9991 142.005 41.7223 143.339C47.4073 144.946 51.8654 149.582 52.4711 156.75C53.5238 163.645 58.1301 166.242 63.0248 164.541C64.5611 164.012 65.879 163.004 66.9344 161.764C69.3103 158.967 72.1021 156.982 75.3904 155.979C77.4258 155.351 79.6561 155.104 82.0944 155.273C82.1204 155.273 82.149 155.279 82.175 155.279C82.032 155.219 81.8891 155.161 81.7461 155.101C79.4534 154.159 77.3556 153.124 75.4398 152.017C53.7084 139.429 55.7334 117.172 67.3399 107.948C62.6011 102.848 60.3292 95.946 60.2018 87.4729C60.2018 64.4134 76.8487 35.8581 105.092 23.1575C106.394 22.5715 107.712 22.0479 109.046 21.5895L109.051 21.5843C120.717 17.5157 133.527 18.0419 144.902 23.1575C173.145 35.8581 189.792 64.416 189.792 87.4729C189.667 95.946 187.396 102.848 182.654 107.948C195.35 118.031 196.579 143.708 167.822 155.276C174.242 154.81 179.194 157.216 183.062 161.764C184.115 163.004 185.436 164.01 186.972 164.541C191.867 166.242 196.473 163.645 197.526 156.75C198.638 143.633 212.644 138.991 223.489 145.878C224.534 146.542 224.815 147.798 224.412 148.79C224.178 149.392 223.687 149.897 222.972 150.119C215.041 152.596 211.186 159.063 212.114 170.211C212.504 178.416 210.572 184.975 204.074 188.285C203.923 188.366 203.767 188.436 203.611 188.512C204.614 189.273 205.698 189.892 206.826 190.351C213.85 193.258 222.553 190.317 223.998 181.021C224.313 178.997 226.832 178.252 228.139 179.825C228.189 179.888 228.243 179.95 228.295 180.015C246.039 201.827 210.879 236.392 184.5 209.545H184.505Z" fill="url(#paint0_linear_425_41700)"/>
<g opacity="0.6">
<path d="M74.504 156.276C75.2397 156.61 75.9909 156.933 76.7682 157.243C75.0759 157.12 73.4799 157.196 71.9852 157.461C72.7858 156.995 73.628 156.599 74.504 156.276Z" fill="white"/>
</g>
<g opacity="0.6">
<path d="M167.824 155.279C174.245 154.812 179.197 157.219 183.065 161.767C184.118 163.007 185.438 164.012 186.975 164.544C187.752 164.812 188.519 164.973 189.262 165.023C187.247 167.018 184.456 167.513 181.565 166.507C180.029 165.976 178.711 164.971 177.655 163.731C173.787 159.183 168.836 156.776 162.415 157.243C191.175 145.672 189.943 119.998 177.247 109.915C181.986 104.815 184.258 97.9126 184.385 89.4395C184.385 66.38 167.739 37.8246 139.496 25.1241C128.82 20.321 116.87 19.5656 105.794 22.8528C118.297 17.4584 132.459 17.5652 144.902 23.1601C173.145 35.8607 189.792 64.4187 189.792 87.4755C189.668 95.9486 187.396 102.851 182.654 107.951C195.35 118.034 196.579 143.711 167.822 155.279H167.824Z" fill="white"/>
</g>
<g opacity="0.6">
<path d="M225.132 179.825C230.092 193.927 206.868 201.679 198.461 188.957C191.835 180.378 183.764 173.558 173.702 169.162C173.702 169.162 184.287 172.451 195.841 183.019C207.396 193.586 213.744 192.706 219.733 188.866C225.722 185.03 225.132 179.823 225.132 179.823V179.825Z" fill="white"/>
</g>
<path d="M171.994 229.302C167.908 231.409 163.236 232.104 158.646 231.133C156.467 230.674 155.682 227.981 157.193 226.34C158.368 225.061 159.444 223.577 160.208 221.982C173.434 218.76 182.654 198.772 169.444 185.462C185.618 194.927 190.679 215.856 171.991 229.302H171.994Z" fill="#C9F0F3"/>
<path d="M224.414 148.793C224.18 149.395 223.689 149.9 222.974 150.121C215.043 152.598 211.188 159.066 212.116 170.214C212.506 178.419 210.575 184.977 204.076 188.288L187.702 176.007C199.831 180.516 203.481 171.055 205.795 159.592C207.806 150.134 214.604 146.845 223.07 145.701L224.414 148.793Z" fill="#C9F0F3"/>
<path d="M184.505 209.545C184.443 209.477 184.409 209.443 184.409 209.443C182.867 195.151 176.777 189.59 161.237 180.747C171.495 180.146 181.973 185.574 191.022 197.959C193.704 201.632 197.416 204.471 201.765 205.776C217.762 210.576 231.462 193.589 228.015 179.828C228.015 179.828 228.116 179.89 228.301 180.018C246.044 201.83 210.884 236.394 184.505 209.548V209.545Z" fill="#C9F0F3"/>
<path d="M78.0055 229.302C82.0918 231.409 86.7631 232.104 91.3537 231.133C93.532 230.674 94.3171 227.981 92.8068 226.34C91.6318 225.061 90.5557 223.577 89.7914 221.982C76.5654 218.76 67.3451 198.772 80.5556 185.462C64.3818 194.927 59.3206 215.856 78.0081 229.302H78.0055Z" fill="#C9F0F3"/>
<path d="M25.5824 148.793C25.8163 149.395 26.3076 149.9 27.0225 150.121C34.9534 152.598 38.8084 159.066 37.8804 170.214C37.4905 178.419 39.4219 184.977 45.9205 188.288L62.2945 176.007C50.1654 180.516 46.5158 171.055 44.2023 159.592C42.1903 150.134 35.3927 146.845 26.9263 145.701L25.5824 148.793Z" fill="#C9F0F3"/>
<path d="M65.4943 209.545C65.5567 209.477 65.5905 209.443 65.5905 209.443C67.132 195.151 73.2225 189.59 88.762 180.747C78.5046 180.146 68.0262 185.574 58.9775 197.959C56.2949 201.632 52.5829 204.471 48.234 205.776C32.237 210.576 18.5378 193.589 21.9847 179.828C21.9847 179.828 21.8833 179.89 21.6988 180.018C3.95492 201.83 39.1151 236.394 65.4943 209.548V209.545Z" fill="#C9F0F3"/>
<path d="M162.714 233.451C161.222 233.451 159.73 233.297 158.253 232.985C156.582 232.631 155.272 231.443 154.749 229.804C154.224 228.153 154.624 226.335 155.799 225.056C158.316 222.316 159.657 219.297 159.48 216.773C159.34 214.796 158.284 212.986 156.34 211.392C155.474 210.683 154.481 210.027 153.306 209.389C142.542 203.544 132.347 198.009 128.321 188.371H121.679C117.652 198.009 107.457 203.544 96.693 209.389C95.5154 210.03 94.5224 210.683 93.6594 211.392C91.715 212.986 90.6571 214.796 90.5167 216.773C90.3399 219.297 91.6812 222.316 94.1975 225.056C95.3725 226.335 95.7728 228.153 95.2477 229.804C94.7252 231.44 93.4151 232.631 91.7436 232.985C85.6245 234.285 79.1623 232.842 74.0154 229.036C69.0192 225.343 65.6321 219.836 64.257 213.288C58.2003 218.495 51.3586 221.227 44.288 221.227H44.2387C37.1292 221.214 30.1496 218.438 24.5868 213.408C15.2002 204.919 10.7473 190.242 20.4017 178.614C21.4779 177.317 23.1519 176.791 24.7714 177.242C26.4142 177.697 27.5996 179.034 27.8621 180.729C28.4652 184.613 30.5785 187.47 33.8175 188.78C36.5599 189.89 39.8118 189.749 42.679 188.504C37.7712 184.873 35.5799 178.823 35.9932 170.12C35.9932 170.097 35.9958 170.076 35.9984 170.053C36.825 160.118 33.7057 154.19 26.4636 151.926C24.8857 151.434 23.7732 150.103 23.5548 148.452C23.3339 146.777 24.0773 145.178 25.4966 144.279C31.7197 140.328 39.2893 139.716 45.2524 142.68C50.4877 145.282 53.802 150.327 54.3479 156.524C54.7976 159.389 55.9232 161.441 57.6076 162.46C58.9568 163.275 60.6152 163.379 62.4088 162.757C63.524 162.371 64.5898 161.605 65.4944 160.54C68.2706 157.276 71.5147 155.112 75.1929 154.065C61.5666 146.506 58.0287 136.217 57.1709 130.318C55.931 121.769 58.7878 113.306 64.6755 107.756C60.5762 102.601 58.4369 95.8002 58.3095 87.5068C58.3095 64.9396 74.1115 35.0194 104.315 21.4359C117.457 15.5258 132.532 15.5258 145.674 21.4359C175.877 35.0194 191.68 64.9422 191.68 87.4781C191.552 95.7976 189.413 102.601 185.313 107.756C191.201 113.306 194.058 121.769 192.818 130.318C191.963 136.22 188.425 146.506 174.799 154.065C178.477 155.112 181.721 157.276 184.497 160.54C185.402 161.605 186.47 162.371 187.583 162.757C189.376 163.377 191.035 163.275 192.384 162.46C194.068 161.441 195.197 159.389 195.644 156.524C196.19 150.327 199.504 145.284 204.739 142.682C210.702 139.718 218.272 140.33 224.495 144.282C225.914 145.183 226.658 146.782 226.437 148.454C226.218 150.106 225.106 151.437 223.528 151.929C216.286 154.192 213.167 160.123 213.993 170.055C213.993 170.079 213.996 170.099 213.998 170.123C214.412 178.823 212.22 184.876 207.313 188.507C210.18 189.755 213.429 189.893 216.174 188.783C219.41 187.475 221.526 184.615 222.13 180.732C222.392 179.036 223.577 177.7 225.22 177.244C226.837 176.796 228.511 177.322 229.587 178.617C239.242 190.244 234.789 204.922 225.402 213.41C219.839 218.44 212.862 221.217 205.753 221.23H205.704C198.63 221.23 191.789 218.497 185.735 213.291C184.359 219.839 180.972 225.345 175.976 229.039C172.069 231.927 167.406 233.454 162.709 233.454L162.714 233.451ZM120.382 184.584H129.618C130.421 184.584 131.136 185.092 131.401 185.853C134.554 194.899 144.536 200.319 155.105 206.057C156.493 206.813 157.681 207.597 158.731 208.459C161.513 210.741 163.034 213.447 163.249 216.505C163.592 221.378 160.471 225.559 158.581 227.619C158.196 228.038 158.305 228.515 158.349 228.651C158.412 228.843 158.581 229.182 159.036 229.278C164.099 230.351 169.459 229.153 173.738 225.989C178.763 222.274 181.882 216.336 182.524 209.269C182.592 208.534 183.078 207.904 183.772 207.657C184.466 207.409 185.241 207.589 185.755 208.118C198.664 221.344 213.702 218.893 222.876 210.597C230.923 203.32 234.817 190.83 226.686 181.037C226.642 180.982 226.502 180.815 226.231 180.891C226.114 180.922 225.912 181.021 225.865 181.31C225.049 186.564 222.111 190.463 217.591 192.289C212.701 194.266 206.907 193.393 202.47 190.018C201.945 189.616 201.664 188.97 201.734 188.311C201.804 187.652 202.21 187.079 202.81 186.796C208.277 184.222 210.635 178.989 210.229 170.331C209.26 158.548 213.356 151.14 222.408 148.311C222.574 148.259 222.67 148.139 222.696 147.954C222.712 147.837 222.704 147.618 222.478 147.475C217.362 144.227 211.212 143.69 206.424 146.068C202.319 148.108 199.829 151.958 199.408 156.907C199.405 156.948 199.4 156.99 199.392 157.032C198.612 162.139 196.213 164.562 194.339 165.695C192.033 167.088 189.197 167.315 186.351 166.328C184.601 165.721 182.966 164.567 181.622 162.989C177.944 158.665 173.478 156.761 167.957 157.159C167.029 157.224 166.189 156.607 165.979 155.698C165.768 154.789 166.252 153.862 167.115 153.515C184.23 146.631 188.222 135.681 189.08 129.766C190.211 121.975 187.227 113.991 181.479 109.425C181.066 109.097 180.809 108.61 180.77 108.084C180.731 107.558 180.913 107.037 181.271 106.651C185.547 102.051 187.778 95.5892 187.903 87.4391C187.903 66.1482 172.867 37.8038 144.128 24.8793C131.97 19.4094 118.021 19.4094 105.864 24.8793C77.1243 37.8038 62.0891 66.1482 62.0891 87.4677C62.2139 95.5866 64.4442 102.051 68.7203 106.651C69.079 107.037 69.261 107.558 69.222 108.084C69.183 108.61 68.9256 109.097 68.5123 109.425C62.7649 113.989 59.7834 121.972 60.9115 129.766C61.7694 135.681 65.7621 146.631 82.8769 153.515C83.7399 153.862 84.2234 154.789 84.0129 155.698C83.8023 156.607 82.9731 157.23 82.0347 157.159C76.516 156.761 72.0476 158.665 68.3694 162.989C67.0254 164.567 65.393 165.721 63.641 166.328C60.7972 167.312 57.9586 167.088 55.6529 165.695C53.7786 164.562 51.382 162.139 50.5995 157.032C50.5917 156.99 50.5891 156.948 50.5839 156.907C50.1628 151.958 47.6725 148.108 43.568 146.068C38.7798 143.688 32.6295 144.227 27.5138 147.475C27.2876 147.618 27.2798 147.837 27.2954 147.954C27.3318 148.23 27.5216 148.29 27.584 148.311C36.6353 151.14 40.732 158.55 39.7624 170.334C39.3569 178.992 41.7146 184.222 47.1812 186.798C47.7791 187.079 48.1872 187.655 48.2574 188.314C48.3276 188.973 48.0469 189.619 47.5218 190.02C43.0819 193.398 37.2877 194.268 32.4008 192.291C27.8803 190.463 24.9403 186.564 24.1267 181.31C24.0825 181.021 23.8798 180.922 23.7628 180.891C23.4924 180.815 23.3521 180.982 23.3053 181.037C15.1742 190.828 19.0682 203.32 27.1161 210.597C36.2895 218.893 51.3274 221.342 64.2362 208.118C64.7509 207.592 65.5256 207.409 66.2196 207.657C66.9137 207.904 67.4024 208.534 67.4674 209.269C68.1094 216.336 71.2314 222.274 76.2535 225.989C80.5348 229.153 85.8949 230.351 90.956 229.278C91.4109 229.182 91.5799 228.843 91.6423 228.651C91.6864 228.515 91.7982 228.038 91.4109 227.619C89.5185 225.561 86.3992 221.381 86.7423 216.505C86.958 213.447 88.4787 210.741 91.2601 208.459C92.3129 207.597 93.4983 206.81 94.8864 206.057C105.456 200.319 115.438 194.899 118.591 185.853C118.856 185.092 119.571 184.584 120.374 184.584H120.382Z" fill="#380175"/>
<path d="M182.527 209.608C182.337 206.237 181.586 202.911 180.232 199.814C178.885 196.712 176.951 193.849 174.606 191.322C172.262 188.791 169.527 186.59 166.595 184.667C163.66 182.745 160.525 181.094 157.299 179.633H157.294C156.977 179.487 156.836 179.112 156.979 178.794C157.117 178.489 157.471 178.346 157.78 178.463C161.139 179.75 164.435 181.245 167.583 183.053C170.728 184.86 173.733 186.991 176.4 189.549C179.067 192.101 181.38 195.102 183.08 198.467C184.791 201.825 185.859 205.526 186.291 209.277V209.285C186.41 210.324 185.667 211.264 184.63 211.381C183.593 211.501 182.657 210.756 182.537 209.717C182.532 209.683 182.529 209.641 182.527 209.608Z" fill="#380175"/>
<path d="M202.53 190.062C199.522 187.817 196.754 185.373 194.014 182.967C191.274 180.56 188.56 178.169 185.698 176.012C182.841 173.861 179.821 171.936 176.546 170.602C173.281 169.258 169.745 168.583 166.189 168.737C165.841 168.753 165.547 168.482 165.532 168.133C165.516 167.797 165.766 167.513 166.096 167.476H166.101C169.821 167.094 173.65 167.594 177.203 168.823C180.77 170.039 184.066 171.889 187.151 173.946C193.328 178.075 198.776 183.042 204.7 186.96C205.571 187.535 205.813 188.71 205.238 189.583C204.664 190.455 203.491 190.697 202.621 190.122C202.592 190.103 202.558 190.08 202.532 190.059L202.53 190.062Z" fill="#380175"/>
<path d="M168.417 157.073C164.531 157.915 160.743 159.423 157.434 161.845C157.151 162.053 156.756 161.991 156.551 161.71C156.369 161.462 156.395 161.126 156.595 160.907C158.04 159.321 159.693 157.896 161.492 156.659C163.288 155.419 165.227 154.367 167.234 153.479L167.252 153.471C168.212 153.046 169.335 153.484 169.758 154.445C170.182 155.406 169.745 156.531 168.786 156.956C168.669 157.008 168.542 157.047 168.42 157.076L168.417 157.073Z" fill="#380175"/>
<path d="M133.288 174.77C132.012 176.317 131.016 178.075 130.512 180.047C129.992 182.016 129.976 184.173 130.234 186.345C130.275 186.691 130.028 187.009 129.683 187.051C129.376 187.087 129.093 186.897 129.002 186.611C128.661 185.524 128.375 184.404 128.193 183.243C128.011 182.084 127.941 180.88 128.019 179.666C128.094 178.453 128.326 177.234 128.692 176.056C129.059 174.876 129.558 173.743 130.145 172.662L130.153 172.647C130.655 171.725 131.809 171.383 132.729 171.886C133.649 172.389 133.99 173.545 133.488 174.467C133.431 174.574 133.358 174.678 133.285 174.77H133.288Z" fill="#380175"/>
<path d="M63.7085 209.277C64.1374 205.526 65.211 201.825 66.9188 198.467C68.6189 195.102 70.9324 192.101 73.5994 189.549C76.2665 186.988 79.2714 184.86 82.4168 183.053C85.5673 181.245 88.8634 179.752 92.2219 178.463C92.5468 178.338 92.9108 178.502 93.0355 178.828C93.1551 179.14 93.0095 179.492 92.708 179.627H92.7002C89.4743 181.091 86.3393 182.743 83.4046 184.665C80.4724 186.587 77.7352 188.788 75.3931 191.32C73.0484 193.846 71.1118 196.709 69.7678 199.811C68.4161 202.911 67.6623 206.237 67.4725 209.605C67.4153 210.649 66.5211 211.449 65.4788 211.389C64.4364 211.332 63.6383 210.436 63.6981 209.391C63.6981 209.357 63.7033 209.321 63.7059 209.287V209.274L63.7085 209.277Z" fill="#380175"/>
<path d="M45.2992 186.962C51.2233 183.045 56.6718 178.078 62.8481 173.949C65.9336 171.891 69.2324 170.042 72.7988 168.826C76.3522 167.596 80.1812 167.096 83.9011 167.476C84.2468 167.513 84.4989 167.823 84.4625 168.169C84.4287 168.503 84.1376 168.75 83.8075 168.735C80.2514 168.578 76.7162 169.255 73.4513 170.599C70.1759 171.933 67.1554 173.858 64.2986 176.009C61.4366 178.166 58.7254 180.557 55.9829 182.964C53.2405 185.371 50.4721 187.811 47.4671 190.059C46.6301 190.684 45.4474 190.512 44.8209 189.674C44.197 188.835 44.3686 187.65 45.2056 187.022C45.2342 187.001 45.268 186.978 45.294 186.96L45.2992 186.962Z" fill="#380175"/>
<path d="M82.7677 153.479C84.7771 154.367 86.7137 155.419 88.5099 156.659C90.3061 157.896 91.9619 159.321 93.4072 160.907C93.6438 161.165 93.6256 161.566 93.3657 161.803C93.1395 162.009 92.8042 162.022 92.565 161.848C89.2559 159.425 85.4685 157.915 81.5823 157.073C80.5582 156.852 79.9057 155.839 80.1266 154.81C80.3476 153.781 81.3588 153.13 82.3856 153.351C82.5103 153.377 82.6299 153.416 82.7417 153.466L82.7677 153.479Z" fill="#380175"/>
<path d="M118.534 186.079C119.178 184.087 119.586 182.084 119.488 180.047C119.402 178.015 118.773 175.976 117.759 174.069V174.061C117.59 173.751 117.707 173.368 118.016 173.204C118.289 173.058 118.619 173.134 118.806 173.368C119.527 174.267 120.179 175.241 120.722 176.299C121.266 177.353 121.694 178.489 121.978 179.672C122.264 180.854 122.407 182.076 122.433 183.29C122.459 184.503 122.373 185.709 122.227 186.881V186.902C122.095 187.944 121.149 188.687 120.106 188.556C119.066 188.429 118.326 187.478 118.456 186.433C118.471 186.314 118.5 186.191 118.534 186.079Z" fill="#380175"/>
<path d="M36.1622 156.886C37.5919 156.703 39.1281 157.063 40.2563 157.915C41.3897 158.751 42.1305 159.996 42.3255 161.311C42.4216 161.967 42.3801 162.645 42.1773 163.265C41.9719 163.885 41.6132 164.437 41.1661 164.859C40.719 165.286 40.1965 165.588 39.661 165.804C39.1177 166.013 38.5615 166.13 38.0078 166.208C38.5329 166.01 39.0398 165.778 39.4921 165.479C39.9392 165.171 40.3291 164.804 40.6098 164.382C40.8906 163.963 41.0595 163.494 41.1037 163.025C41.1453 162.556 41.0647 162.087 40.8984 161.66C40.5682 160.803 39.8794 160.121 39.1073 159.8C38.3327 159.47 37.5113 159.496 36.7626 159.772L36.1674 156.888L36.1622 156.886Z" fill="#380175"/>
<path d="M37.7062 167.565C38.5381 167.515 39.3959 167.588 40.2173 167.831C41.0387 168.068 41.8212 168.482 42.4658 169.047C43.1105 169.61 43.6226 170.316 43.9267 171.089C44.2335 171.865 44.3426 172.696 44.2647 173.485C44.1893 174.277 43.9137 175.02 43.5342 175.66C43.1495 176.301 42.653 176.84 42.1097 177.288C41.0101 178.177 39.7364 178.697 38.4601 179.044C39.6376 178.44 40.732 177.669 41.5196 176.692C42.3021 175.723 42.7258 174.535 42.588 173.465C42.5204 172.933 42.3307 172.441 42.0525 172.029C41.7718 171.618 41.3897 171.3 40.9763 171.076C40.1393 170.623 39.1463 170.612 38.2001 170.891L37.7088 167.562L37.7062 167.565Z" fill="#380175"/>
<path d="M39.1151 182.305C40.1081 181.237 41.3402 180.492 42.627 180.075C43.9163 179.661 45.281 179.554 46.5807 179.831C47.228 179.971 47.8571 180.208 48.416 180.565C48.9722 180.919 49.4531 181.388 49.8015 181.925C50.5085 183.008 50.6333 184.272 50.5059 185.41C50.3603 184.266 49.9262 183.162 49.1542 182.459C48.3926 181.748 47.384 181.461 46.4014 181.503C45.4162 181.539 44.4544 181.873 43.646 182.383C42.8375 182.894 42.1877 183.587 41.7873 184.344L39.1177 182.305H39.1151Z" fill="#380175"/>
<g opacity="0.3">
<path d="M36.4585 158.326C41.5378 157.271 44.4778 164.689 38.0026 166.205L36.4585 158.326Z" fill="#380175"/>
</g>
<g opacity="0.3">
<path d="M37.9506 169.229C43.7837 168.365 46.3832 176.049 38.4575 179.047L37.9506 169.229Z" fill="#380175"/>
</g>
<g opacity="0.3">
<path d="M50.5059 185.41C50.4851 179.476 43.4276 179.414 40.4512 183.326L45.2524 187.926" fill="#380175"/>
</g>
<path d="M50.35 218.888C50.0094 217.976 49.8665 216.987 49.9367 216.046C50.0042 215.101 50.2694 214.21 50.6593 213.421C51.4469 211.84 52.6869 210.613 54.1452 209.826C54.8756 209.436 55.6762 209.165 56.5029 209.071C57.3269 208.977 58.1847 209.079 58.936 209.404C59.6898 209.725 60.3163 210.259 60.7712 210.876C61.2313 211.493 61.5432 212.184 61.7824 212.882C61.4158 212.238 60.9843 211.637 60.4592 211.16C59.9367 210.681 59.3155 210.342 58.6708 210.204C57.3685 209.923 56.0532 210.425 55.055 211.241C54.049 212.061 53.3081 213.199 52.9988 214.356C52.6817 215.52 52.8506 216.64 53.3991 217.487L50.3474 218.893L50.35 218.888Z" fill="#380175"/>
<path d="M45.2368 219.198C45.3642 217.911 45.2524 216.617 44.7066 215.557C44.4362 215.028 44.0619 214.562 43.5888 214.197C43.1105 213.84 42.5334 213.593 41.9018 213.481C40.6332 213.249 39.2009 213.629 37.974 214.39C36.7314 215.145 35.6943 216.286 34.8572 217.56C35.4473 216.156 36.2713 214.796 37.4671 213.718C38.6446 212.65 40.2173 211.829 42.0057 211.801C42.8895 211.788 43.8071 211.975 44.6468 212.379C45.4812 212.79 46.222 213.41 46.7965 214.145C47.9611 215.63 48.4472 217.458 48.5979 219.195H45.2394L45.2368 219.198Z" fill="#380175"/>
<g opacity="0.3">
<path d="M51.8758 218.185C49.2166 212.387 58.5304 205.318 61.7849 212.879L51.8758 218.185Z" fill="#380175"/>
</g>
<g opacity="0.3">
<path d="M46.9161 219.198C46.9161 211.334 38.6914 210.214 34.8572 217.56L46.9161 219.198Z" fill="#380175"/>
</g>
<path d="M22.2161 208.198C22.9154 207.67 23.6588 207.193 24.4646 206.81C25.2653 206.427 26.1361 206.154 27.0277 206.018C27.9219 205.883 28.8473 205.898 29.7389 206.102C30.6279 206.302 31.4779 206.714 32.1746 207.297C32.879 207.875 33.4041 208.646 33.6901 209.477C33.9812 210.308 34.041 211.183 33.911 211.999C33.6563 213.645 32.7647 215.007 31.7561 216.145C32.5463 214.843 33.1234 213.376 33.0714 211.944C33.0402 210.519 32.302 209.253 31.1946 208.667C30.1002 208.05 28.7641 208.058 27.5892 208.48C26.3986 208.889 25.3536 209.714 24.4776 210.686L22.2135 208.198H22.2161Z" fill="#380175"/>
<path d="M17.1991 195.068C18.6444 195.222 20.0637 195.625 21.3348 196.352C21.9691 196.717 22.567 197.16 23.0791 197.707C23.5912 198.251 24.0149 198.897 24.2774 199.605C24.5426 200.314 24.6153 201.082 24.527 201.793C24.4386 202.51 24.1968 203.169 23.8745 203.752C23.222 204.924 22.2966 205.825 21.3192 206.602C22.1017 205.628 22.7749 204.557 23.0999 203.427C23.4352 202.299 23.3208 201.15 22.7619 200.327C22.2056 199.496 21.2984 198.944 20.3002 198.65C19.3021 198.353 18.2207 198.3 17.1809 198.431L17.2017 195.065L17.1991 195.068Z" fill="#380175"/>
<path d="M67.0696 202.122C68.6423 202.708 70.0018 203.755 70.9272 205.073C71.8552 206.385 72.3647 207.982 72.2789 209.548C72.1983 211.118 71.4679 212.574 70.4229 213.567C69.9056 214.069 69.3207 214.473 68.7099 214.804C68.0938 215.124 67.4517 215.367 66.8071 215.564C67.3997 215.236 67.9664 214.872 68.4785 214.455C68.9828 214.028 69.4299 213.548 69.7834 213.025C70.5009 211.978 70.7816 210.741 70.5997 209.605C70.4177 208.469 69.8146 207.446 69.0062 206.706C68.1952 205.958 67.1814 205.5 66.1598 205.362L67.0696 202.122Z" fill="#380175"/>
<path d="M67.7949 218.596C69.3051 217.82 70.909 217.372 72.5856 217.302C73.4227 217.276 74.2831 217.344 75.1331 217.627C75.5568 217.755 75.9727 217.969 76.3601 218.216C76.737 218.49 77.0983 218.802 77.3634 219.193C77.9223 219.959 78.0939 220.873 78.0913 221.678C78.0835 222.496 77.9093 223.256 77.6806 223.975C77.1945 225.405 76.49 226.697 75.7076 227.919C76.2431 226.572 76.6772 225.176 76.8617 223.79C76.9423 223.1 76.9553 222.407 76.8358 221.782C76.7136 221.159 76.464 220.61 76.0741 220.269C75.8921 220.086 75.6556 219.969 75.4268 219.86C75.1747 219.774 74.9252 219.693 74.6392 219.672C74.0855 219.602 73.4773 219.672 72.882 219.81C71.6888 220.097 70.5243 220.691 69.5885 221.443L67.7975 218.596H67.7949Z" fill="#380175"/>
<path d="M78.5176 229.877C78.7645 229.169 79.0505 228.466 79.4378 227.786C79.8329 227.109 80.3242 226.455 80.9533 225.908C81.5797 225.363 82.3518 224.931 83.1732 224.757C83.992 224.574 84.8213 224.621 85.5621 224.822C87.0516 225.236 88.2057 226.168 89.0714 227.228C89.937 228.302 90.5193 229.552 90.7922 230.833C90.2541 229.638 89.4457 228.601 88.4761 227.822C87.5143 227.049 86.3601 226.525 85.271 226.478C84.7303 226.457 84.226 226.556 83.7997 226.762C83.3734 226.963 83.0302 227.286 82.7495 227.671C82.4714 228.059 82.2582 228.523 82.0996 229.023C81.9437 229.531 81.8527 230.081 81.7851 230.635L78.5124 229.877H78.5176Z" fill="#380175"/>
<path d="M213.109 159.769C212.358 159.493 211.539 159.467 210.765 159.798C209.993 160.118 209.304 160.803 208.974 161.657C208.807 162.085 208.727 162.551 208.768 163.022C208.812 163.491 208.981 163.96 209.262 164.379C209.543 164.801 209.933 165.171 210.38 165.476C210.832 165.776 211.339 166.007 211.864 166.205C211.311 166.127 210.752 166.013 210.211 165.802C209.675 165.585 209.153 165.283 208.706 164.856C208.259 164.434 207.9 163.882 207.695 163.262C207.492 162.642 207.45 161.965 207.547 161.308C207.739 159.993 208.48 158.748 209.616 157.912C210.741 157.06 212.28 156.701 213.707 156.883L213.112 159.766L213.109 159.769Z" fill="#380175"/>
<path d="M211.669 170.894C210.726 170.618 209.73 170.628 208.893 171.079C208.477 171.3 208.098 171.62 207.817 172.032C207.539 172.444 207.346 172.933 207.281 173.467C207.144 174.538 207.567 175.723 208.35 176.694C209.135 177.671 210.229 178.442 211.409 179.047C210.133 178.7 208.859 178.179 207.76 177.291C207.216 176.843 206.72 176.306 206.335 175.663C205.953 175.025 205.678 174.282 205.605 173.488C205.527 172.696 205.639 171.865 205.943 171.092C206.249 170.316 206.762 169.612 207.404 169.05C208.048 168.484 208.828 168.068 209.652 167.833C210.476 167.594 211.334 167.518 212.163 167.568L211.672 170.896L211.669 170.894Z" fill="#380175"/>
<g opacity="0.3">
<path d="M213.408 158.326C208.329 157.271 205.389 164.689 211.864 166.205L213.408 158.326Z" fill="#380175"/>
</g>
<g opacity="0.3">
<path d="M211.48 177.676L211.409 179.049C211.308 179.01 211.212 178.974 211.121 178.935C211.256 178.526 211.373 178.106 211.482 177.676H211.48Z" fill="#380175"/>
</g>
<path d="M208.079 184.347C207.677 183.589 207.029 182.896 206.221 182.386C205.415 181.875 204.451 181.542 203.465 181.505C202.483 181.464 201.474 181.75 200.715 182.461C199.943 183.165 199.509 184.266 199.361 185.412C199.234 184.274 199.358 183.011 200.065 181.927C200.414 181.391 200.892 180.922 201.451 180.568C202.007 180.211 202.639 179.974 203.286 179.833C204.586 179.557 205.951 179.661 207.24 180.078C208.527 180.495 209.759 181.24 210.752 182.308L208.079 184.347Z" fill="#380175"/>
<path d="M197.991 218.185C198.49 216.776 198.293 215.26 197.645 214.041C197.006 212.814 195.969 211.824 194.809 211.238C193.652 210.642 192.348 210.537 191.456 210.998C190.551 211.433 189.979 212.402 189.623 213.546L186.54 212.212C186.964 211.439 187.476 210.681 188.162 210.024C188.841 209.37 189.717 208.839 190.666 208.605C191.615 208.362 192.589 208.415 193.445 208.659C194.305 208.902 195.067 209.318 195.722 209.826C197.027 210.847 197.97 212.22 198.428 213.733C198.651 214.489 198.745 215.278 198.672 216.046C198.602 216.812 198.363 217.549 197.994 218.19L197.991 218.185Z" fill="#380175"/>
<g opacity="0.3">
<path d="M188.396 213.046L188.082 212.876C188.082 212.876 188.09 212.856 188.095 212.848L188.396 213.046Z" fill="#380175"/>
</g>
<path d="M201.271 219.198C201.422 217.461 201.908 215.632 203.073 214.148C203.65 213.413 204.388 212.793 205.223 212.382C206.062 211.978 206.98 211.79 207.864 211.803C209.65 211.832 211.222 212.652 212.402 213.72C213.598 214.796 214.422 216.158 215.012 217.562C214.175 216.289 213.138 215.15 211.895 214.392C210.668 213.632 209.239 213.252 207.968 213.483C207.336 213.595 206.759 213.843 206.281 214.2C205.808 214.564 205.433 215.031 205.163 215.559C204.617 216.619 204.503 217.914 204.633 219.201H201.274L201.271 219.198Z" fill="#380175"/>
<path d="M226.517 209.441C225.293 208.527 223.9 207.834 222.462 207.659C221.75 207.565 221.035 207.599 220.38 207.766C219.722 207.933 219.132 208.253 218.67 208.667C218.199 209.079 217.879 209.605 217.71 210.162C217.541 210.72 217.515 211.306 217.63 211.889C217.843 213.061 218.566 214.168 219.449 215.132L216.769 217.161C216.309 216.416 215.899 215.627 215.597 214.773C215.293 213.924 215.114 212.999 215.119 212.056C215.119 211.116 215.345 210.149 215.795 209.308C216.239 208.464 216.91 207.761 217.695 207.297C218.475 206.828 219.343 206.57 220.193 206.516C221.046 206.461 221.88 206.586 222.652 206.836C224.206 207.334 225.48 208.321 226.52 209.438L226.517 209.441Z" fill="#380175"/>
<path d="M232.678 196.751C231.438 196.902 230.237 197.274 229.223 197.886C228.21 198.485 227.401 199.371 227.107 200.33C226.808 201.288 227.027 202.244 227.544 203.104C228.061 203.968 228.849 204.729 229.725 205.404L227.375 207.81C226.491 206.732 225.68 205.523 225.22 204.083C224.994 203.367 224.869 202.59 224.921 201.809C224.971 201.03 225.199 200.257 225.589 199.611C226.38 198.301 227.633 197.53 228.878 197.123C230.136 196.712 231.436 196.626 232.678 196.756V196.751Z" fill="#380175"/>
<g opacity="0.3">
<path d="M202.951 219.198C202.951 211.334 211.175 210.214 215.01 217.56L202.951 219.198Z" fill="#380175"/>
</g>
<g opacity="0.3">
<path d="M226.517 209.441C220.276 203.739 212.94 209.287 218.108 216.145L226.517 209.441Z" fill="#380175"/>
</g>
<g opacity="0.3">
<path d="M232.678 196.751C227.18 196.785 223.073 201.236 228.548 206.604L232.678 196.751Z" fill="#380175"/>
</g>
<path d="M183.707 205.362C182.685 205.502 181.672 205.961 180.861 206.706C180.052 207.446 179.449 208.467 179.267 209.605C179.085 210.738 179.369 211.975 180.083 213.025C180.437 213.551 180.884 214.028 181.388 214.455C181.9 214.874 182.464 215.239 183.06 215.564C182.412 215.367 181.773 215.124 181.157 214.804C180.546 214.476 179.961 214.069 179.444 213.567C178.399 212.574 177.671 211.121 177.588 209.548C177.502 207.98 178.009 206.383 178.94 205.073C179.865 203.755 181.227 202.708 182.797 202.122L183.707 205.362Z" fill="#380175"/>
<g opacity="0.3">
<path d="M183.252 203.742C177.931 205.242 175.862 212.629 183.06 215.564L183.252 203.742Z" fill="#380175"/>
</g>
<path d="M180.278 221.443C179.343 220.691 178.178 220.097 176.985 219.81C176.39 219.669 175.781 219.602 175.228 219.672C174.942 219.696 174.692 219.774 174.44 219.86C174.211 219.969 173.975 220.086 173.793 220.269C173.4 220.61 173.151 221.159 173.028 221.782C172.909 222.407 172.922 223.1 173.002 223.79C173.187 225.178 173.621 226.572 174.157 227.919C173.372 226.697 172.667 225.405 172.184 223.975C171.957 223.256 171.781 222.496 171.773 221.678C171.77 220.873 171.942 219.959 172.501 219.193C172.763 218.802 173.125 218.49 173.504 218.216C173.891 217.969 174.307 217.755 174.731 217.627C175.581 217.343 176.442 217.278 177.279 217.302C178.955 217.37 180.559 217.82 182.069 218.596L180.276 221.443H180.278Z" fill="#380175"/>
<g opacity="0.3">
<path d="M181.175 220.019C176.582 217.114 168.882 217.68 174.159 227.919L181.175 220.019Z" fill="#380175"/>
</g>
<path d="M168.077 230.635C168.009 230.081 167.915 229.531 167.762 229.023C167.601 228.523 167.39 228.059 167.109 227.671C166.829 227.286 166.488 226.963 166.062 226.762C165.638 226.556 165.131 226.457 164.591 226.478C163.504 226.525 162.35 227.049 161.386 227.822C160.416 228.601 159.61 229.638 159.069 230.833C159.342 229.552 159.925 228.302 160.79 227.228C161.658 226.168 162.813 225.236 164.299 224.822C165.04 224.624 165.87 224.574 166.688 224.757C167.51 224.931 168.282 225.363 168.908 225.908C169.537 226.455 170.029 227.109 170.424 227.786C170.811 228.466 171.097 229.169 171.344 229.877L168.071 230.635H168.077Z" fill="#380175"/>
<g opacity="0.3">
<path d="M167.866 226.637C168.667 227.385 169.322 228.565 169.714 230.255L160.951 230.732C160.421 230.93 159.886 231.107 159.34 231.263C159.108 231.224 158.877 231.182 158.648 231.133C156.47 230.674 155.685 227.981 157.195 226.34C158.37 225.061 159.446 223.577 160.211 221.982C162.059 218.151 162.126 213.687 157.541 209.931C156.509 209.084 155.383 208.362 154.211 207.727C143.065 201.676 132.984 196.133 129.62 186.483H120.855C120.863 186.327 120.881 186.17 120.904 186.019C122.056 178.658 118.796 174.535 118.796 174.535C121.856 171.053 125.588 169.852 131.115 174.694C132.576 172.709 135.664 173.321 136.29 175.707C139.566 188.16 148.994 195.558 162.963 199.225C164.793 199.71 166.558 200.434 168.17 201.426C178.42 207.753 175.979 219.667 167.869 226.642L167.866 226.637Z" fill="#380175"/>
</g>
<g opacity="0.3">
<path d="M159.241 60.957C155.773 65.1167 148.57 59.8526 140.145 52.8017C131.721 45.7507 125.269 39.5854 128.736 35.4257C132.204 31.266 141.843 33.6102 150.265 40.6611C158.69 47.7121 162.709 56.7973 159.241 60.957Z" fill="white"/>
</g>
<g opacity="0.3">
<path d="M174.216 70.5137C175.048 74.6708 173.01 78.5856 169.67 79.2551C166.327 79.9245 164.354 76.8171 163.522 72.6573C162.69 68.5002 163.319 64.8693 166.662 64.1973C170.005 63.5278 173.387 66.354 174.216 70.5111V70.5137Z" fill="white"/>
</g>
<g opacity="0.3">
<path d="M112.542 159.3C88.762 145.969 60.636 119.792 81.3172 109.886C65.5723 82.9928 72.0346 55.7815 101.505 28.2341C77.3972 42.1589 63.394 67.9272 63.394 89.0748C63.5188 97.5479 65.7907 104.45 70.5321 109.55C58.9879 118.722 56.9266 140.781 78.2733 153.406L77.4024 152.981L81.7435 155.104L82.0918 155.276L90.4595 159.371C90.8026 159.652 91.1561 159.912 91.5149 160.162C91.2003 159.944 90.891 159.714 90.5895 159.472L93.649 160.97C94.1559 161.387 94.6862 161.77 95.2347 162.121C98.0941 163.189 101.226 163.476 104.304 162.926C106.911 162.46 109.456 162.345 111.718 162.408C113.441 162.455 114.052 160.131 112.537 159.305L112.542 159.3Z" fill="#380175"/>
</g>
<g opacity="0.3">
<path d="M39.0891 171.081C39.0891 171.081 38.6264 171.152 37.8466 171.24C37.8518 170.904 37.8622 170.558 37.8804 170.214C38.8084 159.066 34.9534 152.598 27.0224 150.121C25.1248 149.527 24.8259 146.946 26.5052 145.881C31.4259 142.755 36.9965 142.005 41.7197 143.339C41.7197 143.339 34.2099 147.519 39.0865 171.079L39.0891 171.081Z" fill="#380175"/>
</g>
<g opacity="0.3">
<path d="M69.0296 171.576L58.7852 178.278C58.7852 178.278 49.6377 180 52.4711 156.75C53.5239 163.645 58.1301 166.242 63.0249 164.541C64.5612 164.012 65.8791 163.004 66.9345 161.764C69.3104 158.967 72.1022 156.982 75.3905 155.979L76.7682 156.274C76.7682 156.274 67.3582 161.267 69.0296 171.574V171.576Z" fill="#380175"/>
</g>
<g opacity="0.3">
<path d="M33.4795 212.139C33.3625 213.358 32.8296 214.723 31.7587 216.145L23.3494 209.443C23.404 209.394 23.4586 209.342 23.5132 209.3C28.421 204.976 33.9292 207.524 33.4795 212.139Z" fill="#380175"/>
</g>
<g opacity="0.3">
<path d="M78.1147 168.047C66.6563 174.483 57.5244 184.753 50.732 198.858C48.7331 203.002 45.7281 206.607 41.8445 209.063C39.1697 210.751 36.2973 211.827 33.4821 212.139C33.9318 207.524 28.4235 204.974 23.5158 209.3C23.0739 208.925 22.6502 208.521 22.2394 208.076C15.9878 199.91 14.4307 188.77 21.8573 179.825C23.1623 178.252 25.6811 178.997 25.9983 181.021C27.6151 191.424 38.3197 193.87 45.5929 189.072C46.0998 189.067 46.3857 189.03 46.3857 189.03C56.521 178.757 67.106 171.816 78.1173 168.047H78.1147Z" fill="#380175"/>
</g>
<g opacity="0.3">
<path d="M88.6425 180.742L99.6667 175.989C68.9022 205.091 72.5857 220.909 91.5487 230.833C79.8667 231.326 68.5227 230.888 66.0506 206.13C67.6701 195.516 74.8862 186.939 88.6399 180.742H88.6425Z" fill="#380175"/>
</g>
<g opacity="0.3">
<path d="M81.9125 168.047C87.0698 168.573 91.9594 168.807 95.9079 168.023C97.0569 167.794 97.8939 169.078 97.2596 170.063C92.6196 177.278 87.5039 176.606 81.9125 168.047Z" fill="#380175"/>
</g>
<g opacity="0.3">
<path d="M198.142 214.168C198.584 215.447 198.604 216.849 197.991 218.185L196.634 217.458C196.486 217.705 196.333 217.945 196.164 218.185L188.396 213.043L188.095 212.845L183.946 210.097C183.85 196.657 174.138 187.191 159.361 179.823L150.507 176.546C184.947 171.923 203.239 198.376 198.142 214.166V214.168Z" fill="#380175"/>
</g>
<g opacity="0.3">
<path d="M211.916 169.229L211.48 177.676C211.37 178.106 211.253 178.526 211.118 178.935C209.707 183.428 207.125 186.717 202.881 188.285L179.608 170.878C185.527 175.153 198.745 177.984 206.515 174.256C205.982 171.48 208.194 168.854 211.607 169.19C211.708 169.198 211.81 169.211 211.914 169.229H211.916Z" fill="#380175"/>
</g>
<g opacity="0.3">
<path d="M112.178 186.952C109.789 190.424 105.991 191.95 103.691 190.364C101.39 188.775 103.938 186.384 106.324 182.912C108.713 179.44 110.039 176.205 112.336 177.791C114.637 179.38 114.564 183.48 112.175 186.952H112.178Z" fill="white"/>
</g>
<g opacity="0.3">
<path d="M102.089 193.565C102.604 194.878 101.666 196.477 99.9891 197.139C98.315 197.8 96.537 197.269 96.0223 195.956C95.5076 194.644 96.7034 193.698 98.38 193.036C100.054 192.375 101.575 192.252 102.089 193.565Z" fill="white"/>
</g>
<g opacity="0.3">
<path d="M167.824 168.047C167.824 168.047 160.593 165.901 151.008 167.849C148.651 168.328 146.678 165.997 147.588 163.767C150.231 157.289 157.536 147.603 177.383 150.238C177.383 150.238 170.868 152.025 162.417 158.329C162.417 158.329 172.137 159.829 167.822 168.049L167.824 168.047Z" fill="#380175"/>
</g>
<path d="M78.0679 106.904C79.222 105.221 80.8753 103.893 82.7391 102.963C84.6029 102.028 86.7033 101.515 88.814 101.465C90.9248 101.408 93.0407 101.814 94.9513 102.622C96.8593 103.437 98.5723 104.625 99.9007 106.141C100.135 106.407 100.109 106.813 99.8409 107.047C99.6615 107.206 99.4172 107.245 99.2066 107.172L99.1884 107.165C97.387 106.537 95.6922 105.974 93.9895 105.636C92.2947 105.284 90.6076 105.133 88.931 105.198C87.2543 105.266 85.5907 105.539 83.927 105.99C82.2608 106.443 80.6179 107.092 78.8737 107.855L78.8581 107.86C78.5306 108.003 78.1511 107.855 78.0081 107.527C77.9145 107.316 77.9457 107.079 78.0679 106.901V106.904Z" fill="#3A0275"/>
<path d="M171.542 107.857C169.797 107.094 168.154 106.446 166.488 105.992C164.825 105.542 163.161 105.266 161.484 105.201C159.808 105.135 158.121 105.287 156.426 105.638C154.721 105.977 153.028 106.537 151.227 107.167L151.209 107.172C150.873 107.29 150.509 107.112 150.392 106.776C150.314 106.55 150.369 106.31 150.517 106.141C151.846 104.628 153.559 103.44 155.467 102.622C157.377 101.814 159.493 101.408 161.604 101.465C163.715 101.515 165.815 102.025 167.679 102.963C169.54 103.893 171.193 105.221 172.35 106.904C172.553 107.198 172.477 107.602 172.184 107.803C171.994 107.933 171.757 107.949 171.56 107.863L171.544 107.855L171.542 107.857Z" fill="#3A0275"/>
<path d="M168.287 118.13C168.287 121.566 165.664 124.35 162.241 126.523C159.61 128.19 156.363 128.698 153.418 127.687C151.253 126.945 149.672 125.53 150.405 123.332C150.405 123.332 160.231 116.914 160.398 116.836C160.564 116.755 163.065 114.004 168.287 118.13Z" fill="#3A0275"/>
<path d="M155.69 125.377C157.018 125.377 158.095 124.368 158.095 123.123C158.095 121.879 157.018 120.87 155.69 120.87C154.362 120.87 153.286 121.879 153.286 123.123C153.286 124.368 154.362 125.377 155.69 125.377Z" fill="white"/>
<path d="M141.513 122.149C143.124 122.832 144.718 123.194 146.21 123.025C146.959 122.941 147.689 122.756 148.401 122.465C148.76 122.337 149.114 122.157 149.464 121.988C149.813 121.795 150.161 121.602 150.473 121.402L150.715 121.256C150.795 121.209 150.892 121.128 150.98 121.068C151.162 120.938 151.341 120.803 151.523 120.678L152.623 119.912C153.361 119.409 154.104 118.917 154.856 118.435C156.358 117.471 157.863 116.51 159.348 115.518C159.394 115.486 159.444 115.458 159.493 115.432H159.501C160.741 114.77 162.178 114.403 163.611 114.419C165.043 114.432 166.454 114.812 167.658 115.507C168.862 116.198 169.888 117.154 170.627 118.289C171.341 119.43 171.734 120.811 171.464 122.157C171.388 122.532 171.024 122.774 170.65 122.699C170.51 122.67 170.387 122.603 170.294 122.506L170.257 122.47C169.413 121.615 168.763 120.925 168.084 120.274C167.427 119.618 166.707 119.052 165.927 118.641C165.15 118.229 164.328 117.938 163.491 117.878C162.654 117.81 161.814 117.984 161.042 118.378L161.196 118.287C159.698 119.289 158.225 120.329 156.745 121.36C156.005 121.876 155.259 122.381 154.507 122.879L153.371 123.611C153.182 123.733 152.989 123.85 152.797 123.967C152.696 124.027 152.615 124.085 152.498 124.145L152.15 124.322C151.687 124.574 151.219 124.757 150.756 124.944C150.278 125.113 149.8 125.283 149.298 125.4C148.3 125.634 147.244 125.754 146.197 125.66C145.937 125.64 145.677 125.611 145.42 125.559L145.035 125.489L144.658 125.39C144.406 125.327 144.164 125.239 143.928 125.147C143.686 125.067 143.457 124.955 143.228 124.853C142.324 124.41 141.518 123.85 140.829 123.196C140.574 122.957 140.564 122.556 140.803 122.3C140.99 122.102 141.274 122.053 141.51 122.152L141.513 122.149Z" fill="#3A0275"/>
<path d="M81.6681 118.13C81.6681 121.566 84.291 124.35 87.7144 126.523C90.3451 128.19 93.5918 128.698 96.537 127.687C98.7023 126.945 100.283 125.53 99.5497 123.332C99.5497 123.332 89.7238 116.914 89.5575 116.836C89.3911 116.755 86.8904 114.004 81.6681 118.13Z" fill="#3A0275"/>
<path d="M94.2677 125.377C95.5956 125.377 96.6722 124.368 96.6722 123.123C96.6722 121.879 95.5956 120.87 94.2677 120.87C92.9397 120.87 91.8632 121.879 91.8632 123.123C91.8632 124.368 92.9397 125.377 94.2677 125.377Z" fill="white"/>
<path d="M109.124 123.194C108.432 123.848 107.629 124.408 106.724 124.85C106.495 124.955 106.267 125.064 106.025 125.145C105.786 125.236 105.544 125.322 105.295 125.387L104.918 125.486L104.533 125.556C104.276 125.608 104.018 125.637 103.756 125.658C102.711 125.752 101.655 125.632 100.655 125.397C100.15 125.278 99.6745 125.111 99.1962 124.942C98.7335 124.754 98.2656 124.572 97.8029 124.319L97.4546 124.142C97.3376 124.082 97.257 124.025 97.1557 123.965C96.9633 123.845 96.771 123.73 96.5812 123.608L95.4452 122.876C94.694 122.379 93.9453 121.873 93.2071 121.358C91.728 120.326 90.2541 119.287 88.7568 118.284L88.9102 118.375C88.1382 117.982 87.2986 117.807 86.4615 117.875C85.6245 117.935 84.8031 118.227 84.0258 118.638C83.246 119.05 82.526 119.615 81.8683 120.271C81.1898 120.923 80.54 121.613 79.6952 122.467L79.6588 122.504C79.391 122.774 78.9517 122.777 78.6814 122.509C78.58 122.407 78.515 122.285 78.489 122.155C78.2161 120.808 78.6086 119.427 79.326 118.287C80.0643 117.151 81.0911 116.195 82.2946 115.505C83.4982 114.812 84.9097 114.429 86.342 114.416C87.7743 114.403 89.2118 114.77 90.4517 115.427H90.4569C90.5063 115.455 90.5583 115.487 90.6051 115.518C92.0893 116.51 93.5944 117.471 95.0969 118.435C95.8482 118.92 96.5916 119.412 97.3298 119.912L98.4294 120.678C98.614 120.805 98.7933 120.938 98.9727 121.068C99.0611 121.131 99.1572 121.209 99.2378 121.256L99.4796 121.402C99.7915 121.6 100.14 121.795 100.488 121.988C100.839 122.157 101.193 122.334 101.551 122.465C102.264 122.756 102.997 122.941 103.743 123.025C105.237 123.194 106.828 122.832 108.44 122.149C108.762 122.011 109.134 122.162 109.269 122.485C109.376 122.735 109.306 123.017 109.121 123.194H109.124Z" fill="#3A0275"/>
<path d="M137.744 133.287C130.829 138.283 117.969 137.955 112.074 133.467C111.343 132.912 110.293 133.454 110.283 134.373C110.057 155.133 139.807 154.588 139.527 134.199C139.514 133.282 138.487 132.753 137.746 133.29L137.744 133.287Z" fill="white"/>
<path d="M124.733 151.39C121.804 151.39 118.884 150.65 116.342 149.171C111.291 146.23 108.549 140.968 108.619 134.355C108.632 133.287 109.235 132.334 110.192 131.865C111.138 131.401 112.243 131.508 113.075 132.144C118.099 135.967 130.262 136.637 136.769 131.938C137.614 131.328 138.716 131.24 139.644 131.709C140.579 132.18 141.167 133.126 141.183 134.175C141.274 140.677 138.414 146.11 133.34 149.085C130.717 150.621 127.717 151.39 124.731 151.39H124.733ZM111.96 135.415C112.17 140.291 114.296 144.128 118.011 146.292C122.129 148.689 127.489 148.657 131.666 146.209C135.479 143.974 137.653 140.096 137.85 135.217C130.78 139.64 118.671 139.726 111.957 135.415H111.96Z" fill="#3A0275"/>
<path d="M111.629 136.592C112.659 138.114 113.842 139.51 115.276 140.601C116.701 141.698 118.401 142.44 120.241 142.724H120.244C120.543 142.771 120.748 143.049 120.701 143.349C120.66 143.62 120.426 143.813 120.161 143.813C119.147 143.813 118.118 143.693 117.112 143.435C116.106 143.18 115.126 142.789 114.205 142.294C112.357 141.302 110.761 139.916 109.363 138.418L109.357 138.41C108.806 137.822 108.838 136.897 109.428 136.345C110.015 135.793 110.938 135.827 111.489 136.415C111.541 136.47 111.59 136.535 111.632 136.592H111.629Z" fill="#3A0275"/>
<path d="M140.66 138.418C139.262 139.919 137.663 141.302 135.817 142.294C134.897 142.789 133.917 143.182 132.911 143.435C131.905 143.693 130.876 143.813 129.862 143.813C129.56 143.813 129.316 143.568 129.316 143.266C129.316 142.992 129.516 142.766 129.779 142.724H129.781C131.622 142.44 133.322 141.698 134.746 140.601C136.179 139.51 137.364 138.114 138.393 136.592C138.846 135.926 139.753 135.749 140.418 136.202C141.086 136.655 141.261 137.564 140.808 138.231C140.767 138.293 140.72 138.351 140.673 138.403L140.66 138.416V138.418Z" fill="#3A0275"/>
</g>
<defs>
<filter id="filter0_d_425_41700" x="10.9989" y="17" width="228" height="224.454" filterUnits="userSpaceOnUse" color-interpolation-filters="sRGB">
<feFlood flood-opacity="0" result="BackgroundImageFix"/>
<feColorMatrix in="SourceAlpha" type="matrix" values="0 0 0 0 0 0 0 0 0 0 0 0 0 0 0 0 0 0 127 0" result="hardAlpha"/>
<feOffset dy="4"/>
<feGaussianBlur stdDeviation="2"/>
<feComposite in2="hardAlpha" operator="out"/>
<feColorMatrix type="matrix" values="0 0 0 0 0 0 0 0 0 0 0 0 0 0 0 0 0 0 0.25 0"/>
<feBlend mode="normal" in2="BackgroundImageFix" result="effect1_dropShadow_425_41700"/>
<feBlend mode="normal" in="SourceGraphic" in2="effect1_dropShadow_425_41700" result="shape"/>
</filter>
<linearGradient id="paint0_linear_425_41700" x1="124.998" y1="18.8832" x2="124.998" y2="231.563" gradientUnits="userSpaceOnUse">
<stop stop-color="#8303A2"/>
<stop offset="0.04" stop-color="#9C1AB8"/>
<stop offset="0.09" stop-color="#B835D1"/>
<stop offset="0.15" stop-color="#CE49E5"/>
<stop offset="0.21" stop-color="#DE58F4"/>
<stop offset="0.28" stop-color="#E861FC"/>
<stop offset="0.38" stop-color="#EB64FF"/>
<stop offset="0.56" stop-color="#E861FC"/>
<stop offset="0.69" stop-color="#DF59F4"/>
<stop offset="0.79" stop-color="#D04BE7"/>
<stop offset="0.89" stop-color="#BB37D4"/>
<stop offset="0.97" stop-color="#9F1EBB"/>
<stop offset="1" stop-color="#9615B3"/>
</linearGradient>
</defs>
</svg>
