<svg width="251" height="251" viewBox="0 0 251 251" fill="none" xmlns="http://www.w3.org/2000/svg">
<g filter="url(#filter0_d_2021_4696)">
<path d="M82.7074 160.841L71.803 174.381C45.3592 198.589 10.5594 178.651 23.8251 149.788C24.0918 149.208 24.3771 148.626 24.6809 148.041C27.1053 156.271 30.5232 159.421 34.4373 160.038C37.3433 160.496 40.3114 159.47 42.3912 157.393C48.6249 151.155 58.094 149.02 66.8728 152.579C68.3727 153.183 69.8508 153.957 71.2888 154.905L82.7074 160.841Z" fill="#B540D4"/>
<path d="M66.6337 150.969L62.9878 151.248L50.5252 152.204C35.6085 149.687 32.6649 121.598 46.1078 114.466C46.2694 116.899 46.775 119.003 47.5663 120.829C49.5336 125.405 53.2908 128.255 57.9868 130.193L66.6334 150.967L66.6337 150.969Z" fill="#B540D4"/>
<path d="M50.6762 152.185L64.3094 152.063L64.8463 149.489L62.0774 144.854C47.4783 145.477 38.0126 125.301 46.2592 114.45C32.8163 121.581 35.7573 149.671 50.6766 152.188L50.6762 152.185Z" fill="#C9EFF3"/>
<path d="M71.9544 174.364C74.065 168.228 78.2025 164.046 83.6048 161.084C82.7554 160.622 81.8139 160.177 80.7736 159.739C74.0067 159.864 66.9874 166.235 59.7686 170.862C54.1425 174.466 47.3953 176.04 40.8099 174.925C28.3379 172.816 21.373 162.556 24.0517 149.62C10.5839 178.567 45.4649 198.616 71.9548 174.367L71.9544 174.364Z" fill="#C9EFF3"/>
<path d="M50.5136 186.888C41.8287 187.975 33.9289 185.587 28.4393 181.373C23.6732 177.713 20.5613 172.725 19.4432 166.952C18.2419 160.751 19.4642 153.907 22.9795 147.161C23.3422 146.467 24.0855 146.059 24.8679 146.136C25.6473 146.211 26.3022 146.753 26.5253 147.503C29.4102 157.304 33.4177 157.936 34.7363 158.146C37.0024 158.503 39.3538 157.713 41.0314 156.036C49.3187 147.748 62.1936 146.622 72.3427 153.3C73.2289 153.884 73.475 155.076 72.8912 155.962C72.3074 156.848 71.1184 157.094 70.2322 156.51C61.6208 150.845 50.7289 151.767 43.7461 158.752C41.2023 161.297 37.6086 162.487 34.1369 161.942C30.0167 161.291 26.8404 158.415 24.5029 153.182C20.2721 164.797 24.6951 173.656 30.7776 178.326C39.6512 185.14 55.866 186.369 70.5035 172.968C71.2861 172.251 72.4993 172.306 73.2162 173.086C73.9334 173.869 73.8782 175.085 73.0979 175.799C65.667 182.604 57.8116 185.972 50.5106 186.886L50.5136 186.888Z" fill="#3A0275"/>
<path d="M50.764 154.113C50.5837 154.135 50.3948 154.132 50.205 154.099C42.9601 152.879 37.5053 146.232 35.9726 136.758C34.5572 128.006 36.8638 117.195 45.2092 112.772C45.7825 112.469 46.4751 112.473 47.0424 112.79C47.6125 113.107 47.9817 113.69 48.0252 114.339C48.4866 121.212 51.7821 125.558 58.7156 128.422C59.6953 128.827 60.1617 129.951 59.7565 130.93C59.3513 131.91 58.2276 132.376 57.248 131.971C50.1411 129.034 45.985 124.395 44.6269 117.845C39.9605 122.104 38.7591 129.933 39.7623 136.143C40.7505 142.256 44.1811 149.188 50.8401 150.31C51.8853 150.486 52.591 151.477 52.4148 152.522C52.2714 153.378 51.5802 154.008 50.761 154.111L50.764 154.113Z" fill="#3A0275"/>
<path d="M43.1801 185.067C43.0965 183.839 42.7713 182.639 42.112 181.717C41.7879 181.257 41.3945 180.867 40.9573 180.58C40.5179 180.296 40.0407 180.118 39.5724 180.056C38.6233 179.916 37.7724 180.281 37.2121 180.881C36.6385 181.484 36.3191 182.353 36.1698 183.29L32.5174 182.096C32.8352 181.408 33.2221 180.734 33.7188 180.12C34.2128 179.507 34.8219 178.951 35.5323 178.539C36.2401 178.127 37.0457 177.873 37.8523 177.821C38.6579 177.76 39.4529 177.917 40.1478 178.22C40.8454 178.523 41.4459 178.976 41.9215 179.506C42.3948 180.039 42.7405 180.65 42.9699 181.278C43.438 182.545 43.4143 183.862 43.1824 185.065L43.1801 185.067Z" fill="#3A0275"/>
<path d="M45.7372 185.814C45.5442 184.982 45.4477 184.103 45.5221 183.213C45.5943 182.326 45.8431 181.431 46.2854 180.64C47.1508 179.035 48.8457 177.991 50.5284 177.904C51.3705 177.855 52.1973 178.029 52.9155 178.367C53.6336 178.706 54.2368 179.201 54.7111 179.764C55.6639 180.902 56.1347 182.254 56.3976 183.581C55.8364 182.345 55.0658 181.2 54.0524 180.46C53.0505 179.705 51.8184 179.477 50.8276 179.8C49.8311 180.121 49.1191 180.929 48.9154 181.819C48.6931 182.711 48.9043 183.667 49.372 184.565L45.7395 185.811L45.7372 185.814Z" fill="#3A0275"/>
<path d="M66.3948 178.092C66.1664 177.084 65.6904 176.142 64.9683 175.556C64.2577 174.977 63.3242 174.747 62.454 175.238C61.5646 175.705 60.904 176.859 60.6012 178.098C60.2786 179.35 60.229 180.718 60.3071 182.074C59.9152 180.771 59.6287 179.407 59.6485 177.972C59.6557 177.255 59.752 176.518 59.9942 175.785C60.2314 175.056 60.6346 174.319 61.2708 173.722C61.5796 173.414 61.964 173.172 62.3689 172.965C62.7851 172.784 63.2351 172.636 63.6954 172.592C64.6226 172.471 65.5558 172.677 66.3793 173.04C68.0377 173.791 69.21 175.198 69.9723 176.686L66.3972 178.089L66.3948 178.092Z" fill="#3A0275"/>
<path d="M75.9545 167.878C75.2065 167.108 74.2268 166.638 73.1296 166.67C72.5875 166.684 72.0225 166.817 71.5002 167.076C70.978 167.335 70.4922 167.714 70.0906 168.184C69.2789 169.12 68.8409 170.44 68.8938 171.81C68.9147 172.494 69.0473 173.188 69.2592 173.87C69.4763 174.551 69.7896 175.203 70.1389 175.844C69.6732 175.285 69.2278 174.695 68.8685 174.04C68.5119 173.384 68.2241 172.677 68.0491 171.924C67.6893 170.426 67.8485 168.707 68.6739 167.233C69.0801 166.498 69.6427 165.83 70.3319 165.292C71.0214 164.756 71.8439 164.357 72.7326 164.143C73.6214 163.93 74.5778 163.912 75.4984 164.104C76.419 164.296 77.2916 164.685 78.0581 165.195L75.9525 167.884L75.9545 167.878Z" fill="#3A0275"/>
<path d="M37.5184 130.39C39.2393 130.544 40.7273 131.397 41.7647 132.479C42.811 133.568 43.5077 134.897 43.7872 136.313C43.9215 137.02 43.9438 137.758 43.807 138.473C43.6726 139.184 43.3651 139.869 42.9132 140.41C42.4619 140.956 41.8807 141.347 41.2739 141.598C40.6645 141.849 40.0313 141.974 39.4066 142.039C40.0031 141.835 40.5764 141.575 41.0681 141.222C41.5602 140.873 41.9598 140.43 42.2069 139.93C42.7089 138.928 42.5944 137.776 42.1539 136.795C41.71 135.808 40.961 134.965 40.1043 134.423C39.2466 133.873 38.2965 133.661 37.4956 133.802L37.5207 130.387L37.5184 130.39Z" fill="#3A0275"/>
<path d="M39.9365 144.401C41.1128 143.344 42.5864 142.532 44.2068 142.313C45.0118 142.204 45.8452 142.238 46.6362 142.47C47.4243 142.7 48.166 143.118 48.7347 143.704C49.3011 144.293 49.678 145.024 49.8511 145.762C50.0275 146.504 50.0017 147.245 49.8722 147.932C49.5983 149.315 48.942 150.504 48.1872 151.573C48.699 150.37 49.0531 149.09 49.0205 147.861C49.0009 147.252 48.8786 146.662 48.6333 146.164C48.3906 145.667 48.0337 145.267 47.6171 144.994C46.7664 144.457 45.6957 144.443 44.7668 144.809C43.8291 145.169 43.0365 145.871 42.4421 146.716L39.9339 144.402L39.9365 144.401Z" fill="#3A0275"/>
<path d="M57.6345 150.943C57.5933 150.183 57.3092 149.419 56.7697 148.808C56.2364 148.205 55.4579 147.772 54.6331 147.743C53.8159 147.71 52.9613 148.154 52.4153 148.976C51.8626 149.788 51.5817 150.836 51.4523 151.889C51.3391 150.834 51.3453 149.721 51.7501 148.631C51.9545 148.091 52.2819 147.566 52.7454 147.139C53.2064 146.712 53.8055 146.4 54.4473 146.258C55.74 145.981 57.1097 146.34 58.1991 147.084C59.2967 147.83 60.1339 148.991 60.5483 150.301L57.6292 150.944L57.6345 150.943Z" fill="#3A0275"/>
<g opacity="0.3">
<path d="M62.9878 151.248L50.5252 152.204C35.6085 149.687 32.6649 121.598 46.1078 114.466C46.2694 116.899 46.775 119.003 47.5663 120.829L47.5679 120.842C47.5679 120.842 37.2103 139.785 60.4691 150.034C61.3981 150.443 62.2345 150.844 62.9875 151.245L62.9878 151.248Z" fill="#3A0275"/>
</g>
<g opacity="0.3">
<path d="M82.7074 160.841L71.803 174.381C45.3592 198.589 10.5594 178.651 23.8251 149.788C23.962 149.72 24.0409 149.683 24.0409 149.683C28.4749 191.32 69.2982 166.455 66.0895 152.882L66.8725 152.577C68.3724 153.181 69.8505 153.954 71.2885 154.903L82.7071 160.838L82.7074 160.841Z" fill="#3A0275"/>
</g>
<path d="M174.815 149.316L188.72 159.752C220.313 176.699 249.127 148.802 229.16 124.097C228.758 123.601 228.338 123.107 227.9 122.615C227.578 131.188 225.041 135.084 221.4 136.646C218.696 137.806 215.567 137.543 213.039 136.042C205.461 131.532 195.758 131.796 188.127 137.408C186.822 138.363 185.58 139.477 184.42 140.751L174.815 149.316Z" fill="#B540D4"/>
<path d="M187.962 135.789L191.564 135.161L203.878 133.017C217.714 126.902 213.647 98.9539 198.861 95.354C199.304 97.7516 199.332 99.9155 199.015 101.88C198.236 106.8 195.297 110.488 191.223 113.523L187.961 135.787L187.962 135.789Z" fill="#B540D4"/>
<path d="M203.727 133.036L190.484 136.276L189.329 133.914L190.871 128.74C205.173 125.747 209.376 103.861 198.71 95.3756C213.496 98.9754 217.566 126.924 203.727 133.039L203.727 133.036Z" fill="#C9EFF3"/>
<path d="M188.569 159.774C185.011 154.347 179.971 151.313 174.006 149.773C174.715 149.116 175.518 148.453 176.418 147.772C183.007 146.226 191.38 150.672 199.516 153.377C205.857 155.484 212.784 155.347 218.892 152.644C230.459 147.527 234.682 135.868 228.898 123.99C249.083 148.727 220.217 176.752 188.569 159.777L188.569 159.774Z" fill="#C9EFF3"/>
<path d="M212.434 166.629C221.119 165.543 228.187 161.282 232.469 155.846C236.187 151.124 237.974 145.523 237.635 139.653C237.272 133.346 234.401 127.015 229.332 121.343C228.809 120.759 227.988 120.547 227.249 120.814C226.512 121.079 226.011 121.766 225.98 122.548C225.598 132.758 221.87 134.358 220.644 134.886C218.536 135.79 216.062 135.604 214.023 134.392C203.949 128.401 191.194 130.482 183.003 139.455C182.288 140.239 182.343 141.455 183.127 142.17C183.911 142.885 185.124 142.83 185.839 142.046C192.789 134.434 203.573 132.643 212.061 137.693C215.154 139.533 218.93 139.801 222.16 138.417C225.993 136.772 228.363 133.201 229.339 127.554C236.301 137.768 234.197 147.444 229.453 153.469C222.531 162.259 207.119 167.445 189.631 158.063C188.696 157.561 187.534 157.914 187.031 158.846C186.529 159.782 186.882 160.946 187.814 161.446C196.693 166.211 205.136 167.54 212.437 166.626L212.434 166.629Z" fill="#3A0275"/>
<path d="M204.117 134.926C204.297 134.903 204.479 134.854 204.655 134.775C211.376 131.807 215.025 124.021 214.176 114.461C213.392 105.631 208.493 95.7214 199.315 93.4906C198.684 93.3379 198.014 93.5133 197.542 93.9601C197.068 94.4072 196.854 95.064 196.972 95.7035C198.218 102.478 196.095 107.502 190.08 111.986C189.231 112.62 189.056 113.824 189.69 114.674C190.324 115.523 191.528 115.698 192.377 115.064C198.542 110.467 201.427 104.947 201.129 98.2637C206.701 101.242 209.794 108.534 210.352 114.8C210.9 120.967 209.283 128.531 203.106 131.259C202.136 131.687 201.697 132.822 202.125 133.791C202.475 134.585 203.3 135.025 204.119 134.923L204.117 134.926Z" fill="#3A0275"/>
<path d="M219.093 163.058C218.872 161.847 218.891 160.603 219.303 159.547C219.504 159.022 219.789 158.547 220.142 158.161C220.498 157.777 220.916 157.488 221.355 157.312C222.24 156.942 223.155 157.086 223.846 157.53C224.55 157.973 225.074 158.737 225.449 159.608L228.695 157.551C228.217 156.962 227.677 156.405 227.044 155.932C226.414 155.459 225.687 155.071 224.897 154.846C224.109 154.622 223.266 154.574 222.471 154.722C221.676 154.862 220.944 155.209 220.345 155.674C219.744 156.14 219.273 156.727 218.943 157.358C218.615 157.991 218.431 158.668 218.363 159.334C218.222 160.676 218.569 161.947 219.09 163.056L219.093 163.058Z" fill="#3A0275"/>
<path d="M216.801 164.411C216.783 163.557 216.66 162.681 216.369 161.837C216.081 160.995 215.619 160.189 214.995 159.532C213.761 158.189 211.861 157.595 210.209 157.925C209.381 158.086 208.622 158.458 208.01 158.963C207.397 159.467 206.935 160.096 206.614 160.758C205.97 162.096 205.847 163.522 205.919 164.873C206.159 163.537 206.624 162.238 207.424 161.271C208.208 160.292 209.346 159.767 210.386 159.836C211.431 159.902 212.32 160.51 212.737 161.322C213.172 162.132 213.203 163.111 212.971 164.096L216.798 164.409L216.801 164.411Z" fill="#3A0275"/>
<path d="M194.875 162.017C194.848 160.984 195.078 159.953 195.633 159.208C196.179 158.472 197.027 158.018 197.992 158.28C198.969 158.513 199.893 159.469 200.492 160.595C201.113 161.729 201.498 163.043 201.757 164.376C201.815 163.017 201.757 161.624 201.384 160.238C201.201 159.545 200.926 158.855 200.51 158.205C200.101 157.556 199.528 156.941 198.765 156.519C198.39 156.297 197.958 156.157 197.514 156.056C197.066 155.983 196.594 155.951 196.137 156.022C195.208 156.132 194.354 156.562 193.646 157.117C192.223 158.253 191.434 159.906 191.062 161.535L194.872 162.014L194.875 162.017Z" fill="#3A0275"/>
<path d="M183.094 154.473C183.629 153.542 184.463 152.846 185.534 152.606C186.063 152.486 186.643 152.476 187.213 152.598C187.783 152.721 188.347 152.968 188.852 153.325C189.87 154.032 190.62 155.204 190.906 156.544C191.054 157.212 191.096 157.918 191.059 158.63C191.016 159.344 190.874 160.054 190.693 160.76C191.007 160.104 191.293 159.422 191.48 158.699C191.664 157.976 191.768 157.22 191.752 156.446C191.732 154.906 191.154 153.279 189.991 152.054C189.417 151.442 188.707 150.933 187.906 150.581C187.106 150.232 186.21 150.047 185.296 150.059C184.382 150.072 183.451 150.29 182.606 150.703C181.761 151.116 181.011 151.708 180.394 152.391L183.097 154.478L183.094 154.473Z" fill="#3A0275"/>
<path d="M211.109 108.671C209.479 109.244 208.247 110.437 207.508 111.741C206.763 113.054 206.415 114.514 206.493 115.956C206.537 116.675 206.697 117.395 207.006 118.054C207.311 118.71 207.778 119.298 208.349 119.711C208.921 120.13 209.581 120.365 210.231 120.459C210.883 120.552 211.528 120.517 212.149 120.426C211.521 120.375 210.901 120.264 210.338 120.044C209.775 119.826 209.278 119.495 208.916 119.072C208.182 118.224 208.009 117.08 208.194 116.02C208.382 114.955 208.9 113.953 209.597 113.217C210.292 112.473 211.161 112.033 211.972 111.972L211.106 108.669L211.109 108.671Z" fill="#3A0275"/>
<path d="M212.218 122.846C210.817 122.111 209.189 121.687 207.564 121.875C206.758 121.967 205.958 122.205 205.248 122.625C204.541 123.042 203.926 123.63 203.519 124.338C203.115 125.048 202.93 125.85 202.944 126.607C202.956 127.37 203.163 128.082 203.458 128.716C204.064 129.989 204.993 130.979 205.988 131.83C205.196 130.79 204.537 129.636 204.266 128.437C204.135 127.842 204.108 127.24 204.223 126.698C204.336 126.156 204.583 125.68 204.92 125.313C205.612 124.582 206.646 124.305 207.637 124.431C208.634 124.549 209.575 125.034 210.359 125.706L212.22 122.846L212.218 122.846Z" fill="#3A0275"/>
<path d="M196.677 133.547C196.53 132.8 196.617 131.99 196.989 131.265C197.357 130.548 198.005 129.937 198.797 129.705C199.581 129.473 200.519 129.692 201.251 130.354C201.986 131.005 202.517 131.952 202.902 132.94C202.751 131.89 202.471 130.813 201.81 129.856C201.479 129.383 201.032 128.955 200.478 128.655C199.926 128.355 199.269 128.201 198.612 128.221C197.29 128.27 196.051 128.956 195.179 129.946C194.299 130.939 193.773 132.27 193.695 133.642L196.682 133.546L196.677 133.547Z" fill="#3A0275"/>
<g opacity="0.3">
<path d="M191.566 135.161L203.88 133.017C217.717 126.902 213.649 98.9535 198.864 95.3537C199.307 97.7512 199.335 99.9152 199.018 101.88L199.02 101.893C199.02 101.893 213.725 117.7 193.708 133.363C192.909 133.988 192.197 134.584 191.566 135.158L191.566 135.161Z" fill="#3A0275"/>
</g>
<g opacity="0.3">
<path d="M174.815 149.316L188.72 159.752C220.313 176.699 249.127 148.802 229.16 124.097C229.01 124.065 228.925 124.049 228.925 124.049C234.886 165.495 189.195 151.454 188.96 137.509L188.126 137.406C186.821 138.361 185.579 139.475 184.419 140.748L174.815 149.314L174.815 149.316Z" fill="#3A0275"/>
</g>
<path d="M214.792 182.312C214.098 202.843 183.257 210.008 171.674 190.407L171.657 190.38C171.118 189.467 170.622 188.495 170.178 187.468C170.073 187.25 169.98 187.025 169.887 186.794C169.831 191.467 170.323 195.681 171.351 199.462C172.016 201.921 172.906 204.192 174.016 206.283C175.368 208.849 177.058 211.142 179.062 213.175C180.913 214.685 182.27 216.214 183.156 217.7C183.177 217.735 183.2 217.773 183.221 217.813L183.222 217.818C183.962 219.088 184.354 220.321 184.402 221.486L184.403 221.491C184.582 225.271 181.202 228.254 174.681 229.008C168.041 229.78 161.409 227.715 156.138 223.609C152.821 221.027 149.87 218.063 147.433 214.574C146.727 213.575 146.068 212.529 145.455 211.437L145.454 211.432C144.918 210.484 144.42 209.496 143.956 208.472L143.95 208.467C142.577 205.437 141.53 202.081 140.854 198.335C140.771 197.89 140.662 197.446 140.509 197.023C140.014 195.542 139.128 194.202 137.885 193.24C137.855 193.222 137.831 193.204 137.808 193.185C135.119 191.152 131.241 191.637 129.133 194.27C129.115 194.294 129.096 194.318 129.072 194.343C128.994 194.444 128.918 194.548 128.844 194.651C128.55 195.07 128.305 195.524 128.105 195.99C127.758 196.796 127.549 197.659 127.468 198.539C127.421 199.027 127.413 199.523 127.45 200.012C128.279 211.715 124.736 220.718 118.864 228.275C114.767 233.554 108.849 237.189 102.223 238.077C93.6431 239.228 89.3996 235.29 91.2308 229.18C91.2361 229.179 91.2355 229.174 91.2355 229.174C91.7294 227.526 92.6663 225.718 94.0785 223.813C98.5112 216.244 99.4228 207.024 96.4719 195.985C96.4411 196.191 96.4099 196.394 96.3811 196.594L96.3828 196.607C95.7066 200.822 94.167 204.378 92.0442 207.274C81.5571 221.61 56.8445 219.906 51.8485 202.701C50.8898 199.407 53.5531 196.225 56.9813 196.359C61.9521 196.556 65.9127 195.177 68.3778 191.465C69.7104 189.462 70.3261 187.067 70.2705 184.664C70.0318 174.513 73.6754 166.147 85.2627 161.444C85.3522 161.406 85.4473 161.37 85.5421 161.331C55.0745 153.315 52.8166 125.197 64.3537 113.443C58.9291 108.909 55.7689 102.245 54.5746 93.7322C51.6703 70.5196 64.8659 39.676 91.752 23.3287C103.822 15.9864 118.408 14.1614 131.915 18.3035C162.001 27.5255 182.389 54.1673 185.293 77.3772C186.232 85.9216 184.812 93.1592 180.671 98.89C194.748 107.438 199.488 135.247 171.934 150.522C184.535 152.15 190.194 159.396 192.484 169.37C193.022 171.713 194.209 173.883 195.994 175.496C197.599 176.945 199.405 177.778 201.388 178.084C203.489 178.414 205.788 178.158 208.244 177.428C208.953 177.218 209.665 177.164 210.351 177.245C212.823 177.547 214.875 179.617 214.784 182.308L214.792 182.312Z" fill="url(#paint0_linear_2021_4696)"/>
<g opacity="0.6">
<path d="M162.686 155.541L172.834 154.271C181.73 156.763 188.685 164.296 194.882 173.796C191.717 161.583 184.861 153.189 172.414 150.589L162.686 155.541Z" fill="white"/>
</g>
<g opacity="0.6">
<path d="M80.8036 164.261C79.9649 164.595 79.161 164.949 78.4022 165.318C78.9463 164.89 79.5222 164.478 80.1349 164.081C80.3523 164.14 80.5756 164.204 80.8033 164.259L80.8036 164.261Z" fill="white"/>
</g>
<g opacity="0.6">
<path d="M171.436 150.587C172.031 150.26 172.613 149.92 173.177 149.583C172.709 149.935 172.228 150.284 171.732 150.628C171.636 150.613 171.535 150.602 171.434 150.588L171.436 150.587Z" fill="white"/>
</g>
<g opacity="0.6">
<path d="M173.179 149.583C193.936 133.871 188.891 109.69 175.936 101.822C180.076 96.0915 181.497 88.8539 180.557 80.3096C177.653 57.097 157.265 30.4552 127.18 21.2359C114.334 17.2992 100.515 18.7535 88.8118 25.2232C89.7747 24.5696 90.7598 23.9428 91.7629 23.33C103.833 15.9877 118.419 14.1628 131.926 18.3049C162.012 27.5269 182.399 54.1686 185.303 77.3786C186.243 85.9229 184.822 93.1605 180.682 98.8913C194.456 107.254 198.803 134.118 173.179 149.583Z" fill="white"/>
</g>
<path d="M184.407 221.483L184.408 221.488C184.587 225.268 181.207 228.251 174.686 229.005C168.046 229.777 161.414 227.712 156.143 223.606C148.59 217.728 142.941 209.875 140.858 198.329C140.776 197.884 140.666 197.44 140.514 197.017C140.511 196.932 140.505 196.884 140.505 196.884C139.506 191.438 138.114 186.405 134.894 183.326C142.798 185.576 149.205 190.577 153.248 199.913C153.489 200.459 153.688 201.018 153.888 201.58C160.227 219.145 180.046 227.039 183.159 217.7C183.166 217.691 183.169 217.677 183.171 217.669C183.171 217.669 183.19 217.717 183.224 217.813L183.225 217.818C183.381 218.251 183.866 219.609 184.405 221.486L184.407 221.483Z" fill="#C9EFF3"/>
<path d="M129.574 183.994C127.211 187.769 127.107 192.992 127.476 198.517L127.478 198.533C127.431 199.02 127.423 199.517 127.46 200.005C128.289 211.708 124.746 220.711 118.874 228.269C114.777 233.547 108.858 237.182 102.233 238.07C93.653 239.222 89.4095 235.283 91.2407 229.173C91.246 229.173 91.2454 229.167 91.2454 229.167L91.2507 229.167C96.5435 237.511 113.843 224.967 115.662 206.36C115.722 205.768 115.775 205.175 115.871 204.586C117.492 194.542 122.472 188.117 129.573 183.989L129.574 183.994Z" fill="#C9EFF3"/>
<path d="M214.792 182.312C214.098 202.843 183.257 210.008 171.674 190.407L171.657 190.38L169.919 186.79C167.458 177.407 163.092 169.846 155.163 165.698C174.391 162.111 177.465 176.349 187.96 186.326C200.328 196.857 213.365 184.873 210.359 177.247C212.831 177.549 214.883 179.619 214.792 182.309L214.792 182.312Z" fill="#C9EFF3"/>
<path d="M51.5354 202.738C57.267 222.465 88.9222 221.811 95.3187 199.961L95.3283 199.93L96.1292 196.022C96.2026 186.323 98.5708 177.919 105.233 171.945C85.7138 173.206 86.2427 187.763 78.5297 200.018C69.1378 213.271 53.5494 204.869 54.5838 196.737C52.2625 197.639 50.7835 200.15 51.535 202.735L51.5354 202.738Z" fill="#C9EFF3"/>
<path d="M175.134 230.888C175.057 230.897 174.983 230.907 174.906 230.916C167.886 231.73 160.803 229.673 154.962 225.124C146.177 218.288 140.945 209.634 138.968 198.673C138.675 197.064 137.889 195.685 136.753 194.785C136.712 194.757 136.673 194.727 136.637 194.697C134.796 193.306 132.1 193.643 130.643 195.466C130.622 195.492 130.596 195.525 130.565 195.559C129.684 196.711 129.261 198.242 129.377 199.873C130.163 210.981 127.225 220.657 120.392 229.446C115.852 235.295 109.494 239.033 102.49 239.974C102.413 239.984 102.336 239.993 102.262 240.003C96.4163 240.734 91.9431 239.242 89.965 235.892C87.9428 232.47 88.8599 227.683 92.4807 222.75C95.5603 217.451 96.7572 211.243 96.0675 204.223C94.5663 207.44 92.4441 210.256 89.7565 212.555C85.559 216.15 80.0841 218.359 74.3418 218.775C64.6853 219.477 53.418 214.945 50.014 203.233C49.3991 201.115 49.8269 198.897 51.194 197.148C52.5913 195.36 54.7879 194.345 57.0666 194.437C61.6828 194.619 64.8646 193.3 66.7906 190.401C67.8694 188.78 68.412 186.811 68.3644 184.709C68.1156 174.069 72.0374 166.505 80.3238 161.718C64.2154 155.895 58.8772 144.864 57.1145 138.458C54.6526 129.52 56.4466 119.993 61.6659 113.588C56.8751 108.913 53.8575 102.333 52.6884 94.0005C51.1642 81.819 53.8635 68.0131 60.2879 55.1009C67.2305 41.1438 77.7722 29.5905 90.7682 21.6855C103.281 14.0724 118.49 12.1695 132.493 16.465C147.036 20.9218 160.099 29.5244 170.267 41.3408C179.674 52.2721 185.691 64.9847 187.212 77.1398C188.135 85.53 186.832 92.6533 183.341 98.3648C189.977 103.286 194.063 112.077 193.879 121.347C193.749 127.989 191.291 139.996 177.116 149.607C186.327 152.206 191.991 158.57 194.371 168.943C194.844 170.995 195.854 172.769 197.296 174.073C199.877 176.407 203.283 176.902 207.715 175.591C209.904 174.943 212.28 175.383 214.075 176.772C215.831 178.13 216.795 180.174 216.718 182.378C216.304 194.568 206.501 201.737 196.969 203.435C191.302 204.449 185.448 203.655 180.497 201.204C177.325 199.636 174.575 197.433 172.328 194.685C173.389 201.658 176.081 207.379 180.369 211.756C185.093 215.646 187.161 220.056 186.045 223.874C184.953 227.607 180.982 230.156 175.14 230.887L175.134 230.888ZM96.241 194.075C96.2807 194.07 96.3205 194.065 96.3606 194.063C97.2716 194.005 98.1001 194.602 98.3342 195.483C101.365 206.813 100.492 216.669 95.7418 224.776C95.706 224.834 95.6702 224.893 95.6288 224.949C92.9569 228.558 92.0768 231.918 93.2694 233.939C94.4341 235.909 97.6801 236.739 101.976 236.166C107.974 235.362 113.437 232.137 117.354 227.091C123.578 219.08 126.256 210.266 125.541 200.143C125.361 197.543 126.079 195.062 127.564 193.156C127.587 193.126 127.611 193.096 127.637 193.068C130.408 189.631 135.472 189.002 138.97 191.648C138.97 191.648 138.958 191.641 138.943 191.63C138.984 191.657 139.026 191.687 139.064 191.717C140.976 193.198 142.283 195.426 142.746 197.987C144.548 207.977 149.315 215.86 157.318 222.091C162.36 226.018 168.447 227.796 174.461 227.1C178.754 226.59 181.71 224.992 182.35 222.796C183.008 220.543 181.325 217.507 177.849 214.665C177.795 214.62 177.743 214.576 177.697 214.525C171.095 207.836 167.824 198.498 167.967 186.773C167.979 185.859 168.633 185.08 169.53 184.911C170.433 184.744 171.322 185.228 171.665 186.073C176.696 198.438 188.077 201.123 196.286 199.654C204.295 198.227 212.53 192.293 212.87 182.251C212.913 180.939 212.164 180.161 211.714 179.813C210.894 179.178 209.801 178.978 208.796 179.276C203.058 180.977 198.315 180.189 194.71 176.925C192.682 175.092 191.265 172.63 190.616 169.806C188.206 159.308 182.195 153.789 171.694 152.432C170.87 152.325 170.211 151.702 170.055 150.887C169.899 150.072 170.283 149.248 171.011 148.847C187.264 139.835 189.904 127.703 190.031 121.273C190.203 112.598 186.139 104.458 179.681 100.535C179.224 100.259 178.903 99.8006 178.797 99.2753C178.691 98.7501 178.808 98.2049 179.123 97.7698C182.859 92.5958 184.296 85.8085 183.391 77.5909C180.71 56.1598 161.974 29.5268 131.362 20.1418C118.406 16.1677 104.334 17.9283 92.7573 24.9719C65.3983 41.6073 53.8043 72.0378 56.4893 93.4981C57.6335 101.653 60.6986 107.88 65.5943 111.974C66.0062 112.318 66.2545 112.818 66.281 113.353C66.3076 113.888 66.1092 114.411 65.7341 114.792C60.4395 120.185 58.5092 129.075 60.8133 137.441C62.5206 143.641 68.0677 154.748 86.0426 159.478C86.8446 159.69 87.4222 160.391 87.472 161.219C87.5218 162.048 87.0335 162.814 86.264 163.12C76.421 167.023 71.9527 173.856 72.2065 184.621C72.2727 187.518 71.5082 190.252 69.992 192.532C67.3027 196.581 62.9031 198.518 56.9199 198.279C55.8697 198.235 54.8643 198.7 54.2235 199.518C53.873 199.966 53.3392 200.908 53.7039 202.165C56.5082 211.817 65.9508 215.539 74.065 214.949C82.3831 214.353 92.7538 208.943 94.5809 195.721C94.7014 194.855 95.3877 194.185 96.2439 194.077L96.241 194.075ZM127.625 193.086C127.625 193.086 127.621 193.092 127.618 193.095C127.621 193.092 127.623 193.089 127.625 193.086ZM127.677 193.026C127.677 193.026 127.677 193.026 127.675 193.029C127.675 193.029 127.675 193.029 127.677 193.026Z" fill="#3A0275"/>
<path d="M85.9041 159.447C88.5155 160.154 91.1136 160.949 93.6565 161.905C96.1966 162.861 98.6891 163.973 101.028 165.339C101.333 165.519 101.436 165.913 101.259 166.218C101.097 166.494 100.763 166.605 100.475 166.493L100.472 166.494C98.0332 165.552 95.5043 164.88 92.9492 164.365C90.3915 163.851 87.8024 163.493 85.2 163.224C84.1415 163.114 83.3713 162.166 83.4838 161.107C83.5937 160.048 84.5421 159.278 85.6005 159.388C85.7016 159.4 85.798 159.417 85.8951 159.44L85.909 159.444L85.9041 159.447Z" fill="#3A0275"/>
<path d="M172.782 152.263C170.327 153.166 167.905 154.15 165.553 155.279C163.204 156.407 160.918 157.679 158.786 159.192L158.784 159.192C158.494 159.398 158.093 159.33 157.89 159.043C157.704 158.784 157.743 158.431 157.964 158.215C159.896 156.312 162.035 154.62 164.262 153.071C166.491 151.521 168.81 150.108 171.17 148.779C172.098 148.256 173.272 148.583 173.795 149.511C174.318 150.439 173.988 151.614 173.063 152.137C172.975 152.185 172.875 152.233 172.783 152.266L172.782 152.263Z" fill="#3A0275"/>
<path d="M155.461 165.133C157.522 166.087 159.468 167.327 161.221 168.818C162.974 170.305 164.532 172.036 165.873 173.912C168.565 177.673 170.409 181.955 171.778 186.304C172.095 187.317 171.533 188.397 170.52 188.715C169.507 189.033 168.427 188.471 168.109 187.458C168.091 187.398 168.075 187.336 168.062 187.278C167.175 183.086 165.854 178.984 163.727 175.306C162.665 173.47 161.397 171.752 159.913 170.223C158.432 168.693 156.733 167.36 154.868 166.266C154.563 166.086 154.46 165.695 154.64 165.39C154.808 165.102 155.167 164.995 155.461 165.133Z" fill="#3A0275"/>
<path d="M106.089 172.371C104.553 173.888 103.232 175.602 102.174 177.449C101.113 179.297 100.307 181.275 99.7306 183.315C98.5755 187.404 98.3036 191.709 98.478 195.987C98.5219 197.048 97.6969 197.943 96.6361 197.986C95.5753 198.03 94.6805 197.205 94.6366 196.144C94.6343 196.083 94.6343 196.018 94.6376 195.959C94.8919 191.406 95.6244 186.802 97.3067 182.493C98.1472 180.344 99.2276 178.284 100.56 176.41C101.89 174.534 103.473 172.852 105.235 171.42C105.509 171.197 105.912 171.238 106.138 171.512C106.347 171.768 106.322 172.143 106.092 172.371L106.089 172.371Z" fill="#3A0275"/>
<path d="M98.4886 183.201C97.2372 182.69 95.9199 182.621 94.6985 183.231C93.4804 183.825 92.444 185.075 91.9494 186.545C91.4511 188.008 91.4745 189.723 92.3134 191.112C92.7258 191.803 93.3439 192.397 94.0836 192.821C94.8239 193.251 95.671 193.522 96.5455 193.69C95.6587 193.682 94.7534 193.569 93.8821 193.255C93.0142 192.947 92.1887 192.417 91.545 191.685C90.8994 190.958 90.446 190.045 90.2099 189.084C89.9709 188.12 89.9356 187.107 90.078 186.114C90.3724 184.141 91.362 182.173 93.1232 180.819C93.9976 180.147 95.063 179.667 96.1863 179.456C97.309 179.24 98.4623 179.29 99.542 179.505L98.4909 183.198L98.4886 183.201Z" fill="#3A0275"/>
<path d="M94.8689 201.81C94.2088 201.462 93.5297 201.156 92.8345 200.937C92.1409 200.73 91.4333 200.606 90.7384 200.604C90.0432 200.599 89.3605 200.717 88.7309 200.979C88.101 201.238 87.5456 201.663 87.1049 202.208C86.202 203.298 85.9282 204.94 86.3197 206.499C86.7 208.075 87.6996 209.522 88.9372 210.719C87.5075 209.772 86.1834 208.508 85.4147 206.819C85.0326 205.981 84.8025 205.046 84.7911 204.073C84.7774 203.102 84.993 202.093 85.4777 201.189C85.9541 200.284 86.6689 199.476 87.5413 198.895C88.4105 198.31 89.4079 197.932 90.4206 197.741C91.4333 197.55 92.4599 197.534 93.4581 197.635C94.4522 197.748 95.4123 197.975 96.3478 198.265L94.8716 201.81L94.8689 201.81Z" fill="#3A0275"/>
<g opacity="0.3">
<path d="M99.0139 181.353C90.5516 178.947 86.97 192.887 96.5455 193.69Z" fill="#3A0275"/>
</g>
<g opacity="0.3">
<path d="M88.9468 210.71L88.9399 210.718L88.9339 210.714C88.9339 210.714 88.9418 210.713 88.9465 210.707L88.9468 210.71Z" fill="#3A0275"/>
</g>
<path d="M71.0096 216.696C71.2034 215.899 71.4111 215.106 71.7201 214.327C71.8573 213.938 72.0461 213.554 72.2194 213.174C72.4228 212.798 72.613 212.425 72.8589 212.065C73.3293 211.35 73.8993 210.675 74.5978 210.125C75.2909 209.575 76.1114 209.16 76.9786 208.968C78.7276 208.571 80.5122 209.148 81.71 210.199C82.9362 211.241 83.6734 212.699 83.9035 214.173C83.399 212.766 82.4259 211.574 81.2156 210.896C80.0192 210.2 78.582 210.097 77.4789 210.599C76.3615 211.094 75.5812 212.11 75.1118 213.286C74.9862 213.574 74.8994 213.891 74.8 214.195C74.7272 214.516 74.639 214.823 74.592 215.158C74.4682 215.803 74.4291 216.481 74.3944 217.151L71.0096 216.696Z" fill="#3A0275"/>
<path d="M57.8135 210.908C58.9845 210.368 60.2093 209.978 61.4801 209.784C62.744 209.599 64.0921 209.592 65.3739 210.067C66.0076 210.311 66.6055 210.699 67.0549 211.214C67.5069 211.728 67.7761 212.351 67.914 212.959C68.1816 214.193 67.9859 215.384 67.7 216.499C67.7473 215.349 67.6613 214.167 67.2059 213.195C66.9815 212.715 66.6689 212.304 66.2808 212.021C65.8904 211.742 65.4444 211.577 64.9695 211.504C64.0111 211.376 62.9852 211.591 62.0242 211.959C61.0609 212.33 60.1447 212.862 59.3285 213.484L57.8135 210.908Z" fill="#3A0275"/>
<path d="M127.362 196.619C126.478 196.485 125.5 196.696 124.744 197.324C123.978 197.934 123.483 198.933 123.466 200.044C123.445 201.162 123.922 202.351 124.684 203.365C125.436 204.399 126.46 205.27 127.557 206.032C126.327 205.518 125.108 204.879 124.059 203.944C123.011 203.031 122.096 201.788 121.773 200.24C121.442 198.712 121.795 196.933 122.858 195.591C123.886 194.227 125.582 193.344 127.354 193.201L127.364 196.616L127.362 196.619Z" fill="#3A0275"/>
<path d="M127.226 209.797C125.914 209.536 124.568 209.497 123.395 209.908C122.233 210.306 121.243 211.173 120.852 212.42C120.428 213.656 120.643 215.158 121.29 216.48C121.929 217.822 122.988 218.987 124.2 219.961C122.834 219.222 121.531 218.254 120.559 216.921C120.075 216.26 119.672 215.514 119.419 214.692C119.16 213.873 119.063 212.973 119.182 212.067C119.297 211.164 119.633 210.255 120.189 209.485C120.735 208.709 121.471 208.067 122.287 207.596C123.932 206.647 125.802 206.378 127.568 206.397L127.228 209.794L127.226 209.797Z" fill="#3A0275"/>
<path d="M122.486 223.307C121.317 222.696 120.057 222.272 118.817 222.301C118.199 222.314 117.589 222.428 117.022 222.674C116.458 222.922 115.939 223.294 115.507 223.779C114.628 224.739 114.18 226.15 114.22 227.588C114.253 229.035 114.773 230.5 115.604 231.785C114.552 230.675 113.713 229.286 113.371 227.692C113.029 226.116 113.191 224.316 114.115 222.79C114.569 222.03 115.197 221.348 115.954 220.828C116.709 220.306 117.584 219.957 118.475 219.764C119.37 219.574 120.288 219.535 121.174 219.618C122.062 219.701 122.923 219.889 123.759 220.14L122.484 223.307L122.486 223.307Z" fill="#3A0275"/>
<g opacity="0.3">
<path d="M127.359 194.913C122.497 194.926 119.57 201.762 127.557 206.035Z" fill="#3A0275"/>
</g>
<g opacity="0.3">
<path d="M127.396 208.099C119.205 207.282 117.119 215.338 124.2 219.963Z" fill="#3A0275"/>
</g>
<g opacity="0.3">
<path d="M123.126 221.724C115.238 218.548 111.083 226.082 115.607 231.787Z" fill="#3A0275"/>
</g>
<path d="M110.643 235.521C110.154 234.685 109.512 233.945 108.711 233.463C107.916 232.984 106.955 232.77 106.007 232.983C105.067 233.195 104.179 233.844 103.603 234.775C103.016 235.702 102.74 236.854 102.673 238.018C102.494 236.866 102.502 235.635 102.93 234.45C103.343 233.276 104.236 232.173 105.489 231.58C106.739 230.98 108.263 230.956 109.595 231.406C110.94 231.849 112.09 232.712 113.018 233.711L110.64 235.521L110.643 235.521Z" fill="#3A0275"/>
<path d="M163.173 171.546C164.166 171.072 165.272 170.74 166.413 170.672C167.551 170.6 168.705 170.805 169.718 171.239C171.758 172.117 173.202 173.781 173.973 175.62C174.356 176.547 174.571 177.538 174.577 178.531C174.585 179.521 174.371 180.517 173.924 181.38C173.481 182.249 172.811 182.966 172.046 183.479C171.279 183.997 170.429 184.327 169.572 184.556C170.378 184.177 171.132 183.706 171.744 183.107C172.356 182.511 172.809 181.786 173.038 181.015C173.509 179.461 173.109 177.794 172.266 176.499C171.422 175.196 170.11 174.243 168.785 173.965C167.451 173.674 166.191 174.066 165.104 174.869L163.176 171.548L163.173 171.546Z" fill="#3A0275"/>
<path d="M170.887 188.936C171.722 188.425 172.597 187.968 173.533 187.614C174.472 187.27 175.471 187.032 176.503 186.968C177.528 186.904 178.588 187.025 179.577 187.377C180.566 187.725 181.458 188.332 182.143 189.092C182.835 189.851 183.293 190.774 183.518 191.718C183.75 192.663 183.755 193.627 183.591 194.533C183.262 196.359 182.29 197.911 181.138 199.18C182.043 197.718 182.654 196.066 182.635 194.445C182.628 192.839 181.958 191.315 180.817 190.48C180.255 190.061 179.612 189.786 178.938 189.69C178.266 189.591 177.573 189.645 176.9 189.821C176.227 189.996 175.572 190.289 174.95 190.66C174.331 191.044 173.748 191.505 173.194 192.008L170.89 188.936L170.887 188.936Z" fill="#3A0275"/>
<path d="M196.817 201.834C196.619 201.193 196.414 200.546 196.135 199.951C196.01 199.641 195.846 199.365 195.696 199.069C195.527 198.796 195.365 198.512 195.17 198.265C194.425 197.24 193.419 196.448 192.214 196.244C191.018 196.03 189.653 196.483 188.663 197.453C187.659 198.405 187.007 199.803 186.868 201.291C186.728 199.806 187.083 198.213 188.014 196.898C188.916 195.585 190.504 194.586 192.297 194.54C193.182 194.512 194.082 194.712 194.889 195.074C195.699 195.436 196.42 195.949 197.05 196.527C197.374 196.812 197.653 197.127 197.943 197.444C198.202 197.77 198.482 198.095 198.708 198.439C199.2 199.118 199.596 199.835 199.98 200.56L196.812 201.834L196.817 201.834Z" fill="#3A0275"/>
<path d="M210.515 194.568C209.568 194.166 208.552 193.876 207.527 193.754C206.505 193.634 205.458 193.679 204.56 194.039C204.121 194.226 203.726 194.496 203.417 194.863C203.11 195.23 202.909 195.708 202.81 196.229C202.608 197.283 202.816 198.45 203.145 199.553C202.593 198.542 202.107 197.437 202.065 196.174C202.046 195.549 202.156 194.878 202.468 194.271C202.777 193.662 203.26 193.138 203.814 192.746C204.94 191.972 206.248 191.647 207.518 191.512C208.798 191.387 210.081 191.464 211.349 191.698L210.515 194.568Z" fill="#3A0275"/>
<path d="M140.004 193.33C141.255 192.87 142.775 192.903 144.066 193.598C145.371 194.258 146.387 195.585 146.73 197.12C147.087 198.661 146.785 200.288 146.178 201.68C145.577 203.096 144.68 204.315 143.703 205.42L141.401 202.9C142.365 202.195 143.267 201.396 143.928 200.462C144.599 199.538 145.049 198.467 145.041 197.35C145.04 196.246 144.549 195.091 143.6 194.313C142.674 193.513 141.333 193.148 140.007 193.333L140.004 193.33Z" fill="#3A0275"/>
<path d="M143.36 206.101C144.768 205.457 146.352 205.008 148.021 205.195C148.848 205.291 149.684 205.555 150.436 206.016C151.193 206.47 151.837 207.141 152.299 207.926C152.763 208.711 153.05 209.606 153.142 210.513C153.242 211.421 153.171 212.338 152.974 213.218C152.588 214.99 151.701 216.576 150.636 217.967L148.123 215.656C149.133 214.749 150.015 213.686 150.527 212.469C151.045 211.268 151.218 209.9 150.767 208.678C150.351 207.443 149.246 206.447 147.851 206.032C146.453 205.599 144.863 205.719 143.36 206.101Z" fill="#3A0275"/>
<g opacity="0.3">
<path d="M140.004 193.33C144.719 192.145 149.24 198.05 142.552 204.159Z" fill="#3A0275"/>
</g>
<g opacity="0.3">
<path d="M143.36 206.101C151.097 203.292 155.103 210.585 149.38 216.813Z" fill="#3A0275"/>
</g>
<path d="M150.901 218.599C152.053 217.601 153.411 216.731 155.021 216.403C155.819 216.239 156.671 216.21 157.513 216.374C158.353 216.541 159.175 216.896 159.894 217.412C161.353 218.441 162.311 220.114 162.668 221.874C163.038 223.645 162.818 225.506 162.225 227.196L159.11 225.798C159.748 224.703 160.144 223.458 160.129 222.194C160.114 220.939 159.689 219.651 158.789 218.713C158.345 218.244 157.793 217.861 157.164 217.605C156.537 217.353 155.833 217.239 155.119 217.25C153.675 217.266 152.218 217.826 150.901 218.596L150.901 218.599Z" fill="#3A0275"/>
<g opacity="0.3">
<path d="M184.407 221.483L184.408 221.488C184.587 225.268 181.207 228.251 174.686 229.005C169.84 229.568 164.993 228.618 160.682 226.465C160.631 226.442 160.576 226.414 160.527 226.39L150.902 218.602C151.745 217.984 152.57 217.537 153.368 217.243C156.368 216.127 158.954 217.134 160.35 219.186C168.768 220.314 173.327 215.193 171.354 199.465C172.019 201.923 172.909 204.195 174.019 206.285C175.371 208.852 177.061 211.144 179.065 213.177C180.916 214.687 182.273 216.217 183.159 217.703C183.179 217.738 183.203 217.775 183.224 217.816L183.225 217.821C183.965 219.091 184.357 220.323 184.405 221.488L184.407 221.483Z" fill="#3A0275"/>
</g>
<g opacity="0.3">
<path d="M160.682 226.465C160.682 226.465 160.671 226.488 160.665 226.502L160.527 226.39C160.579 226.414 160.633 226.442 160.682 226.465Z" fill="#3A0275"/>
</g>
<path d="M164.879 228.331C165.227 227.219 165.795 226.122 166.708 225.262C167.608 224.403 168.885 223.807 170.274 223.827C171.66 223.84 173.05 224.492 174.037 225.5C175.041 226.508 175.667 227.789 176.059 229.086L173.126 229.661C173.052 228.684 172.817 227.728 172.319 226.937C171.828 226.151 171.065 225.541 170.123 225.314C169.185 225.086 168.1 225.284 167.167 225.853C166.228 226.415 165.457 227.314 164.882 228.331L164.879 228.331Z" fill="#3A0275"/>
<path d="M74.7067 112.369C75.6695 110.509 77.1864 108.946 78.9688 107.762C80.7505 106.572 82.8272 105.782 84.9736 105.462C87.1189 105.134 89.3287 105.278 91.38 105.856C93.4297 106.442 95.328 107.433 96.8757 108.806C97.1481 109.047 97.1734 109.464 96.9302 109.736C96.7675 109.921 96.5232 109.992 96.2992 109.944L96.2797 109.939C94.3626 109.53 92.5624 109.173 90.7829 109.046C89.0096 108.904 87.2698 108.966 85.5682 109.246C83.8669 109.529 82.2051 110.02 80.5658 110.691C78.9242 111.364 77.3313 112.234 75.6496 113.234L75.6344 113.241C75.3186 113.428 74.9126 113.326 74.725 113.01C74.6027 112.807 74.6044 112.562 74.7064 112.366L74.7067 112.369Z" fill="#3A0275"/>
<path d="M170.16 101.411C168.284 100.857 166.526 100.407 164.769 100.158C163.015 99.9117 161.283 99.843 159.565 99.9907C157.846 100.138 156.145 100.507 154.461 101.082C152.765 101.644 151.111 102.43 149.354 103.301L149.336 103.309C149.009 103.471 148.615 103.337 148.453 103.01C148.345 102.789 148.37 102.538 148.5 102.347C149.662 100.637 151.257 99.2099 153.099 98.134C154.945 97.0684 157.051 96.3848 159.211 96.1738C161.37 95.9548 163.577 96.2064 165.597 96.923C167.614 97.6319 169.469 98.773 170.863 100.338C171.107 100.612 171.082 101.032 170.808 101.274C170.631 101.431 170.392 101.477 170.179 101.414L170.162 101.408L170.16 101.411Z" fill="#3A0275"/>
<path d="M168.149 112.282C168.586 115.779 166.266 118.948 163.051 121.596C160.581 123.628 157.334 124.559 154.202 123.906C151.899 123.427 150.107 122.189 150.575 119.858C150.575 119.858 159.778 112.072 159.938 111.972C160.098 111.868 162.298 108.75 168.149 112.282Z" fill="#3A0275"/>
<path d="M156.222 121.265C157.576 121.096 158.546 119.932 158.387 118.665C158.229 117.399 157.003 116.51 155.648 116.679C154.294 116.849 153.324 118.013 153.483 119.279C153.641 120.546 154.868 121.435 156.222 121.265Z" fill="white"/>
<path d="M141.355 119.789C143.085 120.278 144.757 120.444 146.257 120.081C147.01 119.9 147.731 119.619 148.42 119.231C148.77 119.056 149.108 118.828 149.444 118.61C149.775 118.37 150.105 118.129 150.398 117.885L150.626 117.706C150.702 117.648 150.79 117.553 150.872 117.481C151.041 117.325 151.207 117.165 151.377 117.014L152.401 116.095C153.089 115.489 153.785 114.893 154.49 114.306C155.899 113.134 157.312 111.964 158.699 110.764C158.743 110.726 158.79 110.691 158.837 110.658L158.845 110.657C160.025 109.825 161.444 109.268 162.907 109.101C164.369 108.932 165.857 109.139 167.173 109.693C168.489 110.242 169.658 111.084 170.555 112.146C171.429 113.216 172.006 114.571 171.901 115.976C171.872 116.367 171.532 116.66 171.14 116.631C170.994 116.62 170.86 116.566 170.753 116.48L170.711 116.448C169.741 115.686 168.99 115.066 168.215 114.49C167.461 113.906 166.654 113.423 165.807 113.103C164.962 112.784 164.087 112.591 163.226 112.637C162.363 112.675 161.529 112.96 160.792 113.459L160.937 113.346C159.537 114.558 158.167 115.804 156.79 117.042C156.1 117.662 155.403 118.271 154.7 118.874L153.635 119.763C153.457 119.912 153.276 120.056 153.095 120.2C152.999 120.274 152.924 120.342 152.812 120.418L152.48 120.643C152.04 120.959 151.586 121.205 151.138 121.455C150.672 121.688 150.205 121.921 149.709 122.105C148.721 122.47 147.66 122.727 146.579 122.765C146.311 122.777 146.043 122.781 145.774 122.761L145.372 122.739L144.975 122.686C144.71 122.655 144.452 122.595 144.2 122.533C143.943 122.481 143.695 122.396 143.449 122.322C142.47 121.987 141.577 121.52 140.791 120.942C140.501 120.731 140.439 120.324 140.65 120.034C140.816 119.808 141.099 119.722 141.353 119.792L141.355 119.789Z" fill="#3A0275"/>
<path d="M79.8107 123.335C80.2482 126.832 83.2777 129.331 87.0457 131.105C89.9409 132.466 93.3167 132.569 96.1916 131.164C98.3054 130.133 99.7372 128.491 98.7096 126.347C98.7096 126.347 87.8714 121.069 87.6918 121.011C87.5118 120.95 84.6112 118.469 79.8107 123.335Z" fill="#3A0275"/>
<path d="M93.5804 129.103C94.9347 128.933 95.9041 127.769 95.7457 126.503C95.5872 125.236 94.3609 124.347 93.0065 124.517C91.6522 124.686 90.6828 125.85 90.8412 127.117C90.9997 128.383 92.226 129.272 93.5804 129.103Z" fill="white"/>
<path d="M108.456 124.985C107.834 125.739 107.086 126.411 106.22 126.978C106 127.113 105.78 127.253 105.544 127.366C105.312 127.49 105.076 127.608 104.83 127.706L104.458 127.855L104.075 127.976C103.819 128.061 103.56 128.123 103.295 128.178C102.241 128.407 101.15 128.42 100.099 128.309C99.5697 128.251 99.0634 128.142 98.554 128.031C98.0582 127.899 97.5578 127.773 97.0538 127.575L96.676 127.439C96.5491 127.393 96.4596 127.345 96.3486 127.297C96.1371 127.2 95.9264 127.108 95.7172 127.007L94.4655 126.407C93.636 125.997 92.8082 125.578 91.9896 125.147C90.3498 124.286 88.7143 123.417 87.0596 122.587L87.2276 122.66C86.3902 122.358 85.5117 122.288 84.6666 122.464C83.8206 122.631 83.0201 123.033 82.2798 123.551C81.5369 124.07 80.8745 124.737 80.2874 125.489C79.6784 126.238 79.1035 127.023 78.3507 128.001L78.3183 128.043C78.0797 128.352 77.632 128.411 77.3221 128.173C77.2058 128.082 77.1239 127.966 77.0809 127.837C76.631 126.501 76.8555 125.046 77.4419 123.793C78.0502 122.543 78.9756 121.439 80.1152 120.583C81.2544 119.724 82.6451 119.154 84.1042 118.958C85.5633 118.762 87.0761 118.953 88.4242 119.462L88.4295 119.462C88.4835 119.485 88.5405 119.51 88.5922 119.536C90.2324 120.356 91.8897 121.143 93.5447 121.932C94.3726 122.329 95.1935 122.735 96.0101 123.15L97.229 123.789C97.4335 123.895 97.6333 124.008 97.8328 124.117C97.9309 124.17 98.0389 124.237 98.1271 124.274L98.3922 124.392C98.7355 124.554 99.1157 124.708 99.4955 124.86C99.8749 124.987 100.258 125.122 100.64 125.209C101.404 125.415 102.175 125.51 102.947 125.5C104.492 125.481 106.069 124.91 107.626 124.01C107.937 123.828 108.335 123.934 108.514 124.246C108.655 124.487 108.619 124.782 108.453 124.986L108.456 124.985Z" fill="#3A0275"/>
<path d="M138.929 131.606C132.514 137.573 119.357 138.88 112.773 135.065C111.957 134.593 110.955 135.279 111.062 136.216C113.475 157.373 143.747 153.023 140.864 132.307C140.734 131.375 139.619 130.968 138.932 131.609L138.929 131.606Z" fill="white"/>
<path d="M127.966 151.691C124.978 152.065 121.907 151.685 119.126 150.503C113.6 148.155 110.133 143.149 109.363 136.409C109.24 135.321 109.734 134.274 110.65 133.674C111.556 133.082 112.696 133.049 113.625 133.59C119.237 136.841 131.726 135.97 137.763 130.357C138.547 129.629 139.66 129.398 140.666 129.757C141.681 130.118 142.4 131.005 142.55 132.071C143.47 138.677 141.246 144.572 136.45 148.247C133.971 150.146 131.009 151.31 127.963 151.691L127.966 151.691ZM112.904 137.062C113.74 141.998 116.397 145.632 120.461 147.361C124.966 149.274 130.428 148.559 134.377 145.534C137.981 142.772 139.703 138.548 139.284 133.557C132.636 138.961 120.298 140.593 112.902 137.063L112.904 137.062Z" fill="#3A0275"/>
<path d="M112.718 138.303C113.961 139.719 115.345 140.99 116.948 141.917C118.54 142.852 120.368 143.39 122.281 143.444L122.284 143.444C122.595 143.454 122.84 143.711 122.83 144.022C122.822 144.303 122.608 144.529 122.338 144.563C121.304 144.692 120.239 144.701 119.18 144.567C118.122 144.436 117.072 144.163 116.071 143.777C114.06 143.003 112.255 141.796 110.638 140.45L110.632 140.443C109.995 139.914 109.909 138.969 110.441 138.332C110.97 137.695 111.915 137.611 112.552 138.14C112.612 138.189 112.671 138.249 112.72 138.302L112.718 138.303Z" fill="#3A0275"/>
<path d="M142.557 136.457C141.322 138.162 139.868 139.774 138.112 141.019C137.236 141.641 136.287 142.166 135.293 142.551C134.3 142.942 133.265 143.195 132.232 143.325C131.924 143.363 131.644 143.145 131.605 142.838C131.57 142.559 131.746 142.303 132.008 142.227L132.011 142.227C133.852 141.703 135.491 140.731 136.804 139.433C138.126 138.139 139.157 136.567 140.013 134.888C140.389 134.151 141.292 133.855 142.028 134.231C142.767 134.608 143.061 135.511 142.684 136.247C142.65 136.316 142.609 136.38 142.568 136.439L142.557 136.454L142.557 136.457Z" fill="#3A0275"/>
<g opacity="0.3">
<path d="M115.886 161.905C114.023 161.174 112.232 160.442 110.509 159.707C110.517 159.712 110.526 159.716 110.537 159.717C70.9501 143.612 65.2244 126.644 80.3568 108.913C67.6958 67.7822 76.3009 42.1064 98.8993 23.7914C98.8993 23.7914 98.8993 23.7914 98.8967 23.7918C54.8983 47.4256 49.5045 95.1312 67.3188 114.674C60.5937 124.108 60.1793 137.086 67.4612 149.234C70.4118 154.159 74.9541 157.387 79.9756 159.688C86.5608 162.2 93.5774 163.447 98.7439 165.014C108.746 168.046 115.962 161.842 115.962 161.842C115.962 161.842 115.935 161.864 115.886 161.905Z" fill="#3A0275"/>
</g>
<g opacity="0.3">
<path d="M118.874 228.269C114.777 233.547 108.859 237.182 102.233 238.07C93.6531 239.222 89.4096 235.283 91.2408 229.173C91.2461 229.173 91.2455 229.167 91.2455 229.167C91.7394 227.52 92.6763 225.712 94.0885 223.806C98.5212 216.238 99.4328 207.017 96.4819 195.978C96.4511 196.184 96.4199 196.387 96.3911 196.587C96.0349 184.766 104.125 173.005 104.125 173.005L109.99 169.915C110.602 169.594 111.258 170.257 110.93 170.866C108.526 175.362 103.777 186.624 107.524 200.176C110.568 211.182 107.961 218.061 105.567 221.681C102.844 225.799 106.272 231.251 111.171 230.614C113.206 230.351 115.736 229.633 118.877 228.266L118.874 228.269Z" fill="#3A0275"/>
</g>
<g opacity="0.3">
<path d="M73.4547 204.153C75.7677 206.693 79.9561 209.503 86.8628 208.558C83.0495 203.152 87.5891 196.695 95.6087 200.04L90.8469 207.669C91.2409 207.547 91.6442 207.413 92.0521 207.273C91.1237 208.547 90.0796 209.693 88.9471 210.712C88.9424 210.718 88.9401 210.721 88.9345 210.719C77.3196 221.184 56.4079 218.375 51.8568 202.703C50.898 199.409 53.5614 196.227 56.9896 196.361C61.9604 196.557 65.9209 195.179 68.386 191.467C69.7186 189.464 70.3344 187.069 70.2788 184.666C70.04 174.515 73.6836 166.148 85.271 161.446L99.8508 165.317C99.8508 165.317 83.0768 163.535 81.431 179.433C80.3625 189.767 76.3133 195.602 73.6068 198.417C72.0777 200.012 71.9686 202.519 73.4521 204.153L73.4547 204.153Z" fill="#3A0275"/>
</g>
<g opacity="0.3">
<path d="M160.58 169.528C162.357 171.352 163.872 173.284 165.156 175.307C163.633 173.484 162.109 171.547 160.58 169.528Z" fill="#3A0275"/>
</g>
<g opacity="0.3">
<path d="M214.792 182.312C214.098 202.843 183.257 210.008 171.674 190.407L171.657 190.38C171.118 189.467 170.622 188.495 170.178 187.468C169.844 186.064 169.448 184.687 168.986 183.339L164.134 173.206C170.771 169.351 176.875 178.477 172.292 182.947C182.409 192.279 192.247 194.099 201.396 178.089C203.497 178.418 205.797 178.163 208.253 177.433C208.962 177.223 209.674 177.169 210.36 177.25C212.832 177.552 214.884 179.621 214.792 182.312Z" fill="#3A0275"/>
</g>
<g opacity="0.3">
<path d="M151.677 56.0604C148.704 60.6839 140.775 56.2936 131.39 50.2598C122.006 44.226 114.72 38.8316 117.693 34.208C120.666 29.5845 130.683 30.7277 140.068 36.7615C149.452 42.7952 154.65 51.4342 151.677 56.0577L151.677 56.0604Z" fill="white"/>
</g>
<g opacity="0.3">
<path d="M167.984 63.7888C169.345 67.87 167.784 72.0665 164.499 73.1641C161.214 74.2617 158.828 71.3802 157.467 67.299C156.105 63.2178 156.282 59.4828 159.567 58.3878C162.854 57.2899 166.62 59.7106 167.984 63.7914L167.984 63.7888Z" fill="white"/>
</g>
<g opacity="0.3">
<path d="M156.702 172.466C159.727 175.491 160.552 179.569 158.544 181.576C156.536 183.583 154.618 180.6 151.592 177.575C148.567 174.55 145.584 172.632 147.589 170.623C149.597 168.616 153.674 169.439 156.699 172.464L156.702 172.466Z" fill="white"/>
</g>
<g opacity="0.3">
<path d="M161.446 183.763C162.849 183.488 164.275 184.723 164.626 186.518C164.977 188.313 164.124 189.992 162.718 190.268C161.314 190.543 160.588 189.172 160.239 187.376C159.888 185.581 160.043 184.038 161.449 183.765L161.446 183.763Z" fill="white"/>
</g>
<g opacity="0.3">
<path d="M178.771 144.5C164.727 152.463 150.897 158.634 137.618 160.209C143.008 160.587 148.043 161.169 151.758 162.503C153.168 163.008 154.741 162.668 155.845 161.655L161.982 156.006L178.772 144.503L178.771 144.5Z" fill="#3A0275"/>
</g>
</g>
<defs>
<filter id="filter0_d_2021_4696" x="-1.96387" y="0.943054" width="253.928" height="256.145" filterUnits="userSpaceOnUse" color-interpolation-filters="sRGB">
<feFlood flood-opacity="0" result="BackgroundImageFix"/>
<feColorMatrix in="SourceAlpha" type="matrix" values="0 0 0 0 0 0 0 0 0 0 0 0 0 0 0 0 0 0 127 0" result="hardAlpha"/>
<feOffset dy="4"/>
<feGaussianBlur stdDeviation="2"/>
<feComposite in2="hardAlpha" operator="out"/>
<feColorMatrix type="matrix" values="0 0 0 0 0 0 0 0 0 0 0 0 0 0 0 0 0 0 0.25 0"/>
<feBlend mode="normal" in2="BackgroundImageFix" result="effect1_dropShadow_2021_4696"/>
<feBlend mode="normal" in="SourceGraphic" in2="effect1_dropShadow_2021_4696" result="shape"/>
</filter>
<linearGradient id="paint0_linear_2021_4696" x1="111.306" y1="16.5095" x2="138.46" y2="233.54" gradientUnits="userSpaceOnUse">
<stop stop-color="#8303A2"/>
<stop offset="0.04" stop-color="#9C1AB8"/>
<stop offset="0.09" stop-color="#B835D1"/>
<stop offset="0.15" stop-color="#CE49E5"/>
<stop offset="0.21" stop-color="#DE58F4"/>
<stop offset="0.28" stop-color="#E861FC"/>
<stop offset="0.38" stop-color="#EB64FF"/>
<stop offset="0.56" stop-color="#E861FC"/>
<stop offset="0.69" stop-color="#DF59F4"/>
<stop offset="0.79" stop-color="#D04BE7"/>
<stop offset="0.89" stop-color="#BB37D4"/>
<stop offset="0.97" stop-color="#9F1EBB"/>
<stop offset="1" stop-color="#9615B3"/>
</linearGradient>
</defs>
</svg>
