<svg width="251" height="251" viewBox="0 0 251 251" fill="none" xmlns="http://www.w3.org/2000/svg">
<g filter="url(#filter0_d_2021_4820)">
<path d="M231.444 126.257C231.405 126.233 231.387 126.223 231.387 126.223C230.096 125.422 228.362 125.332 226.934 126.42C226.089 127.068 225.319 127.758 224.728 128.473C223.043 130.523 218.329 133.172 212.284 134.175H212.282C209.555 134.637 206.556 134.756 203.441 134.333H203.438C202.368 134.191 201.284 133.981 200.19 133.701C200.193 133.693 200.198 133.69 200.201 133.683C200.224 133.652 200.247 133.618 200.271 133.587C213.228 115.239 215.319 97.7197 210.346 84.3895C207.627 77.0932 202.79 71.054 196.461 66.811C194.543 65.5202 192.485 64.4005 190.307 63.4597C190.087 63.3638 189.862 63.2938 189.636 63.2316H189.634C188.747 62.9957 187.855 63.0346 187.052 63.2938C185.077 63.9288 183.607 65.8624 183.898 68.1977C184.188 70.5304 185.103 72.9902 187.342 74.7138C196.479 81.7431 195.312 94.0522 189.535 103.567C188.519 105.241 187.366 106.825 186.098 108.279C186.096 108.287 186.09 108.29 186.088 108.29C183.929 110.765 181.453 112.864 178.804 114.373C177.521 115.106 176.2 115.697 174.857 116.125C169.546 117.818 163.885 116.97 158.932 112.071C185.02 77.7152 165.171 38.0225 135.812 23.8602C124.623 18.4638 111.64 16.5847 99.4086 18.6997C97.9286 18.9563 96.4564 19.2699 95.0023 19.6458C91.047 20.6566 87.2032 22.1185 83.5642 24.0313C83.5564 24.0339 83.5538 24.0391 83.5486 24.0391H83.5408C66.9473 32.7687 54.6305 50.9925 55.2215 80.2994C47.2642 90.1669 42.2722 100.757 60.4831 116.975C60.7267 117.193 60.9781 117.413 61.2347 117.633C62.9713 119.145 64.1169 121.213 64.4461 123.473C64.4876 123.74 64.5187 124.012 64.5342 124.287C65.374 138.296 57.7304 150.331 48.0755 147.544C45.9087 146.92 44.0295 145.577 42.5651 143.859C36.4015 136.637 32.6536 123.776 25.7539 119.58C24.4527 118.789 23.0375 118.305 21.472 118.227C20.8759 118.196 20.2979 118.284 19.7665 118.471C17.9833 119.098 16.6899 120.814 16.7417 122.815C16.7988 125.023 17.8226 128.172 21.2206 132.439C21.2206 132.439 24.6808 136.951 25.3055 150.629C25.4921 154.755 26.4977 158.785 28.2628 162.443C29.7973 165.651 31.9175 168.58 34.5742 171.04C41.5335 177.484 51.2221 180.49 61.8075 175.737C61.7816 177.551 61.8723 179.314 62.0823 181.022V181.045C63.8059 195.303 73.3261 205.904 85.5185 212.708C103.138 222.536 126.344 224.436 139.664 217.977C143.088 216.316 143.725 211.985 141.527 209.315C141.087 208.776 140.527 208.304 139.853 207.936C137.106 206.438 133.192 204.805 127.629 203.291C125.349 202.672 122.79 202.068 119.924 201.506C103.683 197.872 93.5068 188.416 89.9014 172.652C89.8988 172.644 89.8988 172.642 89.8988 172.642C99.1157 185.97 113.812 193.452 132.323 196.858C134.107 197.086 135.838 197.439 137.528 197.913C142.44 199.282 146.965 201.653 151.154 204.911C158.38 210.525 164.596 218.765 170.033 229.014C172.216 233.124 178.255 232.562 179.704 228.143C180.513 225.678 180.824 222.84 180.684 219.763C180.274 210.772 176.023 199.766 169.144 190.301C168.276 189.101 167.361 187.929 166.412 186.786C167.198 187.592 168.035 188.354 168.924 189.08C169.01 189.15 169.098 189.222 169.188 189.292C169.603 189.627 170.033 189.951 170.471 190.27L170.479 190.277C181.298 198.115 197.925 200.575 210.296 196.394H210.299C212.642 195.601 214.832 194.57 216.799 193.292C220.83 190.677 220.019 184.578 215.47 183.036C213.573 182.393 211.416 181.83 209.109 181.524C202.295 180.622 195.797 178.088 190.323 173.928C186.998 171.398 183.701 168.57 180.951 165.587C180.458 165.061 179.986 164.524 179.535 163.99V163.982C177.983 162.145 176.669 160.258 175.705 158.36C175.5 157.959 175.311 157.552 175.134 157.147C203.438 165.4 228.466 153.026 233.17 130.337C233.536 128.59 232.714 127.078 231.441 126.259L231.444 126.257ZM143.365 170.509C134.871 167.919 127.837 163.07 122.928 154.913C135.423 155.999 145.734 164.2 154.897 176.162C151.309 173.702 147.442 171.753 143.365 170.509Z" fill="url(#paint0_linear_2021_4820)"/>
<g opacity="0.6">
<path d="M178.688 115.298L178.799 114.373C181.448 112.867 183.926 110.765 186.083 108.29C186.085 108.29 186.09 108.287 186.093 108.279C187.36 106.825 188.514 105.242 189.53 103.567C195.307 94.0522 196.474 81.7431 187.337 74.7138C185.098 72.9902 184.183 70.5304 183.892 68.1977C183.602 65.8624 185.069 63.9288 187.047 63.2938C188.485 63.2679 189.631 63.2316 189.631 63.2316C189.631 63.2316 184.367 66.5492 189.208 71.8394C194.053 77.1347 209.786 93.088 178.685 115.298H178.688Z" fill="white"/>
</g>
<g opacity="0.6">
<path d="M46.3338 150.821C46.3338 150.821 38.5606 147.555 33.1383 134.284C27.8845 121.428 23.4471 119.303 23.1724 119.178L25.7565 119.585C32.6562 123.782 36.4041 136.64 42.5677 143.864C44.0322 145.58 45.9113 146.925 48.0782 147.549C57.7331 150.336 65.3767 138.302 64.5369 124.292C64.5213 124.017 64.4902 123.745 64.4488 123.478H64.4514C70.7316 142.97 59.5915 155.463 46.3338 150.823V150.821Z" fill="white"/>
</g>
<g opacity="0.6">
<path d="M59.2597 81.5902C48.695 94.2828 52.22 105.822 60.4831 116.975C42.2722 100.757 47.2643 90.1669 55.2215 80.2994C54.6279 50.9925 66.9448 32.7687 83.5409 24.0417H83.5435L83.546 24.0391C83.5486 24.0391 83.5538 24.0365 83.5616 24.0313C87.2007 22.1185 91.0445 20.6566 94.9998 19.6458C74.1425 26.7476 62.0823 42.4599 59.2571 81.5902H59.2597Z" fill="white"/>
</g>
<g opacity="0.6">
<path d="M104.58 219.761C63.9848 206.889 55.6854 167.051 78.2741 136.319L74.5702 138.042L72.6548 140.258C49.7862 170.68 62.0823 212.13 104.58 219.763V219.761Z" fill="white"/>
</g>
<path d="M141.53 209.315C139.996 214.437 123.153 210.997 123.153 210.997C87.2525 209.188 70.5812 172.318 85.0546 149.006C85.179 157.86 86.6616 165.823 89.8989 172.639C89.8989 172.639 89.8989 172.642 89.9015 172.65C93.5094 188.414 103.683 197.869 119.924 201.503C129.783 203.444 135.981 205.819 139.853 207.934C140.527 208.302 141.084 208.773 141.527 209.312L141.53 209.315Z" fill="white"/>
<path d="M79.9899 106.693C76.7241 118.009 66.5534 111.327 63.9381 97.2817L63.9848 97.1702C65.3015 97.5305 66.7011 98.4455 67.9089 99.9954C72.9736 104.63 77.4394 107.284 79.9899 106.696V106.693Z" fill="white"/>
<path d="M103.416 96.5923C104.224 95.7706 104.999 94.7546 105.697 93.5545C106.189 92.7095 106.684 91.8646 107.218 91.0404C113.123 81.9505 120.03 72.8761 126.66 69.0453C132.469 86.6652 115.673 100.962 103.413 96.5923H103.416Z" fill="white"/>
<path d="M233.173 130.331C228.468 153.021 203.441 165.395 175.137 157.142C175.311 157.544 175.502 157.951 175.707 158.355L163.564 140.528C192.765 155.688 225.33 145.258 231.387 126.221C231.387 126.221 231.405 126.231 231.444 126.254C232.714 127.071 233.536 128.582 233.173 130.331Z" fill="white"/>
<path d="M200.271 133.587L186.806 130.409C202.839 119.948 212.137 82.2693 196.453 66.811H196.455C214.355 78.809 220.312 105.2 200.268 133.587H200.271Z" fill="white"/>
<path d="M62.0823 181.024C61.8723 179.316 61.779 177.554 61.8075 175.739C51.2221 180.493 41.5335 177.486 34.5742 171.043C28.8875 165.773 25.6579 158.373 25.3054 150.631C24.6808 136.954 21.2206 132.441 21.2206 132.441C17.8225 128.175 16.7987 125.026 16.7417 122.817C16.6925 120.819 17.9858 119.101 19.7665 118.473H19.7743C19.7743 118.473 16.7339 121.042 21.2517 125.303C25.772 129.564 29.2607 134.408 30.8107 142.417C32.3607 150.427 37.0261 171.162 61.792 166.955L62.0823 181.024Z" fill="white"/>
<path d="M147.434 152.881C132.518 142.031 116.826 143.454 116.826 143.454C116.907 143.848 117 144.232 117.101 144.613L116.953 144.356C116.953 144.356 109.336 152.365 118.763 164.117C139.879 187.17 168.162 183.295 180.681 219.763H180.684C180.222 209.629 174.888 196.946 166.415 186.783C176.697 197.322 196.246 201.143 210.296 196.392H210.299C179.403 198.826 158.341 160.818 147.432 152.881H147.434ZM143.365 170.509C134.871 167.919 127.837 163.07 122.928 154.913C135.423 155.999 145.734 164.2 154.897 176.162C151.309 173.702 147.442 171.753 143.365 170.509Z" fill="white"/>
<path d="M174.632 233.539C172.042 233.539 169.73 232.158 168.494 229.828C158.313 210.647 146.408 200.427 132.101 198.585C132.07 198.582 132.038 198.577 132.007 198.569C115.818 195.593 103.473 189.79 94.5592 180.926C99.2635 190.783 107.75 196.988 120.284 199.798C128.897 201.493 135.763 203.717 140.69 206.404C143.14 207.739 144.617 210.308 144.55 213.107C144.482 215.878 142.901 218.345 140.423 219.545C134.908 222.22 127.967 223.503 120.512 223.503C107.485 223.503 92.8822 219.589 81.514 212.348C68.29 203.924 60.7657 191.908 60.1073 178.29C50.7038 181.561 41.0904 179.451 33.3898 172.321C27.4387 166.808 23.9474 159.133 23.5664 150.709C23.0013 138.27 20.0128 133.753 19.8366 133.496C16.7107 129.567 15.0856 125.987 15.0001 122.864C14.956 121.153 15.6377 119.479 16.8766 118.271C18.1233 117.053 19.8314 116.405 21.5602 116.49C28.9861 116.861 33.2343 124.694 37.3399 132.268C39.3745 136.021 41.4818 139.903 43.8948 142.731C45.2245 144.289 46.8393 145.375 48.5603 145.873C51.2326 146.645 53.7597 146.095 56.0691 144.247C60.5868 140.629 63.2902 132.651 62.7926 124.393C62.6682 122.322 61.6832 120.339 60.0892 118.953C50.9578 111.016 46.4479 103.684 46.2976 96.5326C46.1602 89.9414 49.7785 84.3428 53.4668 79.7007C53.2854 66.8214 55.5637 55.4454 60.2343 45.8812C64.568 37.0117 70.8301 29.902 78.8469 24.7545C87.097 19.4592 96.9619 16.481 107.379 16.1415C117.451 15.8149 127.544 17.9403 136.569 22.2921C153.632 30.5215 166.918 46.8117 171.244 64.8023C174.007 76.2923 174.45 93.6712 161.268 111.846C165.109 115.065 169.595 115.969 174.323 114.464C182.511 111.854 190.256 102.232 191.951 92.5592C193.156 85.6828 191.142 79.838 186.28 76.0953C183.965 74.3147 182.581 71.7279 182.169 68.4102C181.886 66.1449 182.809 63.9755 184.636 62.6069C186.49 61.2177 188.869 60.9377 191 61.8579C201.992 66.6089 209.812 75.5173 213.015 86.9477C216.932 100.921 213.415 117.022 203.114 132.527C213.046 134.087 221.512 129.642 223.388 127.364C224.018 126.599 224.855 125.814 225.879 125.033C227.774 123.587 230.309 123.481 232.341 124.759C234.368 126.034 235.366 128.361 234.881 130.686C232.776 140.836 226.6 149.442 217.486 154.921C206.81 161.341 192.824 163.075 178.602 159.843C181.223 163.793 185.567 168.116 191.381 172.536C196.463 176.4 202.676 178.909 209.343 179.793C211.535 180.083 213.788 180.617 216.038 181.382C218.795 182.318 220.734 184.692 221.094 187.577C221.452 190.433 220.172 193.183 217.759 194.748C212.126 198.403 204.814 200.14 197.246 200.142C189.24 200.142 180.945 198.198 174.038 194.528C174.746 195.715 175.425 196.933 176.067 198.175C181.941 209.494 183.924 220.901 181.365 228.685C180.469 231.419 178.131 233.27 175.264 233.513C175.054 233.531 174.844 233.539 174.637 233.539H174.632ZM132.593 195.132C148.082 197.146 160.835 207.962 171.573 228.192C172.252 229.47 173.517 230.162 174.963 230.038C176.099 229.942 177.506 229.247 178.048 227.593C180.285 220.784 178.335 210.126 172.968 199.777C170.754 195.51 168.139 191.571 165.231 188.061C165.21 188.041 165.189 188.017 165.166 187.997C165.083 187.911 165.01 187.82 164.951 187.727C158.575 180.14 150.827 174.607 142.857 172.175C133.316 169.267 126.31 163.915 121.435 155.813C121.098 155.25 121.103 154.548 121.45 153.99C121.798 153.433 122.428 153.122 123.081 153.177C134.861 154.2 145.675 161.313 156.138 174.918C160.309 177.813 164.243 181.449 167.768 185.669C173.219 191.195 181.739 195.054 191.165 196.27C200.626 197.488 209.625 195.868 215.856 191.822C217.16 190.975 217.823 189.549 217.632 188.007C217.435 186.436 216.419 185.192 214.915 184.681C212.881 183.992 210.854 183.51 208.884 183.248C201.619 182.284 194.836 179.539 189.271 175.309C181.153 169.138 175.858 163.257 173.535 157.829C173.271 157.21 173.385 156.492 173.833 155.986C174.279 155.481 174.979 155.279 175.627 155.468C190.256 159.734 204.859 158.443 215.69 151.93C223.958 146.959 229.562 139.162 231.467 129.976C231.747 128.623 230.786 127.898 230.482 127.708C230.179 127.517 229.101 126.959 227.991 127.804C227.18 128.424 226.535 129.02 226.076 129.58C223.189 133.087 212.16 138.581 199.755 135.391C199.2 135.248 198.749 134.841 198.552 134.302C198.355 133.763 198.436 133.162 198.768 132.695C209.602 117.403 213.466 101.491 209.656 87.8912C206.74 77.4924 199.623 69.3848 189.615 65.0615C188.646 64.6416 187.565 64.7686 186.728 65.3984C185.904 66.0179 185.502 66.9588 185.629 67.9826C185.922 70.3412 186.858 72.1426 188.408 73.3349C194.348 77.9071 196.829 84.9493 195.388 93.1631C193.457 104.181 184.857 114.767 175.386 117.786C168.968 119.831 162.691 118.243 157.706 113.313C157.084 112.696 157.014 111.716 157.543 111.019C170.868 93.4716 170.505 76.6448 167.856 65.6187C163.769 48.6183 151.201 33.2197 135.058 25.4335C117.43 16.932 96.1092 17.8159 80.7339 27.6885C64.9257 37.8385 56.4864 56.5081 56.9659 80.2631C56.9737 80.6727 56.8363 81.0744 56.5797 81.3932C49.1124 90.6542 43.9363 100.294 62.3779 116.319C64.6743 118.315 66.0947 121.179 66.2761 124.181C66.8463 133.662 63.6971 142.607 58.2515 146.966C55.0505 149.527 51.3648 150.307 47.5961 149.219C45.2141 148.532 43.0188 147.07 41.2433 144.991C38.5918 141.886 36.3964 137.84 34.2762 133.926C30.4609 126.889 26.8555 120.244 21.3866 119.969C20.6271 119.933 19.8703 120.22 19.3156 120.762C18.7635 121.301 18.4706 122.014 18.4888 122.768C18.5303 124.391 19.2767 127.195 22.5866 131.355C22.7603 131.583 26.4097 136.492 27.0473 150.551C27.3843 157.946 30.5594 164.947 35.7588 169.762C40.0406 173.725 49.0243 179.568 61.0949 174.148C61.6392 173.904 62.269 173.953 62.7666 174.283C63.2643 174.609 63.5598 175.169 63.552 175.765C63.2928 192.963 74.197 203.553 83.388 209.408C91.7029 214.706 102.109 218.304 112.685 219.54C122.954 220.74 132.264 219.628 138.902 216.412C140.219 215.772 141.027 214.507 141.064 213.027C141.1 211.516 140.335 210.186 139.018 209.468C134.4 206.949 127.863 204.844 119.587 203.216C119.571 203.214 119.558 203.211 119.543 203.206C102.446 199.38 91.8999 189.228 88.196 173.028C88.0094 172.214 88.4267 171.38 89.1939 171.043C89.9585 170.706 90.8553 170.96 91.3297 171.647C99.7975 183.893 113.296 191.576 132.591 195.129L132.593 195.132ZM126.606 157.236C130.851 162.793 136.535 166.605 143.876 168.842C145.086 169.21 146.289 169.646 147.484 170.143C140.719 163.075 133.819 158.811 126.606 157.236Z" fill="#380175"/>
<path d="M60.0658 175.773C60.0062 172.23 60.1384 168.666 60.5246 165.107L60.6645 163.772L60.8589 162.44L61.0637 161.108C61.1492 160.665 61.2425 160.224 61.3358 159.783L61.6365 158.467C61.7583 158.031 61.8853 157.598 62.0175 157.168L62.4167 155.875L62.8832 154.602C64.1351 151.217 65.7628 147.969 67.8027 145.028C69.8166 142.07 72.1779 139.393 74.7516 136.987C74.9875 136.767 75.3556 136.78 75.5759 137.016C75.778 137.231 75.7832 137.56 75.6018 137.781C73.4168 140.463 71.4392 143.283 69.8062 146.261C68.1889 149.25 66.8774 152.368 65.9806 155.61L65.6436 156.823L65.3715 158.055L65.0915 159.283L64.8557 160.522L64.5965 161.756L64.3891 163.003L64.1714 164.249L64.0159 165.509C63.6064 168.871 63.5105 172.287 63.5571 175.708V175.721C63.5701 176.683 62.8003 177.476 61.8387 177.489C60.8771 177.502 60.0839 176.737 60.071 175.773H60.0658Z" fill="#380175"/>
<path d="M130.107 212.884C126.676 212.884 123.768 212.617 123.037 212.545C113.996 212.083 105.811 209.486 98.7037 204.823C92.2472 200.588 86.9363 194.728 83.3491 187.88C76.5038 174.809 76.6516 159.602 83.7353 148.19C84.0982 147.604 84.8032 147.329 85.4667 147.513C86.1302 147.697 86.5916 148.296 86.602 148.985C86.7264 157.943 88.3048 165.677 91.2959 171.976C91.664 172.748 91.3348 173.674 90.5598 174.039C89.7848 174.407 88.8621 174.075 88.4941 173.303C85.998 168.044 84.4273 161.885 83.8027 154.934C79.9822 164.61 80.739 176.211 86.0939 186.436C93.3202 200.236 106.855 208.62 123.228 209.445C123.254 209.445 123.28 209.447 123.306 209.45C127.046 209.826 137.445 210.308 140.625 208.048C141.323 207.553 142.292 207.716 142.787 208.413C143.282 209.11 143.119 210.077 142.422 210.575C139.801 212.438 134.519 212.879 130.105 212.879L130.107 212.884Z" fill="#380175"/>
<path d="M207.474 198.048C185.282 198.048 168.263 178.251 156.838 164.959C152.748 160.201 149.215 156.092 146.519 154.133C135.188 145.893 123.262 144.973 118.791 144.947C119.758 148.221 121.458 151.087 124.053 153.853C124.638 154.478 124.607 155.457 123.983 156.043C123.358 156.629 122.378 156.598 121.793 155.973C118.369 152.326 116.246 148.332 115.302 143.765C115.214 143.332 115.313 142.881 115.574 142.529C115.839 142.174 116.241 141.948 116.679 141.909C117.342 141.85 133.124 140.564 148.339 151.627C151.325 153.799 154.967 158.034 159.184 162.94C170.702 176.338 188.107 196.581 210.172 194.842C211.025 194.772 211.771 195.412 211.839 196.265C211.906 197.117 211.268 197.864 210.416 197.931C209.426 198.009 208.441 198.048 207.469 198.048H207.474Z" fill="#380175"/>
<path d="M115.37 143.983L113.954 137.26C113.887 136.943 114.092 136.63 114.408 136.565C114.67 136.51 114.926 136.637 115.046 136.863L118.28 142.925C118.687 143.688 118.4 144.636 117.635 145.043C116.873 145.45 115.924 145.162 115.517 144.4C115.447 144.268 115.396 144.123 115.367 143.986L115.37 143.983Z" fill="#380175"/>
<path d="M133.353 119.37C135.807 119.526 138.254 119.971 140.631 120.684C143.007 121.394 145.299 122.397 147.473 123.603C151.838 126.008 155.646 129.284 159.062 132.822C160.77 134.6 162.4 136.443 163.909 138.371C165.42 140.3 166.83 142.29 168.227 144.281C171.021 148.262 173.696 152.295 176.412 156.269C176.897 156.976 176.715 157.941 176.008 158.423C175.3 158.907 174.339 158.726 173.854 158.021C171.112 154.022 168.463 149.989 165.679 146.08C164.287 144.126 162.849 142.215 161.389 140.334C159.93 138.452 158.471 136.578 156.911 134.795C153.803 131.226 150.324 127.993 146.367 125.459C142.414 122.931 137.935 121.21 133.226 120.529C132.907 120.482 132.686 120.187 132.733 119.87C132.777 119.57 133.044 119.355 133.342 119.373H133.347L133.353 119.37Z" fill="#380175"/>
<path d="M192.819 149.369C182.768 149.369 172.379 146.855 162.849 141.907C162.089 141.513 161.794 140.577 162.188 139.818C162.582 139.058 163.517 138.763 164.277 139.157C179.914 147.275 197.938 148.527 212.494 142.508C221.468 138.799 227.652 132.848 229.909 125.751C230.169 124.935 231.04 124.484 231.856 124.743C232.672 125.002 233.123 125.873 232.864 126.69C230.327 134.673 223.513 141.306 213.681 145.372C207.215 148.047 200.107 149.369 192.822 149.369H192.819Z" fill="#380175"/>
<path d="M171.775 126.547C174.225 126.819 176.653 127.224 179.066 127.682C181.479 128.139 183.872 128.67 186.251 129.201C188.63 129.735 190.992 130.285 193.34 130.793C195.691 131.301 198.029 131.759 200.372 132.164H200.382C201.227 132.309 201.795 133.112 201.65 133.957C201.515 134.751 200.792 135.297 200.009 135.243C197.5 135.062 195.033 134.624 192.617 134.071C190.199 133.522 187.827 132.856 185.481 132.151C183.136 131.443 180.811 130.71 178.491 129.961C176.168 129.214 173.851 128.47 171.532 127.685C171.226 127.581 171.06 127.252 171.163 126.944C171.252 126.679 171.516 126.521 171.783 126.55L171.775 126.547Z" fill="#380175"/>
<path d="M186.808 131.959C186.303 131.959 185.805 131.713 185.51 131.257C185.041 130.541 185.243 129.58 185.961 129.113C194.374 123.623 201.261 109.707 202.71 95.2729C203.894 83.4667 201.287 73.7496 195.367 67.9152C194.758 67.3139 194.75 66.3341 195.351 65.7224C195.953 65.1133 196.932 65.1055 197.544 65.7069C204.146 72.2152 207.075 82.8239 205.794 95.5814C204.257 110.884 196.8 125.741 187.656 131.708C187.394 131.879 187.101 131.959 186.811 131.959H186.808Z" fill="#380175"/>
<path d="M157.564 113.157L150.337 102.23C150.159 101.96 150.234 101.6 150.503 101.421C150.742 101.263 151.055 101.304 151.247 101.504L160.293 110.983C160.962 111.682 160.936 112.789 160.236 113.458C159.536 114.127 158.429 114.101 157.761 113.401C157.691 113.328 157.621 113.24 157.566 113.157H157.564Z" fill="#380175"/>
<path d="M55.5118 169.068C47.425 169.068 41.0048 166.108 36.3756 160.227C32.029 154.706 30.3054 147.967 29.2893 142.713C27.6875 134.434 23.9707 129.997 20.1917 126.433C18.1726 124.531 17.1773 122.605 17.2291 120.71C17.2861 118.611 18.6261 117.418 18.7791 117.289L20.78 119.658L20.806 119.634C20.7852 119.653 20.3264 120.091 20.3264 120.845C20.3264 121.796 21.0133 122.95 22.3196 124.181C26.2775 127.91 30.562 132.962 32.3348 142.127C33.6438 148.895 37.6301 169.493 61.5329 165.431C62.3752 165.286 63.1761 165.856 63.3213 166.699C63.4639 167.544 62.8962 168.342 62.0538 168.487C59.7678 168.876 57.5854 169.07 55.517 169.07L55.5118 169.068Z" fill="#380175"/>
<path d="M180.681 221.31C180.038 221.31 179.437 220.906 179.217 220.263C171.741 198.486 158.479 191.472 144.441 184.049C135.361 179.246 125.973 174.283 117.622 165.164C117.599 165.138 117.578 165.112 117.557 165.086C107.4 152.425 115.751 143.379 115.836 143.288C116.427 142.669 117.407 142.643 118.026 143.234C118.646 143.822 118.672 144.799 118.086 145.419C117.801 145.725 111.588 152.653 119.944 163.106C127.925 171.802 137.059 176.633 145.892 181.307C160.49 189.028 174.276 196.319 182.151 219.255C182.428 220.064 181.998 220.945 181.189 221.225C181.023 221.282 180.852 221.31 180.686 221.31H180.681Z" fill="#380175"/>
<path d="M74.6298 113.966C74.5313 113.966 74.438 113.966 74.3473 113.958C69.1557 113.707 64.1351 106.812 62.4141 97.5642C62.3596 97.2687 62.3907 96.9655 62.5048 96.6882L62.5514 96.5767C62.8495 95.8561 63.6375 95.47 64.3917 95.6747C66.1127 96.1439 67.7197 97.2713 69.0468 98.9354C74.6609 104.054 78.2585 105.503 79.64 105.184C80.1739 105.06 80.7364 105.229 81.1148 105.628C81.4932 106.027 81.6306 106.594 81.4777 107.123C79.7826 112.994 76.5712 113.966 74.6272 113.966H74.6298ZM66.3253 100.514C68.2822 106.838 71.8305 110.736 74.4976 110.866C76.0761 110.933 77.1232 109.588 77.7971 108.16C74.9564 107.543 71.294 105.192 66.8618 101.138C66.797 101.081 66.74 101.017 66.6856 100.949C66.5689 100.799 66.4471 100.654 66.3227 100.514H66.3253Z" fill="#380175"/>
<path d="M82.3304 98.3288C82.5585 99.0831 82.7814 99.8451 82.9447 100.636C83.1158 101.424 83.2479 102.235 83.2791 103.093C83.305 103.948 83.2661 104.863 82.8877 105.853C82.6803 106.346 82.3822 106.851 81.9338 107.284C81.4803 107.709 80.9126 108.023 80.3372 108.201L80.1869 108.248C79.3601 108.507 78.4788 108.049 78.217 107.219C77.9578 106.392 78.4166 105.511 79.246 105.249C79.373 105.208 79.5104 105.187 79.64 105.179C79.8136 105.172 79.9536 105.148 80.1014 105.089C80.2413 105.021 80.3916 104.884 80.542 104.695C80.8297 104.288 81.0344 103.647 81.1511 102.971C81.2729 102.289 81.3118 101.556 81.3066 100.812C81.3118 100.068 81.2522 99.3138 81.19 98.5543V98.5388C81.1614 98.2174 81.3999 97.9349 81.7213 97.9089C82.0012 97.8856 82.2501 98.0645 82.3278 98.3237L82.3304 98.3288Z" fill="#380175"/>
<path d="M105.997 123.745L98.6 128.895C98.3123 129.092 98.0116 129.253 97.6928 129.372C96.4228 129.86 94.9609 129.714 93.8308 128.893C88.2012 124.798 86.4931 117.553 88.7947 111.784C89.9611 108.87 92.9833 107.141 96.0521 107.813C98.7555 108.401 101.306 110.316 103.418 112.864C104.999 114.767 106.337 117.022 107.311 119.347C107.978 120.93 107.413 122.768 105.997 123.748V123.745Z" fill="#380175"/>
<path d="M58.9202 102.556C58.6687 101.82 58.4769 101.035 58.4666 100.182C58.4562 99.3397 58.6506 98.4066 59.1897 97.5875C59.7185 96.7659 60.5868 96.1283 61.5328 95.8276C62.4815 95.514 63.4742 95.5088 64.3943 95.6747L64.4902 95.6903C65.343 95.8432 65.908 96.657 65.7577 97.5072C65.6047 98.3573 64.7935 98.925 63.9407 98.7747C63.8163 98.7539 63.6919 98.7124 63.583 98.6658C63.1061 98.4558 62.6033 98.3392 62.1367 98.3729C61.6702 98.404 61.2348 98.5673 60.8745 98.8965C60.5116 99.2231 60.2395 99.7311 60.1099 100.33C59.9777 100.929 59.9803 101.597 60.0528 102.274V102.305C60.0917 102.624 59.8584 102.911 59.5396 102.948C59.2649 102.976 59.0109 102.808 58.9253 102.556H58.9202Z" fill="#380175"/>
<path d="M125.885 67.7052C127.134 67.078 128.464 66.5544 129.877 66.2512C131.282 65.9427 132.787 65.8805 134.226 66.189C135.664 66.4844 136.994 67.1402 138.101 67.9929C139.215 68.8457 140.128 69.8773 140.913 70.9607C141.102 71.2199 141.043 71.5854 140.784 71.772C140.542 71.9456 140.213 71.9093 140.016 71.6994L140.009 71.689C139.153 70.7741 138.212 69.9576 137.181 69.3563C136.152 68.7524 135.035 68.3843 133.91 68.2962C132.785 68.2003 131.652 68.3869 130.566 68.7757C129.478 69.1593 128.436 69.7244 127.44 70.3879C126.728 70.8648 125.763 70.6756 125.286 69.9602C124.809 69.2474 124.999 68.2832 125.714 67.8063C125.766 67.7726 125.82 67.7389 125.875 67.713L125.888 67.7052H125.885Z" fill="#380175"/>
<path d="M94.1574 91.354C94.3544 92.5929 94.6395 93.8163 95.1216 94.9075C95.5907 95.9935 96.2828 96.9551 97.1226 97.432C97.5399 97.6705 97.9831 97.7768 98.4315 97.7871C98.8851 97.7819 99.349 97.6757 99.8052 97.4813C100.723 97.0821 101.581 96.3538 102.312 95.5036C102.871 94.8531 103.851 94.7779 104.502 95.3377C105.152 95.8976 105.228 96.8774 104.668 97.5279C104.626 97.5772 104.58 97.6238 104.533 97.6679L104.517 97.6809C103.434 98.6502 102.174 99.5159 100.642 99.9592C99.8778 100.172 99.0406 100.262 98.206 100.148C97.3714 100.024 96.5627 99.6844 95.9199 99.1894C95.2745 98.6917 94.7821 98.0774 94.4088 97.4398C94.0356 96.7996 93.7738 96.1309 93.5742 95.4648C93.1777 94.1247 93.0455 92.7795 93.0014 91.4551C92.991 91.1337 93.2425 90.8641 93.5639 90.8537C93.8619 90.8434 94.1133 91.0585 94.1574 91.3436V91.354Z" fill="#380175"/>
<path d="M105.997 123.745L98.5999 128.895C98.3122 129.092 98.0116 129.253 97.6928 129.372C92.3923 122.758 96.7752 113.945 103.416 112.864C104.997 114.767 106.334 117.022 107.309 119.347C107.975 120.93 107.41 122.768 105.995 123.748L105.997 123.745Z" fill="#E43841"/>
<path d="M108.079 98.925C106.293 98.925 104.546 98.6399 102.895 98.0515C102.397 97.8727 102.024 97.4528 101.905 96.937C101.785 96.4212 101.941 95.8795 102.312 95.5036C103.058 94.7468 103.745 93.8293 104.357 92.7743C104.867 91.8983 105.37 91.0403 105.92 90.1954C113.586 78.3917 120.118 71.0359 125.888 67.7001C126.292 67.4668 126.779 67.4279 127.215 67.5938C127.65 67.7597 127.99 68.1148 128.135 68.558C131.028 77.3316 128.868 86.3593 122.365 92.7095C118.249 96.727 113.032 98.9224 108.081 98.9224L108.079 98.925ZM106.171 95.6903C110.826 96.3875 116.114 94.4824 120.198 90.496C125.356 85.4599 127.357 78.4747 125.737 71.4843C120.795 74.9885 115.142 81.6939 108.519 91.8853C108.009 92.6732 107.527 93.4949 107.037 94.3347C106.762 94.809 106.472 95.26 106.171 95.6903Z" fill="#380175"/>
<path d="M96.1946 131.202C95.0386 131.202 93.8878 130.85 92.9184 130.145C87.0244 125.86 84.6839 117.895 87.3562 111.208C88.8206 107.541 92.6152 105.472 96.3813 106.294C102.159 107.554 106.552 113.551 108.737 118.743C109.678 120.977 108.898 123.616 106.884 125.018L99.4838 130.165C98.4911 130.857 97.3403 131.202 96.1946 131.202ZM94.7328 109.215C92.8018 109.215 91.003 110.428 90.2332 112.356C88.0819 117.748 89.9766 124.173 94.7406 127.636C95.6037 128.263 96.796 128.258 97.7109 127.62L105.111 122.473C105.932 121.902 106.254 120.837 105.878 119.943C103.512 114.318 99.5253 110.151 95.7203 109.321C95.3911 109.249 95.0594 109.215 94.7328 109.215Z" fill="#380175"/>
<path d="M26.3682 158.721C25.9146 158.721 25.4739 158.495 25.2148 158.083C24.8182 157.448 25.0126 156.611 25.6476 156.214C26.5522 155.652 27.7548 154.677 28.3614 153.231C28.8668 152.026 28.8175 150.675 28.2292 149.711C27.6563 148.765 26.4563 148.208 25.5025 148.446C24.7741 148.625 24.0406 148.182 23.8618 147.454C23.6829 146.728 24.1261 145.992 24.8545 145.813C26.9643 145.295 29.3567 146.342 30.5489 148.304C31.5779 149.999 31.6972 152.288 30.8626 154.278C30.1653 155.945 28.8564 157.409 27.0809 158.516C26.858 158.656 26.6092 158.721 26.3656 158.721H26.3682Z" fill="#380175"/>
<path d="M36.7567 173.197C36.6011 173.197 36.4456 173.171 36.2901 173.114C35.5877 172.857 35.2248 172.077 35.4814 171.374C36.119 169.633 36.2512 167.816 35.8521 166.261C35.427 164.599 34.3643 163.176 33.0061 162.453C31.6117 161.709 29.857 161.738 28.6387 162.52C28.0089 162.927 27.1691 162.746 26.7648 162.116C26.3604 161.486 26.5419 160.647 27.1691 160.242C29.2193 158.923 32.0108 158.85 34.2814 160.061C36.329 161.152 37.8608 163.166 38.4777 165.589C39.0168 167.699 38.8613 170.021 38.0267 172.305C37.8245 172.854 37.3061 173.197 36.7541 173.197H36.7567Z" fill="#380175"/>
<path d="M52.7514 178.855C52.1604 178.855 51.6187 178.466 51.4476 177.87C50.8515 175.778 49.032 174.029 46.9195 173.515C44.8071 173.002 42.3863 173.723 40.8985 175.306C40.3853 175.853 39.5274 175.879 38.9805 175.366C38.4336 174.853 38.4077 173.995 38.9209 173.448C41.0877 171.139 44.478 170.13 47.5572 170.877C50.6364 171.623 53.1868 174.075 54.0525 177.123C54.2573 177.844 53.84 178.593 53.1194 178.8C52.995 178.837 52.8706 178.852 52.7462 178.852L52.7514 178.855Z" fill="#380175"/>
<path d="M90.3032 178.782C90.1684 178.782 90.0336 178.761 89.8988 178.72C87.351 177.924 85.1038 176.154 83.7326 173.863C82.3615 171.574 81.8613 168.757 82.3589 166.134C82.8203 163.713 84.1137 161.782 85.9073 160.841C86.5708 160.494 87.3899 160.748 87.7372 161.411C88.0845 162.075 87.8305 162.894 87.1669 163.241C86.125 163.788 85.3241 165.058 85.0234 166.639C84.6476 168.617 85.0234 170.739 86.0576 172.466C87.0918 174.192 88.7869 175.527 90.7075 176.128C91.4229 176.351 91.8194 177.113 91.5965 177.828C91.4151 178.409 90.8812 178.78 90.3032 178.78V178.782Z" fill="#380175"/>
<path d="M98.3926 192.608C98.3666 192.608 98.3407 192.608 98.3174 192.608C96.5212 192.509 94.4865 192.395 92.5867 191.68C90.3135 190.824 88.5977 189.142 87.999 187.185C87.535 185.666 87.7346 183.943 88.5329 182.569C89.3312 181.198 90.7334 180.171 92.2834 179.824C93.0143 179.661 93.7401 180.122 93.9034 180.853C94.0667 181.584 93.6053 182.31 92.8744 182.473C92.0501 182.657 91.3037 183.204 90.8786 183.935C90.4535 184.666 90.3472 185.583 90.5935 186.392C90.9486 187.553 92.0527 188.58 93.5431 189.142C95.0542 189.712 96.7882 189.808 98.4677 189.902C99.2168 189.943 99.787 190.583 99.7456 191.33C99.7067 192.053 99.1079 192.61 98.3926 192.61V192.608Z" fill="#380175"/>
<path d="M106.065 201.477C104.538 201.477 103.157 201.031 102.135 200.204C101.023 199.302 100.28 197.916 100.041 196.293C99.8259 194.824 100.046 193.401 100.264 192.322C100.412 191.589 101.127 191.112 101.861 191.26C102.594 191.407 103.071 192.123 102.923 192.856C102.75 193.719 102.571 194.844 102.726 195.899C102.864 196.83 103.271 197.631 103.843 198.097C104.447 198.585 105.352 198.818 106.391 198.756C107.462 198.691 108.579 198.333 109.657 197.991C110.37 197.765 111.134 198.157 111.36 198.872C111.588 199.585 111.194 200.35 110.479 200.575C109.299 200.951 107.959 201.376 106.555 201.464C106.389 201.475 106.225 201.48 106.065 201.48V201.477Z" fill="#380175"/>
<path d="M119.014 208.247C117.215 208.247 115.432 207.483 114.222 206.132C112.705 204.442 112.2 201.962 112.933 199.813C113.174 199.103 113.947 198.724 114.654 198.968C115.362 199.209 115.743 199.979 115.499 200.689C115.085 201.905 115.383 203.367 116.241 204.323C117.099 205.279 118.519 205.736 119.773 205.453C121.028 205.173 122.119 204.157 122.49 202.926C122.705 202.208 123.462 201.801 124.177 202.016C124.895 202.231 125.302 202.988 125.087 203.704C124.434 205.878 122.58 207.604 120.364 208.099C119.919 208.198 119.465 208.247 119.014 208.247Z" fill="#380175"/>
<path d="M129.06 167.474C126.533 167.474 124.009 166.279 122.505 164.213C120.52 161.486 120.522 157.531 122.51 154.807C122.951 154.203 123.801 154.068 124.405 154.511C125.009 154.952 125.141 155.802 124.701 156.406C123.407 158.176 123.407 160.846 124.698 162.616C125.989 164.387 128.531 165.206 130.61 164.519C131.323 164.286 132.088 164.672 132.323 165.382C132.559 166.092 132.173 166.859 131.46 167.095C130.683 167.352 129.872 167.476 129.06 167.476V167.474Z" fill="#380175"/>
<path d="M141.095 176.418C138.718 176.418 136.426 175.405 134.895 173.658C133.194 171.719 132.567 169.011 133.257 166.592C133.461 165.872 134.213 165.455 134.934 165.659C135.654 165.864 136.071 166.616 135.867 167.336C135.434 168.858 135.854 170.636 136.935 171.872C138.002 173.088 139.708 173.785 141.393 173.699C143.046 173.614 144.708 172.777 145.838 171.463C146.325 170.895 147.183 170.83 147.751 171.317C148.318 171.805 148.383 172.663 147.896 173.23C146.268 175.122 143.951 176.281 141.535 176.408C141.39 176.416 141.242 176.418 141.097 176.418H141.095Z" fill="#380175"/>
<path d="M154.295 184.461C153.782 184.461 153.269 184.409 152.763 184.3C150.21 183.748 148.031 181.789 147.212 179.306C146.392 176.825 146.978 173.953 148.704 171.989C149.2 171.426 150.055 171.372 150.617 171.864C151.18 172.359 151.234 173.215 150.742 173.777C149.656 175.014 149.272 176.893 149.788 178.456C150.304 180.019 151.729 181.302 153.336 181.649C154.943 181.996 156.773 181.416 157.888 180.208C158.396 179.656 159.254 179.622 159.803 180.13C160.355 180.638 160.389 181.496 159.881 182.045C158.46 183.588 156.379 184.464 154.293 184.464L154.295 184.461Z" fill="#380175"/>
<path d="M137.386 160.024C137.282 160.024 137.176 160.011 137.069 159.988C136.341 159.814 135.893 159.084 136.066 158.355C136.525 156.435 135.439 154.2 133.645 153.374C131.852 152.547 129.446 153.177 128.285 154.771C127.845 155.377 126.997 155.509 126.391 155.069C125.784 154.628 125.652 153.78 126.093 153.174C128.008 150.541 131.823 149.545 134.781 150.909C137.738 152.269 139.462 155.818 138.705 158.982C138.557 159.605 138 160.024 137.388 160.024H137.386Z" fill="#380175"/>
<path d="M148.87 169.685C148.681 169.685 148.489 169.646 148.308 169.56C147.626 169.249 147.328 168.443 147.639 167.764C148.45 165.988 147.997 163.635 146.579 162.29C145.164 160.945 142.79 160.613 141.058 161.515C140.395 161.862 139.576 161.606 139.228 160.939C138.881 160.276 139.14 159.457 139.804 159.109C142.559 157.671 146.193 158.182 148.448 160.32C150.703 162.461 151.397 166.064 150.107 168.889C149.879 169.386 149.386 169.682 148.873 169.682L148.87 169.685Z" fill="#380175"/>
<path d="M161.586 182.406C160.84 182.406 160.233 181.802 160.231 181.053C160.223 178.181 159.419 175.69 157.968 174.044C156.348 172.204 153.772 171.46 151.841 172.274C151.151 172.564 150.355 172.243 150.065 171.551C149.775 170.861 150.099 170.066 150.788 169.775C153.808 168.5 157.6 169.519 160.005 172.251C162.423 174.995 162.939 178.546 162.947 181.045C162.947 181.794 162.343 182.403 161.594 182.406H161.589H161.586Z" fill="#380175"/>
<path d="M171.876 191.731C171.713 191.731 171.547 191.703 171.386 191.641C170.689 191.371 170.342 190.586 170.611 189.886C171.208 188.349 170.718 186.374 169.471 185.296C168.224 184.215 166.203 184.01 164.764 184.816C164.111 185.182 163.284 184.948 162.919 184.298C162.553 183.645 162.784 182.818 163.437 182.452C165.902 181.071 169.113 181.397 171.249 183.248C173.385 185.099 174.162 188.232 173.141 190.868C172.934 191.405 172.421 191.734 171.876 191.734V191.731Z" fill="#380175"/>
<path d="M181.943 195.596C181.194 195.596 180.588 194.989 180.588 194.24C180.588 193.271 179.857 192.304 178.926 192.04C177.996 191.773 176.866 192.211 176.355 193.035C175.961 193.673 175.124 193.867 174.489 193.473C173.851 193.079 173.657 192.242 174.051 191.607C175.204 189.749 177.568 188.834 179.67 189.432C181.775 190.031 183.301 192.055 183.301 194.243C183.301 194.992 182.695 195.599 181.946 195.599L181.943 195.596Z" fill="#380175"/>
<path d="M188.387 159.667C187.669 159.667 187.07 159.102 187.034 158.379C186.951 156.691 185.458 155.118 183.778 154.944C182.099 154.773 180.316 156.007 179.891 157.642C179.701 158.368 178.96 158.801 178.237 158.612C177.511 158.423 177.078 157.681 177.267 156.958C178.037 154.003 181.023 151.935 184.058 152.246C187.096 152.56 189.595 155.193 189.745 158.244C189.781 158.993 189.206 159.628 188.457 159.664C188.433 159.664 188.41 159.664 188.389 159.664L188.387 159.667Z" fill="#380175"/>
<path d="M192.332 160.615C191.72 160.615 191.165 160.198 191.015 159.576C190.354 156.836 192.148 154.273 194.265 153.161C196.087 152.202 198.327 152.054 200.258 152.77C202.189 153.482 203.796 155.051 204.558 156.963C204.835 157.661 204.496 158.449 203.798 158.726C203.104 159.003 202.313 158.664 202.039 157.966C201.556 156.756 200.54 155.766 199.32 155.315C198.099 154.864 196.681 154.957 195.53 155.564C194.356 156.183 193.332 157.614 193.654 158.944C193.83 159.672 193.381 160.403 192.653 160.579C192.547 160.605 192.438 160.618 192.334 160.618L192.332 160.615Z" fill="#380175"/>
<path d="M206.88 158.117C206.237 158.117 205.667 157.658 205.548 157.005C204.993 153.972 206.668 150.673 209.444 149.33C212.22 147.988 215.846 148.724 217.878 151.043C218.373 151.606 218.316 152.464 217.751 152.956C217.188 153.449 216.33 153.394 215.838 152.832C214.602 151.422 212.31 150.958 210.623 151.774C208.936 152.591 207.878 154.675 208.215 156.52C208.35 157.256 207.863 157.964 207.126 158.099C207.043 158.114 206.961 158.122 206.88 158.122V158.117Z" fill="#380175"/>
<path d="M219.469 152.096C218.723 152.096 218.116 151.492 218.114 150.745C218.108 149.512 218.103 148.234 218.396 146.933C218.648 145.818 219.231 144.26 220.591 143.169C222.499 141.642 225.086 141.728 226.799 141.782C227.548 141.806 228.134 142.433 228.111 143.182C228.087 143.931 227.457 144.512 226.711 144.494C224.972 144.439 223.326 144.455 222.287 145.287C221.703 145.753 221.26 146.549 221.042 147.526C220.817 148.529 220.822 149.649 220.827 150.732C220.83 151.481 220.226 152.091 219.477 152.093H219.472L219.469 152.096Z" fill="#380175"/>
<path d="M193.006 132.908C192.835 132.908 192.658 132.874 192.49 132.804C191.798 132.519 191.466 131.726 191.751 131.034C192.697 128.735 194.776 126.905 197.173 126.259C199.574 125.611 202.29 126.148 204.262 127.659C204.856 128.115 204.97 128.965 204.514 129.562C204.058 130.155 203.207 130.269 202.614 129.813C201.297 128.805 199.483 128.447 197.878 128.877C196.277 129.31 194.887 130.531 194.258 132.065C194.042 132.589 193.537 132.905 193.003 132.905L193.006 132.908Z" fill="#380175"/>
<path d="M205.315 124.829C204.884 124.829 204.459 124.624 204.198 124.243C202.598 121.923 202.134 119.124 202.953 116.757C203.92 113.963 206.714 112.102 209.451 112.426C210.195 112.514 210.727 113.188 210.638 113.932C210.55 114.676 209.874 115.21 209.133 115.119C207.681 114.946 206.059 116.078 205.517 117.644C204.985 119.176 205.338 121.114 206.432 122.703C206.857 123.32 206.701 124.165 206.084 124.59C205.849 124.751 205.582 124.829 205.317 124.829H205.315Z" fill="#380175"/>
<path d="M211.009 110.174C210.838 110.174 210.664 110.14 210.496 110.073C207.668 108.914 205.838 105.864 206.144 102.823C206.453 99.7803 208.855 97.1599 211.859 96.5922C212.593 96.4523 213.306 96.937 213.446 97.6705C213.586 98.4066 213.101 99.1168 212.365 99.2567C210.545 99.6015 209.032 101.253 208.845 103.098C208.658 104.941 209.812 106.861 211.525 107.564C212.217 107.846 212.549 108.64 212.266 109.332C212.051 109.855 211.546 110.174 211.012 110.174H211.009Z" fill="#380175"/>
<g opacity="0.3">
<path d="M83.5253 24.0469C83.5253 24.0469 83.5331 24.0443 83.5435 24.0391H83.5409C83.5409 24.0391 83.5305 24.0469 83.5253 24.0469Z" fill="#380175"/>
</g>
<g opacity="0.3">
<path d="M169.818 118.476L169.354 116.975L161.382 114.134L158.022 110.931L157.673 110.889C180.323 77.285 160.798 39.531 132.324 25.7938C121.134 20.3974 108.151 18.5183 95.9199 20.6333C93.5872 21.3616 91.2856 22.1133 89.1913 22.8131C114.224 19.8842 163.069 41.856 141.375 96.206C139.783 100.192 140.05 104.682 142.087 108.458C147.725 118.909 155.402 125.689 171.026 118.16C170.624 118.279 170.223 118.383 169.818 118.471V118.476Z" fill="#380175"/>
</g>
<g opacity="0.3">
<path d="M200.271 133.587C200.247 133.618 200.224 133.652 200.201 133.683L172.662 127.34C193.467 126.661 211.406 121.241 210.346 84.3869C215.32 97.7197 213.228 115.236 200.271 133.584V133.587Z" fill="#380175"/>
</g>
<g opacity="0.3">
<path d="M233.173 130.331C228.468 153.021 203.441 165.395 175.137 157.142C175.311 157.544 175.502 157.951 175.707 158.355L170.795 150.738C192.21 157.259 207.65 154.286 212.284 134.178H212.287C218.331 133.169 223.046 130.521 224.731 128.47C225.319 127.752 226.092 127.063 226.937 126.418C228.362 125.329 230.099 125.417 231.389 126.221C231.389 126.221 231.408 126.231 231.446 126.254C232.717 127.071 233.538 128.582 233.175 130.331H233.173Z" fill="#380175"/>
</g>
<g opacity="0.3">
<path d="M115.041 138.545C132.865 130.837 144.345 138.996 147.364 168.326C139.837 161.219 131.974 156.585 123.607 155.605C119.571 150.906 116.409 145.476 115.043 138.545H115.041Z" fill="#380175"/>
</g>
<g opacity="0.3">
<path d="M216.802 193.287C214.835 194.564 212.645 195.596 210.302 196.387H210.299C197.928 200.57 181.298 198.11 170.482 190.272L170.474 190.264L161.558 180.164C181.43 195.01 200.19 186.669 180.681 165.537C180.681 165.537 180.774 165.553 180.953 165.579C183.703 168.562 187 171.39 190.326 173.92C195.8 178.08 202.298 180.615 209.112 181.517C211.421 181.823 213.575 182.385 215.472 183.028C220.021 184.57 220.83 190.669 216.802 193.284V193.287Z" fill="#380175"/>
</g>
<g opacity="0.3">
<path d="M115.041 138.545C115.041 138.545 93.4498 149.04 112.306 169.946C112.306 169.946 128.423 182.872 151.102 173.819C151.102 173.819 130.701 167.398 123.607 155.608C116.513 143.815 115.043 138.548 115.043 138.548L115.041 138.545Z" fill="#380175"/>
</g>
<g opacity="0.3">
<path d="M168.924 189.077C168.908 188.981 168.89 188.883 168.87 188.787C168.87 188.787 168.981 188.966 169.188 189.29C169.1 189.22 169.01 189.147 168.924 189.077Z" fill="#380175"/>
</g>
<g opacity="0.3">
<path d="M179.704 228.138C178.255 232.559 172.216 233.119 170.033 229.009C164.593 218.76 158.38 210.52 151.154 204.906C165.749 210.71 171.747 205.839 169.147 190.296C176.023 199.761 180.274 210.764 180.686 219.758C180.826 222.835 180.515 225.675 179.706 228.138H179.704Z" fill="#380175"/>
</g>
<g opacity="0.3">
<path d="M89.8989 172.642C94.02 191.327 107.265 199.601 125.095 202.641C74.5599 205.857 71.237 180.262 71.9653 163.99C72.6937 147.715 85.0546 149.009 85.0546 149.009C85.0546 149.009 85.8477 167.544 89.8989 172.642Z" fill="#380175"/>
</g>
<g opacity="0.3">
<path d="M66.8048 150.82C61.8179 161.219 61.8076 175.594 61.8076 175.742C51.2221 180.495 41.5335 177.489 34.5742 171.045C31.9175 168.586 29.7973 165.657 28.2629 162.448C49.4415 174.303 62.4115 157.946 66.8048 150.82Z" fill="#380175"/>
</g>
<g opacity="0.3">
<path d="M68.4766 147.806C68.4144 147.941 67.8519 149.115 66.8074 150.821C67.3102 149.766 67.8649 148.76 68.4766 147.806Z" fill="#380175"/>
</g>
<g opacity="0.3">
<path d="M139.666 217.98C126.347 224.439 103.141 222.539 85.5211 212.71C120.364 221.215 130.784 216.109 127.287 203.25L127.632 203.291C133.197 204.805 137.108 206.438 139.856 207.936C140.53 208.304 141.087 208.776 141.53 209.315C143.728 211.985 143.09 216.316 139.666 217.977V217.98Z" fill="#380175"/>
</g>
<g opacity="0.25">
<path d="M82.7011 53.7633C80.6638 61.2721 78.8935 67.3268 74.5547 66.1501C70.2158 64.9734 68.3496 57.9311 70.3868 50.4223C72.4241 42.9135 77.5924 37.7789 81.9313 38.9556C86.2702 40.1323 84.7383 46.2519 82.7011 53.7633Z" fill="white"/>
</g>
<g opacity="0.25">
<path d="M94.484 32.7091C94.484 34.5986 92.1823 35.485 89.3416 35.485C86.5008 35.485 84.1992 34.5986 84.1992 32.7091C84.1992 30.8195 86.5008 29.2877 89.3416 29.2877C92.1823 29.2877 94.484 30.8195 94.484 32.7091Z" fill="white"/>
</g>
</g>
<defs>
<filter id="filter0_d_2021_4820" x="10.998" y="16.1078" width="228.004" height="225.431" filterUnits="userSpaceOnUse" color-interpolation-filters="sRGB">
<feFlood flood-opacity="0" result="BackgroundImageFix"/>
<feColorMatrix in="SourceAlpha" type="matrix" values="0 0 0 0 0 0 0 0 0 0 0 0 0 0 0 0 0 0 127 0" result="hardAlpha"/>
<feOffset dy="4"/>
<feGaussianBlur stdDeviation="2"/>
<feComposite in2="hardAlpha" operator="out"/>
<feColorMatrix type="matrix" values="0 0 0 0 0 0 0 0 0 0 0 0 0 0 0 0 0 0 0.25 0"/>
<feBlend mode="normal" in2="BackgroundImageFix" result="effect1_dropShadow_2021_4820"/>
<feBlend mode="normal" in="SourceGraphic" in2="effect1_dropShadow_2021_4820" result="shape"/>
</filter>
<linearGradient id="paint0_linear_2021_4820" x1="112.425" y1="21.8152" x2="134.825" y2="207.729" gradientUnits="userSpaceOnUse">
<stop stop-color="#8303A2"/>
<stop offset="0.04" stop-color="#9C1AB8"/>
<stop offset="0.09" stop-color="#B835D1"/>
<stop offset="0.15" stop-color="#CE49E5"/>
<stop offset="0.21" stop-color="#DE58F4"/>
<stop offset="0.28" stop-color="#E861FC"/>
<stop offset="0.38" stop-color="#EB64FF"/>
<stop offset="0.56" stop-color="#E861FC"/>
<stop offset="0.69" stop-color="#DF59F4"/>
<stop offset="0.79" stop-color="#D04BE7"/>
<stop offset="0.89" stop-color="#BB37D4"/>
<stop offset="0.97" stop-color="#9F1EBB"/>
<stop offset="1" stop-color="#9615B3"/>
</linearGradient>
</defs>
</svg>
