<svg width="16" height="16" viewBox="0 0 16 16" fill="none" xmlns="http://www.w3.org/2000/svg">
<path d="M5.29126 3.74997V2.49997C5.29126 2.16845 5.42295 1.85051 5.65738 1.61609C5.8918 1.38167 6.20974 1.24997 6.54126 1.24997H12.5413C12.8728 1.24997 13.1907 1.38167 13.4251 1.61609C13.6596 1.85051 13.7913 2.16845 13.7913 2.49997V13C13.7913 13.3315 13.6596 13.6494 13.4251 13.8839C13.1907 14.1183 12.8728 14.25 12.5413 14.25H6.54126C6.20974 14.25 5.8918 14.1183 5.65738 13.8839C5.42295 13.6494 5.29126 13.3315 5.29126 13V11.75M8.00024 5.37999L10.5002 7.87999M10.5002 7.87999L8.00024 10.38M10.5002 7.87999H1.28001" stroke="white" stroke-width="1.5" stroke-linecap="square" stroke-linejoin="round"/>
</svg>
