<svg width="24" height="24" viewBox="0 0 24 24" fill="none" xmlns="http://www.w3.org/2000/svg">
<path d="M11.9999 4.00003C11.7347 4.00003 11.4803 4.10539 11.2928 4.29292C11.1053 4.48046 10.9999 4.73481 10.9999 5.00003C10.9999 6.69203 8.95391 7.54003 7.75691 6.34303C7.66466 6.24752 7.55432 6.17134 7.43231 6.11893C7.31031 6.06652 7.17909 6.03893 7.04631 6.03778C6.91353 6.03662 6.78185 6.06193 6.65895 6.11221C6.53606 6.16249 6.4244 6.23674 6.33051 6.33063C6.23662 6.42453 6.16237 6.53618 6.11208 6.65907C6.0618 6.78197 6.0365 6.91365 6.03766 7.04643C6.03881 7.17921 6.0664 7.31043 6.1188 7.43243C6.17121 7.55444 6.2474 7.66478 6.34291 7.75703C7.53991 8.95403 6.69291 11 4.99991 11C4.73469 11 4.48034 11.1054 4.2928 11.2929C4.10526 11.4805 3.99991 11.7348 3.99991 12C3.99991 12.2652 4.10526 12.5196 4.2928 12.7071C4.48034 12.8947 4.73469 13 4.99991 13C6.69191 13 7.53991 15.046 6.34291 16.243C6.16075 16.4316 6.05995 16.6842 6.06223 16.9464C6.06451 17.2086 6.16968 17.4594 6.35509 17.6448C6.5405 17.8303 6.79131 17.9354 7.05351 17.9377C7.3157 17.94 7.5683 17.8392 7.75691 17.657C8.95391 16.46 10.9999 17.307 10.9999 19C10.9999 19.2652 11.1053 19.5196 11.2928 19.7071C11.4803 19.8947 11.7347 20 11.9999 20C12.2651 20 12.5195 19.8947 12.707 19.7071C12.8945 19.5196 12.9999 19.2652 12.9999 19C12.9999 17.308 15.0459 16.46 16.2429 17.657C16.3352 17.7525 16.4455 17.8287 16.5675 17.8811C16.6895 17.9335 16.8207 17.9611 16.9535 17.9623C17.0863 17.9634 17.218 17.9381 17.3409 17.8878C17.4638 17.8376 17.5754 17.7633 17.6693 17.6694C17.7632 17.5755 17.8374 17.4639 17.8877 17.341C17.938 17.2181 17.9633 17.0864 17.9622 16.9536C17.961 16.8208 17.9334 16.6896 17.881 16.5676C17.8286 16.4456 17.7524 16.3353 17.6569 16.243C16.4599 15.046 17.3069 13 18.9999 13C19.2651 13 19.5195 12.8947 19.707 12.7071C19.8946 12.5196 19.9999 12.2652 19.9999 12C19.9999 11.7348 19.8946 11.4805 19.707 11.2929C19.5195 11.1054 19.2651 11 18.9999 11C17.3079 11 16.4599 8.95403 17.6569 7.75703C17.8391 7.56843 17.9399 7.31582 17.9376 7.05363C17.9353 6.79143 17.8301 6.54062 17.6447 6.35521C17.4593 6.1698 17.2085 6.06463 16.9463 6.06235C16.6841 6.06008 16.4315 6.16087 16.2429 6.34303C15.0459 7.54003 12.9999 6.69303 12.9999 5.00003C12.9999 4.73481 12.8945 4.48046 12.707 4.29292C12.5195 4.10539 12.2651 4.00003 11.9999 4.00003ZM9.00791 4.77703C9.06321 4.0213 9.40244 3.31449 9.95746 2.79861C10.5125 2.28272 11.2422 1.99597 11.9999 1.99597C12.7577 1.99597 13.4873 2.28272 14.0424 2.79861C14.5974 3.31449 14.9366 4.0213 14.9919 4.77703C15.5657 4.28421 16.3045 4.02634 17.0604 4.05504C17.8162 4.08374 18.5333 4.39689 19.0681 4.93181C19.6029 5.46672 19.9159 6.1839 19.9444 6.93975C19.9729 7.69561 19.7149 8.43434 19.2219 9.00803C19.9776 9.0632 20.6845 9.40232 21.2005 9.95725C21.7165 10.5122 22.0033 11.2418 22.0035 11.9996C22.0036 12.7573 21.717 13.487 21.2012 14.0421C20.6854 14.5972 19.9786 14.9366 19.2229 14.992C19.7157 15.5658 19.9736 16.3046 19.9449 17.0605C19.9162 17.8163 19.603 18.5334 19.0681 19.0682C18.5332 19.603 17.816 19.916 17.0602 19.9445C16.3043 19.973 15.5656 19.715 14.9919 19.222C14.9366 19.9778 14.5974 20.6846 14.0424 21.2005C13.4873 21.7163 12.7577 22.0031 11.9999 22.0031C11.2422 22.0031 10.5125 21.7163 9.95746 21.2005C9.40244 20.6846 9.06321 19.9778 9.00791 19.222C8.43421 19.715 7.69548 19.973 6.93963 19.9445C6.18378 19.916 5.4666 19.603 4.93168 19.0682C4.39677 18.5334 4.08361 17.8163 4.05491 17.0605C4.02621 16.3046 4.28409 15.5658 4.77691 14.992C4.02118 14.9367 3.31437 14.5975 2.79848 14.0425C2.2826 13.4875 1.99585 12.7578 1.99585 12C1.99585 11.2423 2.2826 10.5126 2.79848 9.95758C3.31437 9.40257 4.02118 9.06333 4.77691 9.00803C4.28259 8.43444 4.02345 7.69513 4.0515 6.93845C4.07955 6.18176 4.3927 5.46367 4.92812 4.92824C5.46355 4.39282 6.18164 4.07967 6.93832 4.05162C7.69501 4.02358 8.43431 4.28271 9.00791 4.77703Z" fill="currentColor"/>
<path d="M11.9999 10.0001C11.4695 10.0001 10.9608 10.2108 10.5857 10.5859C10.2106 10.9609 9.99992 11.4696 9.99992 12.0001C9.99992 12.5305 10.2106 13.0392 10.5857 13.4143C10.9608 13.7894 11.4695 14.0001 11.9999 14.0001C12.5304 14.0001 13.0391 13.7894 13.4141 13.4143C13.7892 13.0392 13.9999 12.5305 13.9999 12.0001C13.9999 11.4696 13.7892 10.9609 13.4141 10.5859C13.0391 10.2108 12.5304 10.0001 11.9999 10.0001ZM9.17192 9.17208C9.54091 8.79004 9.98229 8.48531 10.4703 8.27568C10.9583 8.06604 11.4832 7.95569 12.0143 7.95108C12.5454 7.94646 13.0722 8.04767 13.5637 8.24879C14.0553 8.44992 14.5019 8.74693 14.8775 9.1225C15.2531 9.49807 15.5501 9.94468 15.7512 10.4363C15.9523 10.9278 16.0535 11.4546 16.0489 11.9857C16.0443 12.5168 15.934 13.0417 15.7243 13.5297C15.5147 14.0177 15.21 14.4591 14.8279 14.8281C14.0735 15.5567 13.0631 15.9599 12.0143 15.9508C10.9655 15.9417 9.96228 15.521 9.22065 14.7794C8.47901 14.0377 8.05834 13.0345 8.04922 11.9857C8.04011 10.9369 8.44329 9.92649 9.17192 9.17208Z" fill="currentColor"/>
</svg>
