<svg width="24" height="24" viewBox="0 0 24 24" fill="none" xmlns="http://www.w3.org/2000/svg">
<path d="M15.3816 11.1002C15.0645 12.3255 13.9884 13.2299 12.7132 13.2299H7.09096C5.81585 13.2299 4.73969 12.3256 4.42262 11.1002H0.75V15.6163C0.75 18.5849 3.0685 21 5.91824 21H15.2116C18.0614 21 20.3798 18.5849 20.3798 15.6162V14.3495L21.7813 12.5976H23.75V11.1001H15.3816V11.1002ZM11.1799 16.3662V17.8637H9.74238V16.3662H11.1799ZM6.16458 16.3662H7.60208V17.8637H6.16458V16.3662ZM13.3202 16.3662H14.7577V17.8637H13.3202V16.3662Z" fill="currentColor"/>
<path d="M15.7397 2H5.02939L5.3317 2.97734C5.77598 4.4137 5.72624 5.99037 5.19159 7.41699L4.80893 8.43801H9.74238V11.7324H11.1799V8.43801H15.5521C16.5226 6.86623 16.5705 4.17875 15.7397 2Z" fill="currentColor"/>
</svg>
